<svg id="Layer_2" data-name="Layer 2" xmlns="http://www.w3.org/2000/svg" xmlns:xlink="http://www.w3.org/1999/xlink" viewBox="0 0 137.73 68.71"><defs><style>.cls-1{fill:none;}.cls-2{fill:#fff;}.cls-3{clip-path:url(#clip-path);}.cls-4{fill:#f39639;}.cls-5{fill:#ee7d20;}.cls-6{fill:#f8b23b;}.cls-7{fill:#148837;}.cls-8{fill:#087834;}.cls-9{fill:#59af31;}.cls-10{fill:#e6e6e6;}.cls-11{fill:#ddd;}</style><clipPath id="clip-path" transform="translate(-6.06 -4.34)"><path class="cls-1" d="M113.26,27.3a25.57,25.57,0,0,0,7.1,7.11c4.07,2.4,13.85-5.17,16.24-10.51s4.1-15.09-1.62-13-11.47,10-13.88,11.66S113.26,27.3,113.26,27.3Z"/></clipPath></defs><g id="Layer_1" data-name="Layer 1"><path class="cls-2" d="M11.08,67.28h1.8c1.66,0,2.63,1,2.63,2.29h0a2.37,2.37,0,0,1-2.66,2.34H11.08Zm1.81,3.5a1.14,1.14,0,0,0,1.28-1,1.21,1.21,0,0,0,0-.19h0a1.14,1.14,0,0,0-1.11-1.18,1.08,1.08,0,0,0-.18,0h-.51V70.8Z" transform="translate(-6.06 -4.34)"/><path class="cls-2" d="M16.11,68.33h1.26v.73a1.1,1.1,0,0,1,1.13-.78v1.33h-.11c-.65,0-1,.38-1,1.21v1.12H16.11Z" transform="translate(-6.06 -4.34)"/><path class="cls-2" d="M19,67.08h1.32V68H19Zm0,1.25h1.26v3.6H19Z" transform="translate(-6.06 -4.34)"/><path class="cls-2" d="M20.68,68.33H22l.73,2.1.69-2.1h1.31L23.26,72H22.11Z" transform="translate(-6.06 -4.34)"/><path class="cls-2" d="M25.1,67.08h1.34V68H25.1Zm0,1.25h1.27v3.6H25.12Z" transform="translate(-6.06 -4.34)"/><path class="cls-2" d="M27.09,68.33h1.26v.51a1.34,1.34,0,0,1,1.08-.59,1.17,1.17,0,0,1,1.23,1.12,1.27,1.27,0,0,1,0,.2v2.36H29.36V70c0-.39-.2-.6-.5-.6a.53.53,0,0,0-.53.6v2H27.09Z" transform="translate(-6.06 -4.34)"/><path class="cls-2" d="M31.26,72.59l.41-.84a2.46,2.46,0,0,0,1.26.34c.63,0,1-.31,1-.88v-.14a1.43,1.43,0,0,1-1.12.54,1.56,1.56,0,0,1-1.59-1.53v-.15h0a1.58,1.58,0,0,1,1.47-1.67h.08a1.44,1.44,0,0,1,1.13.5v-.42h1.26v2.73a1.93,1.93,0,0,1-.46,1.47,2.21,2.21,0,0,1-1.58.5A3.82,3.82,0,0,1,31.26,72.59Zm2.62-2.66h0a.69.69,0,0,0-.69-.69h0a.72.72,0,0,0-.73.69h0a.74.74,0,0,0,1.47,0Z" transform="translate(-6.06 -4.34)"/><path class="cls-2" d="M37.71,67.28h3.71V68.4H39v.8h2.2v1.08H39v1.66H37.71Z" transform="translate(-6.06 -4.34)"/><path class="cls-2" d="M41.93,67.08h1.33V68H41.94Zm0,1.25h1.33v3.6H42Z" transform="translate(-6.06 -4.34)"/><path class="cls-2" d="M43.93,68.33H45.2v.51a1.32,1.32,0,0,1,1.07-.59,1.17,1.17,0,0,1,1.23,1.12,1.27,1.27,0,0,1,0,.2v2.36H46.23V70c0-.39-.21-.6-.51-.6s-.52.21-.52.6v2H43.93Z" transform="translate(-6.06 -4.34)"/><path class="cls-2" d="M48,70.9h0c0-.73.57-1.13,1.41-1.13a2.77,2.77,0,0,1,.86.14v-.06c0-.37-.23-.58-.73-.58a2.52,2.52,0,0,0-1,.19l-.27-.89a3.7,3.7,0,0,1,1.47-.28,1.88,1.88,0,0,1,1.36.44,1.47,1.47,0,0,1,.39,1.14v2.07H50.23v-.37a1.34,1.34,0,0,1-1.06.45,1.08,1.08,0,0,1-1.2-1A.76.76,0,0,1,48,70.9Zm2.29-.27v-.17a1.64,1.64,0,0,0-.49-.1c-.37,0-.58.19-.58.45h0a.39.39,0,0,0,.4.39h0a.58.58,0,0,0,.63-.52v-.05Z" transform="translate(-6.06 -4.34)"/><path class="cls-2" d="M52.12,68.33h1.27v.51a1.32,1.32,0,0,1,1.07-.59,1.19,1.19,0,0,1,1.24,1.12,1.27,1.27,0,0,1,0,.2v2.36H54.42V70c0-.39-.21-.6-.51-.6s-.52.21-.52.6v2H52.12Z" transform="translate(-6.06 -4.34)"/><path class="cls-2" d="M56.19,70.14h0A1.86,1.86,0,0,1,58,68.27h.07a1.72,1.72,0,0,1,1.54.81l-.86.63a.79.79,0,0,0-.67-.37.73.73,0,0,0-.74.73.2.2,0,0,0,0,.07h0A.72.72,0,0,0,58,71h.1a.89.89,0,0,0,.73-.38l.84.62a1.8,1.8,0,0,1-1.6.82,1.85,1.85,0,0,1-1.9-1.8Z" transform="translate(-6.06 -4.34)"/><path class="cls-2" d="M60.11,67.08h1.32V68H60.11Zm0,1.25h1.26v3.6H60.11Z" transform="translate(-6.06 -4.34)"/><path class="cls-2" d="M61.93,70.9h0c0-.73.56-1.13,1.4-1.13a2.83,2.83,0,0,1,.87.14v-.06c0-.37-.23-.58-.73-.58a2.6,2.6,0,0,0-1,.19l-.25-.89a3.65,3.65,0,0,1,1.46-.28,1.89,1.89,0,0,1,1.37.44,1.5,1.5,0,0,1,.38,1.14v2.07H64.19v-.37a1.32,1.32,0,0,1-1.06.45,1.08,1.08,0,0,1-1.2-1Zm2.28-.27v-.17a1.38,1.38,0,0,0-.49-.1c-.37,0-.58.19-.58.45h0a.39.39,0,0,0,.4.39h.05a.57.57,0,0,0,.62-.52v-.05Z" transform="translate(-6.06 -4.34)"/><path class="cls-2" d="M66.11,67.08h1.28v4.85H66.13Z" transform="translate(-6.06 -4.34)"/><path class="cls-2" d="M70,67.28h1.29V70.8h2.25v1.13H70Z" transform="translate(-6.06 -4.34)"/><path class="cls-2" d="M74,67.08h1.31V68H74Zm0,1.25h1.26v3.6H74Z" transform="translate(-6.06 -4.34)"/><path class="cls-2" d="M76.22,70.81V69.35H75.8v-1h.42v-.91h1.26v.91h.88v1h-.88v1.21c0,.26.12.37.35.37a1.15,1.15,0,0,0,.48-.13v1a1.78,1.78,0,0,1-.88.2,1.05,1.05,0,0,1-1.2-.87A1.15,1.15,0,0,1,76.22,70.81Z" transform="translate(-6.06 -4.34)"/><path class="cls-2" d="M78.62,70.14h0a1.8,1.8,0,0,1,1.72-1.87h.1A1.77,1.77,0,0,1,82.26,70a2.09,2.09,0,0,1,0,.25v.27H79.82a.73.73,0,0,0,.78.58,1,1,0,0,0,.79-.36l.74.58a1.92,1.92,0,0,1-1.57.73,1.8,1.8,0,0,1-1.93-1.67A1.55,1.55,0,0,1,78.62,70.14Zm2.45-.3a.64.64,0,0,0-.63-.65h0c-.33,0-.56.25-.63.65Z" transform="translate(-6.06 -4.34)"/><path class="cls-2" d="M82.78,68.33h1.27v.73a1.1,1.1,0,0,1,1.13-.78v1.33h-.1c-.66,0-1,.38-1,1.21v1.12H82.78Z" transform="translate(-6.06 -4.34)"/><path class="cls-2" d="M85.28,70.9h0c0-.73.57-1.13,1.42-1.13a2.82,2.82,0,0,1,.86.14v-.06c0-.37-.24-.58-.73-.58a2.65,2.65,0,0,0-1,.19l-.25-.89A3.65,3.65,0,0,1,87,68.29a1.89,1.89,0,0,1,1.37.44,1.5,1.5,0,0,1,.38,1.14v2.07H87.54v-.37a1.32,1.32,0,0,1-1.06.45,1.09,1.09,0,0,1-1.19-1A.71.71,0,0,1,85.28,70.9Zm2.29-.27v-.17a1.43,1.43,0,0,0-.49-.1c-.37,0-.58.19-.58.45h0a.39.39,0,0,0,.4.39h0a.56.56,0,0,0,.62-.52v-.05Z" transform="translate(-6.06 -4.34)"/><path class="cls-2" d="M89.33,70.14h0a1.87,1.87,0,0,1,1.86-1.87h.06a1.72,1.72,0,0,1,1.54.81l-.86.63a.79.79,0,0,0-.67-.37.73.73,0,0,0-.73.73s0,0,0,.07h0a.73.73,0,0,0,.64.81h.09a.87.87,0,0,0,.69-.38l.85.62a1.81,1.81,0,0,1-1.61.82,1.85,1.85,0,0,1-1.86-1.84Z" transform="translate(-6.06 -4.34)"/><path class="cls-2" d="M93.07,72.7l.38-.89A1.26,1.26,0,0,0,94,72a.31.31,0,0,0,.29-.15l-1.41-3.53h1.32l.73,2.2.69-2.2h1.29L95.6,71.84C95.29,72.68,95,73,94.24,73A2.35,2.35,0,0,1,93.07,72.7Z" transform="translate(-6.06 -4.34)"/><path class="cls-2" d="M100.84,67.24h1.23l2,4.69h-1.39l-.33-.83h-1.79l-.34.83H98.84ZM102,70.09l-.52-1.32-.53,1.32Z" transform="translate(-6.06 -4.34)"/><path class="cls-2" d="M104.14,70.14h0A1.86,1.86,0,0,1,106,68.27h.08a1.7,1.7,0,0,1,1.53.81l-.86.63a.79.79,0,0,0-.67-.37.74.74,0,0,0-.74.73.2.2,0,0,0,0,.07h0A.72.72,0,0,0,106,71h.1a.89.89,0,0,0,.73-.38l.84.62A1.8,1.8,0,0,1,106,72a1.85,1.85,0,0,1-1.9-1.8Z" transform="translate(-6.06 -4.34)"/><path class="cls-2" d="M108.06,68.33h1.27v.73a1.09,1.09,0,0,1,1.13-.78v1.33h-.11c-.66,0-1,.38-1,1.21v1.12h-1.27Z" transform="translate(-6.06 -4.34)"/><path class="cls-2" d="M110.7,70.14h0a2,2,0,0,1,4,0h0A1.92,1.92,0,0,1,112.73,72h-.06a1.88,1.88,0,0,1-2-1.79Zm2.74,0h0a.78.78,0,0,0-.75-.8h0a.73.73,0,0,0-.73.73v.07h0a.78.78,0,0,0,.73.81.73.73,0,0,0,.79-.67.33.33,0,0,0,0-.14Z" transform="translate(-6.06 -4.34)"/><path class="cls-2" d="M114.92,71.48l.47-.77a2.29,2.29,0,0,0,1.24.41c.22,0,.32-.06.32-.19h0c0-.14-.2-.21-.58-.31-.73-.19-1.28-.42-1.28-1.15h0c0-.77.62-1.19,1.46-1.19a2.82,2.82,0,0,1,1.47.42l-.43.79a2.38,2.38,0,0,0-1.06-.32c-.2,0-.3.07-.3.17h0c0,.15.21.21.59.32.73.2,1.27.45,1.27,1.14h0c0,.79-.59,1.21-1.46,1.21A3,3,0,0,1,114.92,71.48Z" transform="translate(-6.06 -4.34)"/><path class="cls-2" d="M118.26,71.48l.47-.77a2.26,2.26,0,0,0,1.23.41c.22,0,.32-.06.32-.19h0c0-.14-.2-.21-.57-.31-.74-.19-1.28-.42-1.28-1.15h0c0-.77.61-1.19,1.46-1.19a2.78,2.78,0,0,1,1.46.42l-.43.79a2.38,2.38,0,0,0-1.07-.32c-.19,0-.28.07-.28.17h0c0,.15.2.21.57.32.74.2,1.28.45,1.28,1.14h0c0,.79-.59,1.21-1.46,1.21A2.88,2.88,0,0,1,118.26,71.48Z" transform="translate(-6.06 -4.34)"/><path class="cls-2" d="M123.88,67.28h1.28v4.65h-1.29Z" transform="translate(-6.06 -4.34)"/><path class="cls-2" d="M126,68.33h1.27v.51a1.32,1.32,0,0,1,1.07-.59,1.17,1.17,0,0,1,1.23,1.12,1.27,1.27,0,0,1,0,.2v2.36h-1.26V70c0-.39-.2-.6-.5-.6a.53.53,0,0,0-.54.53.17.17,0,0,0,0,.07v2H126Z" transform="translate(-6.06 -4.34)"/><path class="cls-2" d="M130,70.14h0a1.7,1.7,0,0,1,1.49-1.87h.09a1.39,1.39,0,0,1,1.11.51v-1.7H134v4.85h-1.26v-.48a1.36,1.36,0,0,1-1.1.56A1.68,1.68,0,0,1,130,70.23Zm2.71,0h0a.73.73,0,1,0-1.46,0h0a.73.73,0,1,0,1.46,0Z" transform="translate(-6.06 -4.34)"/><path class="cls-2" d="M134.67,67.08H136V68h-1.31Zm0,1.25h1.26v3.6h-1.26Z" transform="translate(-6.06 -4.34)"/><path class="cls-2" d="M136.47,70.9h0c0-.73.57-1.13,1.41-1.13a2.82,2.82,0,0,1,.86.14v-.06c0-.37-.23-.58-.73-.58a2.6,2.6,0,0,0-1,.19l-.26-.89a3.65,3.65,0,0,1,1.46-.28,1.89,1.89,0,0,1,1.37.44,1.47,1.47,0,0,1,.39,1.14v2.07h-1.25v-.37a1.34,1.34,0,0,1-1.06.45,1.08,1.08,0,0,1-1.2-1Zm2.29-.27v-.17a1.71,1.71,0,0,0-.49-.1c-.37,0-.58.19-.58.45h0a.39.39,0,0,0,.4.39h0a.56.56,0,0,0,.62-.52v-.05Z" transform="translate(-6.06 -4.34)"/><path class="cls-2" d="M140.58,70.66h1.31V72h-1.31Z" transform="translate(-6.06 -4.34)"/><g class="cls-3"><path class="cls-4" d="M124.36,29.15l-.09.1Z" transform="translate(-6.06 -4.34)"/><path class="cls-4" d="M134,15.45h0Z" transform="translate(-6.06 -4.34)"/><path class="cls-4" d="M123.42,30.07l.41-.35Z" transform="translate(-6.06 -4.34)"/><path class="cls-4" d="M134.07,15.4Z" transform="translate(-6.06 -4.34)"/><polygon class="cls-4" points="121.93 20.31 121.92 20.32 121.93 20.32 121.93 20.31"/><path class="cls-4" d="M123.42,30.11l.06-.06Z" transform="translate(-6.06 -4.34)"/><path class="cls-4" d="M115.88,29.52" transform="translate(-6.06 -4.34)"/><path class="cls-4" d="M122.85,30.26" transform="translate(-6.06 -4.34)"/><path class="cls-4" d="M121,30.85a1.13,1.13,0,0,0-.21.12l.27-.1S121,30.84,121,30.85Z" transform="translate(-6.06 -4.34)"/><path class="cls-4" d="M122.85,30.26" transform="translate(-6.06 -4.34)"/><path class="cls-4" d="M122.85,30.26" transform="translate(-6.06 -4.34)"/><path class="cls-4" d="M118.19,30.66Z" transform="translate(-6.06 -4.34)"/><path class="cls-4" d="M129.12,20.77l.64-.79c.23-.28.68-.87.68-.87Z" transform="translate(-6.06 -4.34)"/><path class="cls-4" d="M130.61,19.5s.67-.7,1.06-1.06a11.06,11.06,0,0,1,1.2-.89Z" transform="translate(-6.06 -4.34)"/><path class="cls-4" d="M127.2,22.82" transform="translate(-6.06 -4.34)"/><path class="cls-4" d="M129.25,21.13l-.32.49a1.39,1.39,0,0,0,.14-.48s-.09,0-.18.18c-.3.39-.55.83-.83,1.24L127,24.22l.79-1.06-1.86,2.65L127,24.19s-.76,1.34-1.06,1.4h0c.2-.4.69-1.13.69-1.13l-.86,1.06.43-.65-.43.6.18-.32c.18-.27.4-.52.59-.8.42-.58,1.23-1.8,1.23-1.8a6,6,0,0,0-.52.72c-.16.25-.52.74-.52.74s1.19-1.93,1.82-2.85c.16-.25.32-.5.49-.74l.52-.77,1.06-1.55s-.72.84-1.06,1.28l-.42.5a2.59,2.59,0,0,1,.19-.33s-.62.87-.91,1.32c0,0,.12-.17.19-.29l.27-.43.61-1a5,5,0,0,0,.37-.7.06.06,0,0,0,0-.08c-.12,0-.21.12-.29.19a6.67,6.67,0,0,0-1,1.33c-.2.31-.39.62-.61.91h0l.1-.17a8,8,0,0,0,.53-.89v-.09h-.05l-.1.1.09-.13c.06-.1.14-.21.21-.31l.17-.25.23-.33c.08-.11.24-.25.24-.32l-.12.14-.14.18a3.4,3.4,0,0,1-.23.3l-.1.12a.15.15,0,0,1-.08.12,2.64,2.64,0,0,0-.21.29l-.3.41c-.31.47-.59,1.06-.89,1.55L127,22l-.15.24.25-.39L126.32,23l.29-.45.27-.45c.1-.17.21-.34.3-.51l.59-1,.19-.33.07-.13c-.09,0-.22.4-.27.41v-.19a8.43,8.43,0,0,1,.59-1.06l.25-.44.1-.14h0a.63.63,0,0,0-.12.11c-.09.14-.18.28-.26.42s-.34.58-.5.87-.24.45-.37.67c-.28.43-.54.88-.81,1.33s-.57.93-.87,1.39-.93,1.37-.93,1.37.86-1.32,1.27-2l.48-.81a3.32,3.32,0,0,0,.23-.37l.11-.18.09-.17c.14-.23.41-.73.41-.73l-.26.37c-.08.14-.17.28-.26.41l-.31.52-1.06,1.68c-.21.36-.42.92-.68,1.06l-.17.1.62-.94s-.69.93-1.06,1.37-.61.63-.88,1a.87.87,0,0,1-.18.11h0v.08l-.12.26c-.08.17-.2.27-.19.18s.09-.21.1-.33h0a1.89,1.89,0,0,1-.28.5l.15-.15c0,.25-.32.46-.53.55s0,.11-.13.16-.14-.13-.14-.13v.3l-.25.18.06-.09a2.44,2.44,0,0,0-.46.14,7.26,7.26,0,0,1-.78.59l-.27.11a1,1,0,0,1-.25.07.42.42,0,0,0-.14-.09,1,1,0,0,0-.32.15h-.56a5.7,5.7,0,0,0-.83.09h-.37a2.68,2.68,0,0,0-.8,0V29h0a1.51,1.51,0,0,1-.52,0h-.43l-.28-.08.24.07h.13l.35.11c.29.08.87.19.87.19l-.56-.17s.49.13.73.17a6.7,6.7,0,0,0,.77.08H118l-.51-.07a3.88,3.88,0,0,1,.84.14h-.65a3.08,3.08,0,0,1,.53.08h0a3.09,3.09,0,0,1-.74-.07h-.23a3.58,3.58,0,0,0-.56-.16l.39.13.23,0h0l-.46-.1h-.08c-.25-.07-.51-.16-.75-.25l-.41-.16-.42-.18-.4-.18-.19-.1h-.21l.25.14.38.19.27.14-.18-.07.21.1-.16-.07.19.09-.46-.21-.32-.14-.29-.14L114,28.4h-.08a4.16,4.16,0,0,1,.51.28h0l-.13-.07-.25-.14H114a4.25,4.25,0,0,1,.46.27h0a6.38,6.38,0,0,1-.67-.38l-.45-.28.54.35.68.4-.69-.4a5,5,0,0,0-.58-.35h.06l-.86-.57.62.43.37.25c.36.23.74.45,1.12.65l.36.19.19.1-.31-.16.54.28.41.2-.38-.18-.75-.38-.73-.42-.23-.14-.1-.06.29.19-.15-.06L113,28l-.55-.38.65.46.75.76.51.3.14.07.14.09.29.15c.4.2.79.38,1.19.55s1.33.46,1.33.46-1.26-.4-1.86-.67l-.67-.33c-.22-.12-.39-.2-.59-.32a6.26,6.26,0,0,0-.59-.34l.3.19.36.21.43.24c.48.25,1,.48,1.47.68a8.22,8.22,0,0,0,1.06.35l.18.1c-.31-.09-.92-.3-.92-.3s1.06.38,1.51.52a7,7,0,0,0,1.28.24,1,1,0,0,1,.23.06h.09L120,31c.14,0,.28-.08.27,0s-.36.18-.15.12a4.42,4.42,0,0,0,.47-.15h-.21a1.38,1.38,0,0,1,.77-.14c.19,0,0-.07.2-.09s.16.14.16.14l.08-.22.18-.08.18-.05s-.13.08-.09.07a3.4,3.4,0,0,0,.71-.12,2.36,2.36,0,0,0,.54-.4c.17-.16.35-.31.53-.45a3.19,3.19,0,0,1,.71-.56,3,3,0,0,0,.65-.52l-.2.12c.12-.23.68-.46.74-.63l.22-.28c.4-.47,1.13-1.48,1.13-1.48l-.49.55.44-.61.51-.7a4,4,0,0,0,.94-1.69c0-.11-.28,0-.28,0h0a4.78,4.78,0,0,1,.53-1.06c.18-.32.41-.65.54-.93A3.23,3.23,0,0,0,129.25,21.13Zm-2,1.69h0c.08,0-.06.1-.06.1l0-.1Zm-.41.59-.13.21h0l.07-.11.16-.28h0Zm-.17.19.14-.24ZM128.49,21c-.36.64-1.25,1.82-1.25,1.82s.39-.74.61-1.06.44-.7.67-1.06l-.55.88c.26-.39.54-.78.81-1.16A3.92,3.92,0,0,1,128.49,21Zm-4.14,4.65h.09a1.44,1.44,0,0,1-.18.25A1.06,1.06,0,0,1,124.35,25.64Zm-1,1.21-.11.12s.08-.16.11-.17Zm-7.75,2.66h0Zm.35.13h0l.21.08Zm-.08-.07a1.42,1.42,0,0,1-.29-.1h.18l.67.25Zm-.13-.06Zm2.47,1.21h.18l-.18,0Zm1.46.16h.16a.44.44,0,0,1-.16-.06Z" transform="translate(-6.06 -4.34)"/><path class="cls-4" d="M131.13,17.67l-.38.35A1.8,1.8,0,0,0,131.13,17.67Z" transform="translate(-6.06 -4.34)"/><path class="cls-4" d="M134.67,15.28a6.72,6.72,0,0,0-.89.32,5.28,5.28,0,0,0-.82.5c.22-.15.43-.3.67-.44a7.94,7.94,0,0,0-.78.5l-.19.13-.21.15-.46.37c-.24.22-.56.59-.81.85l.38-.34.53-.4.29-.2.29-.19c.58-.36,1.65-1,2.07-1.22Z" transform="translate(-6.06 -4.34)"/><path class="cls-4" d="M115.64,29.8c.33.15.66.29,1,.42C116.3,30.09,116,30,115.64,29.8Z" transform="translate(-6.06 -4.34)"/><path class="cls-4" d="M128.37,24l-.38.63h0l-.59.83,1.35-1.9A2.67,2.67,0,0,0,128.37,24Z" transform="translate(-6.06 -4.34)"/><path class="cls-4" d="M128,23.75Z" transform="translate(-6.06 -4.34)"/><path class="cls-4" d="M133.57,15.67a4.23,4.23,0,0,1,.42-.22A4.23,4.23,0,0,0,133.57,15.67Z" transform="translate(-6.06 -4.34)"/><polygon class="cls-4" points="111.36 24.82 111.36 24.82 111.36 24.82 111.36 24.82"/><path class="cls-4" d="M122.42,27.49a1.23,1.23,0,0,0,.12-.26,2.47,2.47,0,0,0-.16.26S122.36,27.52,122.42,27.49Z" transform="translate(-6.06 -4.34)"/><path class="cls-4" d="M120.16,28.82h0Z" transform="translate(-6.06 -4.34)"/><path class="cls-4" d="M121.15,28.33" transform="translate(-6.06 -4.34)"/><path class="cls-4" d="M121.15,28.33" transform="translate(-6.06 -4.34)"/><path class="cls-4" d="M120.81,28.42l-.29.19Z" transform="translate(-6.06 -4.34)"/><path class="cls-4" d="M120.8,28.36Z" transform="translate(-6.06 -4.34)"/><path class="cls-4" d="M114.17,28.69h0l-.86-.53-1-.63L113,28l-.32-.2.81.51C113.72,28.44,114.17,28.66,114.17,28.69Z" transform="translate(-6.06 -4.34)"/><path class="cls-4" d="M117.06,29.38Z" transform="translate(-6.06 -4.34)"/><path class="cls-4" d="M117.42,29.16h.43l-.93-.09Z" transform="translate(-6.06 -4.34)"/><path class="cls-4" d="M124.39,25.56Z" transform="translate(-6.06 -4.34)"/><path class="cls-4" d="M112.53,27.69l.18.11Z" transform="translate(-6.06 -4.34)"/><path class="cls-4" d="M126.08,22.92,125.4,24Z" transform="translate(-6.06 -4.34)"/><path class="cls-4" d="M114.58,28.66l-.49-.25,1,.49Z" transform="translate(-6.06 -4.34)"/><path class="cls-4" d="M114.82,28.9l.81.37-.39-.18A4.35,4.35,0,0,0,114.82,28.9Z" transform="translate(-6.06 -4.34)"/><path class="cls-4" d="M112.52,27.68Z" transform="translate(-6.06 -4.34)"/><path class="cls-4" d="M112.52,27.68Z" transform="translate(-6.06 -4.34)"/><path class="cls-5" d="M113.76,28.51l-.73-.45-.39-.27-.09-.06-.1-.07-.21-.14h0l.19.1h0l-.22-.11h.15l.13.09.33.23-.3-.22h-.23l.13.09.1.07.12.09.66.43.66.4.3.18A3.31,3.31,0,0,1,113.76,28.51Z" transform="translate(-6.06 -4.34)"/><path class="cls-5" d="M115.76,29.52l-.79-.39h-.12l.3.17Z" transform="translate(-6.06 -4.34)"/><path class="cls-5" d="M113.81,28.44l.6.35h0l.56.29Z" transform="translate(-6.06 -4.34)"/><path class="cls-5" d="M116.5,29.53l.18.08C116.77,29.62,116.7,29.6,116.5,29.53Z" transform="translate(-6.06 -4.34)"/><path class="cls-5" d="M116,29.33h0Z" transform="translate(-6.06 -4.34)"/><path class="cls-5" d="M115.13,29" transform="translate(-6.06 -4.34)"/><path class="cls-5" d="M114.94,28.87l.2.1Z" transform="translate(-6.06 -4.34)"/><path class="cls-5" d="M131.71,18.44" transform="translate(-6.06 -4.34)"/><path class="cls-5" d="M131.73,18.4" transform="translate(-6.06 -4.34)"/><path class="cls-5" d="M131.74,18.38" transform="translate(-6.06 -4.34)"/><path class="cls-5" d="M130,19.63Z" transform="translate(-6.06 -4.34)"/><path class="cls-5" d="M130.27,19.35l-.2.26Z" transform="translate(-6.06 -4.34)"/><path class="cls-5" d="M121.5,29.42l.3-.12.31-.15c.21-.13.42-.25.62-.39a6.24,6.24,0,0,0,.65-.5l.16-.14.08-.07.08-.08.3-.3a14.18,14.18,0,0,0,1.31-1.59c.45-.63.89-1.27,1.31-1.92l1-1.51.24-.38.29-.42.56-.81a17.94,17.94,0,0,1,1.15-1.5c.21-.26.41-.5.62-.74s.69-.76.69-.76-.35.39-.51.59.27-.25.18-.13l-.52.61-.24.31-.25.3.77-.91c.29-.35.95-1,.95-1s-.62.68-.91,1.06-.46.55-.67.83l-.39.51.37-.45c-.37.46-.72.95-1.06,1.43s-.58.84-.84,1.29l.25-.38a5.5,5.5,0,0,1-.28.48l-.28.46c-.09.16-.19.33-.29.48l-.69,1.16,1.11-1.62c.16-.25.5-.72.5-.72l-.24.39s1.3-1.81,2-2.66c.23-.29.48-.55.72-.82s.7-.78.8-.77.11-.07,0,0c-.54.58-1.06,1.18-1.59,1.79a19.56,19.56,0,0,0-1.4,1.85c-.22.29-.42.6-.62.91l-.59.91-1.06,1.67c-.26.41-.8,1.19-.8,1.19s.29-.3.44-.44a2.7,2.7,0,0,1-.22.33c-.28.34-.78.73-.84,1H125l-.11.12.2-.09L126,27l-.7.67c-.27.26-.54.54-.82.79a9.05,9.05,0,0,1-.89.75,8.25,8.25,0,0,1-.88.57,7,7,0,0,1-1,.47,2.34,2.34,0,0,0-.49.16,4.43,4.43,0,0,1-.49.13,6,6,0,0,1-2,.06,8,8,0,0,1-1.68-.39,13.33,13.33,0,0,1-1.61-.67c-.23-.11-.47-.23-.69-.36s-.41-.23-.3-.19l.57.28.76.37-.66-.32s.19.08-.09-.06l-.78-.43s1.22.64,1.85.9a18.06,18.06,0,0,0,1.84.6l-.52-.14a1.61,1.61,0,0,1-.48-.16l1.32.35-.41-.12-.34-.09-.23-.08-.38-.12-.39-.14-.53-.21a1.43,1.43,0,0,1,.28.07l-.28-.11.36.11a5.53,5.53,0,0,0,.66.2,1.16,1.16,0,0,0,.45.08h0c-.07,0-.21-.1,0-.07s.53.12.79.14a4,4,0,0,0,.49,0h.53a6.74,6.74,0,0,0,2-.42Zm-5.58.25-.34-.15c.24.13.5.23.75.35l-.56-.24c.35.16.72.32,1.06.44l.66.21.34.09C117.2,30.17,116.55,29.93,115.92,29.67Zm2.7.76h0Zm2.89-.28Z" transform="translate(-6.06 -4.34)"/><path class="cls-5" d="M125,27.68" transform="translate(-6.06 -4.34)"/><path class="cls-5" d="M131.81,18.22" transform="translate(-6.06 -4.34)"/><path class="cls-5" d="M131.81,18.22" transform="translate(-6.06 -4.34)"/><path class="cls-5" d="M131.84,18.22Z" transform="translate(-6.06 -4.34)"/><path class="cls-5" d="M132,18.06Z" transform="translate(-6.06 -4.34)"/><polygon class="cls-5" points="125.64 14.11 125.64 14.12 125.64 14.12 125.64 14.12 125.64 14.12 125.64 14.12 125.64 14.11"/><path class="cls-5" d="M131.9,18.16" transform="translate(-6.06 -4.34)"/><path class="cls-5" d="M131.9,18.14Z" transform="translate(-6.06 -4.34)"/><path class="cls-5" d="M131.9,18.12Z" transform="translate(-6.06 -4.34)"/><path class="cls-5" d="M131.9,18.12" transform="translate(-6.06 -4.34)"/><path class="cls-5" d="M131.9,18.15" transform="translate(-6.06 -4.34)"/><polygon class="cls-5" points="125.83 13.81 125.83 13.81 125.83 13.81 125.83 13.81 125.83 13.81 125.84 13.8 125.83 13.81"/><path class="cls-5" d="M131.9,18.14Z" transform="translate(-6.06 -4.34)"/><path class="cls-5" d="M132,18.05" transform="translate(-6.06 -4.34)"/><path class="cls-5" d="M132,18.05Z" transform="translate(-6.06 -4.34)"/><path class="cls-6" d="M123.62,29.18l.46-.41Z" transform="translate(-6.06 -4.34)"/><path class="cls-6" d="M129.45,22l-.49.7h0l-.72.95,1.67-2.12A3.41,3.41,0,0,0,129.45,22Z" transform="translate(-6.06 -4.34)"/><path class="cls-6" d="M127.93,20.42l-.21.15v.17Z" transform="translate(-6.06 -4.34)"/><path class="cls-6" d="M124.61,28.2l.11-.12Z" transform="translate(-6.06 -4.34)"/><path class="cls-6" d="M126.18,23.44l-.3.47A2.09,2.09,0,0,0,126.18,23.44Z" transform="translate(-6.06 -4.34)"/><path class="cls-6" d="M121.16,30.16a1.19,1.19,0,0,0-.23.16l.29-.14S121.22,30.15,121.16,30.16Z" transform="translate(-6.06 -4.34)"/><path class="cls-6" d="M133.2,15.68l.18-.06h-.06Z" transform="translate(-6.06 -4.34)"/><path class="cls-6" d="M134.15,15.35c-.27.08-.51.18-.77.27A3.35,3.35,0,0,0,134.15,15.35Z" transform="translate(-6.06 -4.34)"/><path class="cls-6" d="M134.61,15.15l-.46.2h.14l.35-.08Z" transform="translate(-6.06 -4.34)"/><path class="cls-6" d="M135.13,16.39a3.19,3.19,0,0,0-.75.13,9.67,9.67,0,0,0-1.63.76,12.55,12.55,0,0,1,1.6-.67,5.21,5.21,0,0,0,.81-.16Z" transform="translate(-6.06 -4.34)"/><path class="cls-6" d="M131.64,17.43a12.37,12.37,0,0,0-.91.87l.17-.15.22-.19.51-.43,1.06-.78A9.88,9.88,0,0,0,131.64,17.43Z" transform="translate(-6.06 -4.34)"/><path class="cls-6" d="M130.84,18.74l-.43.51a1.84,1.84,0,0,0,.21-.55,1,1,0,0,0-.23.18,16.5,16.5,0,0,0-1.06,1.35L128,22.12,129,21l-2.22,3.09L128,22.12s-.93,1.6-1.2,1.66h0c.23-.47.82-1.35.82-1.35l-.53.77c-.14.2-.46.55-.46.55l.49-.76-.75,1.06s.76-1.06,1.15-1.65S129,20.28,129,20.28a10.13,10.13,0,0,0-.65.81c-.19.28-.62.85-.62.85s1.48-2.21,2.33-3.18c.22-.26.45-.52.69-.77l.18-.19.18-.19.4-.39c.54-.52,1.75-1.42,1.75-1.42a17.79,17.79,0,0,0-1.65,1.06,4.09,4.09,0,0,1-.61.49c.1-.12.31-.34.31-.34a5.07,5.07,0,0,0-.37.36l-.32.33-.62.68.65-.76.21-.24.25-.27c.16-.18.31-.35.48-.52a3.67,3.67,0,0,0,.64-.72c.13-.22-.4,0-.42,0a3.06,3.06,0,0,0-.82.65.52.52,0,0,1-.11.1l-.09.11-.18.2-.37.44c-.28.32-.66.6-.94.91a.88.88,0,0,1-.12.26c-.17.19-.23.2-.25.26s-.21.39-.31.58c-.25.4-.47.83-.68,1.25a4.84,4.84,0,0,1-.55.93c-.06,0,0-.23,0-.23a3,3,0,0,0-.24.38q-.18.3-.36.63l-.41.78s.17-.21.25-.33.14-.17.13-.14a3.42,3.42,0,0,1-1.06,1.6,1,1,0,0,0-.38.22c-.33.41-.63.87-1,1.29-.21.24-.41.5-.62.73a2.58,2.58,0,0,1-.6.59c-.12.09-.3,0-.4.13s.18.06.18.06l-.06.08a4.18,4.18,0,0,1-1.12.83c-.1,0-.13.13-.24.2s-.08-.07-.12,0a2.1,2.1,0,0,1-.38.3,3.16,3.16,0,0,1-.72.18,2.53,2.53,0,0,0-.76.26h.15a.51.51,0,0,1-.34,0,1.19,1.19,0,0,0-.53,0l-.42.13a4,4,0,0,1-.49,0h-1a3.52,3.52,0,0,1-.76-.15L116,29h-.15l-.36-.11-.35-.12.34.14.3.09H116l.16.06c.33.09.67.17,1,.23.53.1,1.58.16,1.58.16h-.57a3.42,3.42,0,0,1-.64,0,8.31,8.31,0,0,1-1.41-.35l-.3-.1c-.26-.08-.52-.18-.76-.28s-.51-.21-.76-.33l-.12-.06-.11-.06H114l.3.17.76.34.41.16.2.08.19.06.46.15-.37-.11-.17-.06-.21-.08-.59-.2c-.26-.1-.52-.22-.79-.35L114,28.4h-.11l-.09-.06s.14.09.36.2l.88.39.5.19.43.15.51.15-.42-.12-.39-.13-.44-.16c-.32-.12-.65-.26-1-.41l-.42-.21-.34-.19-.28-.16h0l.24.14.57.32.38.21-.46-.25-.55-.3-.18-.1-.11-.06h0l-.13-.08a.57.57,0,0,0-.13-.08l-.28-.18-.47-.34.43.31.21.14.19.13h.12l.57.33.65.33.56.25-.31-.14.54.24.39.19-.38-.16-.16-.07-.18-.08-.4-.19-.78-.4-.26-.15h-.11l.32.19a.76.76,0,0,0-.18-.09h0l-.22-.12-.19-.11-.1-.06-.1-.07.08,0-.1-.06h-.13l-.25-.17h-.11l.08.06.24.16h0l.1.05.12.09.32.19.16.1.15.09.44.24c.35.2.71.38,1.06.55l.61.26c.2.08.4.17.6.23.45.17,1.35.42,1.35.42s-1.27-.34-1.89-.6l-.69-.3-.14-.07-.13-.07-.28-.13-.43-.23-.19-.1a2.17,2.17,0,0,0,.33.19l.74.38a11.52,11.52,0,0,0,1.49.64c.35.12.7.22,1.06.31l.18.08c-.32-.07-1-.25-1-.25s1.06.34,1.55.45a5.37,5.37,0,0,0,1.32.17h.34l.23-.08c.16-.07.32-.11.29,0l-.17.1c-.08,0-.12.09,0,0a2.81,2.81,0,0,1,.51-.21h-.23a1.52,1.52,0,0,1,.83-.22c.19,0,.06-.08.21-.11s.15.14.15.14l.12-.26.37-.17s-.14.1-.1.09a3.85,3.85,0,0,0,.69-.16l.34-.24.23-.22c.19-.19.39-.38.59-.55s.49-.47.76-.67a.45.45,0,0,0,.28,0,1.32,1.32,0,0,0,.44-.58l-.22.14c.14-.29.59-.54.82-.79a3,3,0,0,0,.28-.34l.65-.88.67-.92-.57.64.53-.72.59-.81a4.89,4.89,0,0,0,1.19-1.93c0-.12-.32,0-.32,0h0a5.47,5.47,0,0,1,.73-1.23c.22-.35.68-.76.73-1.06,0,0-.12.05-.16,0A3.91,3.91,0,0,1,130.84,18.74Zm-1.69.47c.29-.39.59-.77.91-1.15-.26.32-.51.64-.75,1,.34-.44,1.06-1.25,1.06-1.25l-.43.65c-.5.69-1.61,2-1.61,2a12.61,12.61,0,0,1,.8-1.25Zm-.83,1.25h0c.13,0-.26.1,0,0Zm-.46.54h0l.17-.15a3,3,0,0,1-.49.64,3.06,3.06,0,0,1,.3-.49Zm-9.54,9.16Zm1.54.07h0Z" transform="translate(-6.06 -4.34)"/><path class="cls-6" d="M115.64,29.39c.34.14.68.28,1.06.4C116.32,29.67,116,29.54,115.64,29.39Z" transform="translate(-6.06 -4.34)"/><path class="cls-6" d="M129,22.71" transform="translate(-6.06 -4.34)"/><path class="cls-6" d="M123.09,29.4Z" transform="translate(-6.06 -4.34)"/><path class="cls-6" d="M123.09,29.4" transform="translate(-6.06 -4.34)"/><path class="cls-6" d="M125.54,24.52Z" transform="translate(-6.06 -4.34)"/><path class="cls-6" d="M127.84,21Z" transform="translate(-6.06 -4.34)"/><path class="cls-6" d="M125.54,24.52Z" transform="translate(-6.06 -4.34)"/><path class="cls-6" d="M128.3,20.46" transform="translate(-6.06 -4.34)"/><path class="cls-6" d="M129.05,21.65Z" transform="translate(-6.06 -4.34)"/><path class="cls-6" d="M129.05,21.65" transform="translate(-6.06 -4.34)"/><path class="cls-6" d="M129.05,21.63Z" transform="translate(-6.06 -4.34)"/><path class="cls-7" d="M120.72,33.2h0Z" transform="translate(-6.06 -4.34)"/><path class="cls-7" d="M128.27,28.37Z" transform="translate(-6.06 -4.34)"/><path class="cls-7" d="M119.73,33l.42.11Z" transform="translate(-6.06 -4.34)"/><path class="cls-7" d="M128.32,28.31Z" transform="translate(-6.06 -4.34)"/><polygon class="cls-7" points="118.06 28.94 118.06 28.94 118.06 28.94 118.06 28.94"/><path class="cls-7" d="M119.75,33Z" transform="translate(-6.06 -4.34)"/><path class="cls-7" d="M114.12,29.46Z" transform="translate(-6.06 -4.34)"/><path class="cls-7" d="M119.3,32.74" transform="translate(-6.06 -4.34)"/><path class="cls-7" d="M117.69,32l-.23-.08.25.1S117.73,32,117.69,32Z" transform="translate(-6.06 -4.34)"/><path class="cls-7" d="M119.3,32.74" transform="translate(-6.06 -4.34)"/><path class="cls-7" d="M119.3,32.74" transform="translate(-6.06 -4.34)"/><path class="cls-7" d="M115.53,30.6Z" transform="translate(-6.06 -4.34)"/><path class="cls-7" d="M125.38,31.75s.31-.18.46-.29.45-.39.45-.39Z" transform="translate(-6.06 -4.34)"/><path class="cls-7" d="M126.35,31.33l.63-.53.65-.64Z" transform="translate(-6.06 -4.34)"/><path class="cls-7" d="M124,32.11" transform="translate(-6.06 -4.34)"/><path class="cls-7" d="M125.41,32l-.25.17.15-.21h-.13c-.07,0-.43.25-.67.36a9.33,9.33,0,0,1-.93.34l.67-.14-1.66.33,1-.19a4,4,0,0,1-.91.13h0l.67-.16-.78.07.41-.06s-.39,0-.4,0h.18l.53-.08a7.56,7.56,0,0,0,1.06-.3s-.28.07-.42.12a3.13,3.13,0,0,1-.46.12,12.06,12.06,0,0,0,1.56-.68l.38-.24.38-.31c.26-.24.51-.5.75-.76,0,0-.45.41-.69.6a1.32,1.32,0,0,1-.29.19l.15-.14c-.22.17-.46.33-.69.48l.16-.09.2-.16a6,6,0,0,0,.46-.42,1.25,1.25,0,0,0,.28-.36c0-.06,0-.07-.18,0a7,7,0,0,0-.69.53,2.09,2.09,0,0,1-.47.3h.09a2.59,2.59,0,0,0,.42-.32h0l.15-.13.13-.08.17-.15.17-.14-.08.07-.1.07-.16.12h-.14l-.16.1a.77.77,0,0,1-.21.14,6.19,6.19,0,0,1-.75.51l-.23.12-.14.06.21-.09-.67.23.26-.1.24-.1.27-.13a3.82,3.82,0,0,0,.48-.29l.16-.1.07-.06a1.71,1.71,0,0,0-.23.13v-.11l.48-.4.2-.17h0l-.21.16a4.12,4.12,0,0,1-.4.33,2.18,2.18,0,0,1-.31.22,6.53,6.53,0,0,1-.7.35A7.08,7.08,0,0,1,123,32c-.28.07-.87.16-.87.16q.6-.12,1.2-.3l.42-.17.2-.09.1-.06h.08c.12-.06.31-.13.35-.22l-.2.1-.22.11-.28.12a5.24,5.24,0,0,1-.94.33,1.77,1.77,0,0,1-.65.15h-.12l.58-.12s-.64.07-1,.07h-.79l-.14-.05h-.38s.25-.09.11-.07h-.18a.67.67,0,0,1-.5-.07h-.14c-.14,0-.05-.09-.05-.09l-.11.07-.23,0h.07a2.36,2.36,0,0,0-.36-.16c-.16,0-.5-.09-.73-.17l-.24-.1-.19-.08-.09-.08a1,1,0,0,0-.27-.1l.08.06c-.12,0-.31-.2-.39-.21l-.15-.06a6.75,6.75,0,0,0-.66-.33l.23.14-.26-.13-.18-.1-.09-.06c-.22-.12-.44-.24-.66-.34h0a3.55,3.55,0,0,1-.43-.23l-.23-.14-.1-.06h0l-.22-.13.17.11-.2-.12h0l.1.06.1.08.26.17c.21.15.64.41.64.41l-.38-.26.53.34a3.72,3.72,0,0,1,.58.35l-.33-.19-.4-.24a4.12,4.12,0,0,1,.63.39h0c-.18-.08-.52-.29-.52-.29l.39.25h0c-.2-.11-.39-.22-.58-.35h0l-.17-.12c-.13-.09-.26-.18-.4-.26l.27.19.17.11h0l-.36-.23h0l-.54-.37-.29-.21-.28-.2-.41-.3-.14-.1h-.13l.16.12.24.19.17.13-.13-.08.14.1-.11-.08.13.09-.33-.23-.23-.17-.19-.15-.16-.11h0l.33.26h0l-.1-.07-.16-.13h-.06s.3.22.31.24h0a4.58,4.58,0,0,1-.45-.35l-.29-.23.32.28.44.33-.45-.35-.38-.3h0l-.52-.44.36.31.22.18.74.58.23.19.14.1-.21-.16.37.29.25.2-.26-.2-.5-.39-.48-.38-.15-.12h-.06l.18.14-.13-.09c-.15-.11-.28-.22-.42-.34l-.34-.29.38.33.57.47.33.26.1.08.09.07.19.15.82.63.94.67s-.89-.63-1.32-1l-.46-.35-.39-.31c-.14-.1-.26-.22-.4-.32l.19.16.23.19.28.23c.34.25.68.52,1.06.76s.48.36.74.53l.1.1-.67-.48,1.06.78c.3.21.62.44.95.64l.16.11h.09l.21.1c.13.07.26.14.21.14s-.36-.16-.17-.07l.43.22-.17-.1a3.48,3.48,0,0,1,.66.35c.15.09.07,0,.19.07a.09.09,0,0,1,0,.1h.16l.16.06.16.09h-.1c.19.09.37.23.56.31a4.72,4.72,0,0,0,.53.18l.52.14a4.6,4.6,0,0,1,.66.2,3.83,3.83,0,0,0,.58.16l-.17-.06c.16,0,.61.19.67.16h1.73c.31,0,.74-.07.89-.35l-.18-.12h0a2.84,2.84,0,0,1,.5-.32c.15-.1.39-.21.44-.3Zm-1.46.13Zm-.35.09h0l.15-.06h0Zm-.14,0h0Zm1.53-.56a4.57,4.57,0,0,1-1.06.47l.54-.31a3.65,3.65,0,0,0,.54-.32l-.44.29.63-.36a1.45,1.45,0,0,1-.21.22Zm-3.36.37h-.17l.17,0Zm-.94,0Zm-6.81-2.71h0Zm.25.18h0l.14.11Zm0,0-.22-.15h-.06l.1.07.11.07.46.33Zm-.09-.06Zm1.51,1.23h0l.2.12Zm1.14.72.12.07Z" transform="translate(-6.06 -4.34)"/><path class="cls-7" d="M128.17,28.54c-.14.18-.28.35-.4.53l.31-.44-.37.49-.1.13-.11.12-.23.28-.71.76h0l.5-.44.28-.29.15-.15.15-.16a13.94,13.94,0,0,0,1.06-1.46Z" transform="translate(-6.06 -4.34)"/><path class="cls-7" d="M113.67,29.28l.7.53Z" transform="translate(-6.06 -4.34)"/><path class="cls-7" d="M124.48,33.16l-.35.12h0l-.53.11a4,4,0,0,0,1.18-.3Z" transform="translate(-6.06 -4.34)"/><path class="cls-7" d="M124.27,32.87" transform="translate(-6.06 -4.34)"/><path class="cls-7" d="M128.08,28.63l.19-.26Z" transform="translate(-6.06 -4.34)"/><polygon class="cls-7" points="109.65 25.82 109.65 25.83 109.65 25.83 109.65 25.82"/><path class="cls-7" d="M119.88,31.81a.43.43,0,0,0,.16,0h-.16Z" transform="translate(-6.06 -4.34)"/><path class="cls-7" d="M117.9,31.22h0Z" transform="translate(-6.06 -4.34)"/><path class="cls-7" d="M118.77,31.51" transform="translate(-6.06 -4.34)"/><path class="cls-7" d="M118.77,31.51" transform="translate(-6.06 -4.34)"/><path class="cls-7" d="M118.5,31.4l-.26-.08Z" transform="translate(-6.06 -4.34)"/><path class="cls-7" d="M118.51,31.38Z" transform="translate(-6.06 -4.34)"/><path class="cls-7" d="M113,28.6h0l-.51-.41-.62-.51.38.33-.2-.16.5.4Z" transform="translate(-6.06 -4.34)"/><path class="cls-7" d="M115.29,30Z" transform="translate(-6.06 -4.34)"/><path class="cls-7" d="M115.71,30.16h0l.31.18a4.33,4.33,0,0,0-.69-.41Z" transform="translate(-6.06 -4.34)"/><path class="cls-7" d="M121.65,32Z" transform="translate(-6.06 -4.34)"/><path class="cls-7" d="M112,27.76l.1.09Z" transform="translate(-6.06 -4.34)"/><path class="cls-7" d="M123.25,31.66l-.62.19Z" transform="translate(-6.06 -4.34)"/><path class="cls-7" d="M113.46,28.82l-.3-.23a7.31,7.31,0,0,0,.62.48Z" transform="translate(-6.06 -4.34)"/><path class="cls-7" d="M113.52,29l.55.4-.25-.19Z" transform="translate(-6.06 -4.34)"/><path class="cls-7" d="M112,27.76Z" transform="translate(-6.06 -4.34)"/><path class="cls-7" d="M112,27.76Z" transform="translate(-6.06 -4.34)"/><path class="cls-8" d="M112.66,28.38l-.43-.36-.22-.19h-.07v-.06l-.12-.09h0l.14.1h0l-.17-.11h0l.08.06.19.16-.18-.15h0l.07.06h.13l.4.33.41.34.19.16Z" transform="translate(-6.06 -4.34)"/><path class="cls-8" d="M114,29.39,113.5,29h0c-.13-.08,0,0,.14.12Z" transform="translate(-6.06 -4.34)"/><path class="cls-8" d="M112.82,28.43l.36.3h0l.37.27Z" transform="translate(-6.06 -4.34)"/><path class="cls-8" d="M114.71,29.78l.12.08C114.94,29.88,114.86,29.88,114.71,29.78Z" transform="translate(-6.06 -4.34)"/><path class="cls-8" d="M114.35,29.52l.1.08Z" transform="translate(-6.06 -4.34)"/><path class="cls-8" d="M113.79,29.11" transform="translate(-6.06 -4.34)"/><path class="cls-8" d="M113.66,29l.13.1Z" transform="translate(-6.06 -4.34)"/><path class="cls-8" d="M127,30.77Z" transform="translate(-6.06 -4.34)"/><path class="cls-8" d="M127,30.75Z" transform="translate(-6.06 -4.34)"/><path class="cls-8" d="M127,30.73Z" transform="translate(-6.06 -4.34)"/><path class="cls-8" d="M126,31.31Z" transform="translate(-6.06 -4.34)"/><path class="cls-8" d="M126.19,31.19l-.15.11Z" transform="translate(-6.06 -4.34)"/><path class="cls-8" d="M118.64,32l.26.1.25.1.56.18a5.25,5.25,0,0,0,.6.16h.58a6.42,6.42,0,0,0,1.24,0,6.52,6.52,0,0,0,1.23-.18,6.59,6.59,0,0,0,.86-.27l.21-.1.23-.11.45-.23a6.63,6.63,0,0,0,.83-.55,4.23,4.23,0,0,0,.41-.33l.42-.41-.32.33c0,.06.17-.12.11-.07s-.21.22-.33.32l-.16.14-.17.14c.18-.14.35-.28.51-.43l.57-.54s-.36.41-.56.6l-.44.38-.27.21.25-.17c-.25.18-.5.36-.77.52l-.68.38.2-.11a1.14,1.14,0,0,1-.23.15l-.24.11-.27.11c-.2.08-.63.22-.63.22a8.21,8.21,0,0,0,1-.27l.41-.16-.21.11a7.26,7.26,0,0,0,1.52-.84,5.45,5.45,0,0,0,.47-.37l.48-.43h0a5.36,5.36,0,0,1-1,.9,7.46,7.46,0,0,1-1.06.61l-.5.24-.52.18a8.52,8.52,0,0,1-1,.23,5.14,5.14,0,0,0-.78.07,2.54,2.54,0,0,1,.39,0h-.22a5.39,5.39,0,0,0-.8-.06h0l.15.06.75.16-.63-.1-.75-.15c-.28-.06-.55-.13-.82-.21s-.53-.17-.8-.28-.59-.23-.88-.36l-.43-.2-.42-.2c-.55-.29-1.06-.6-1.61-.92s-.82-.56-1.24-.84-.74-.54-1.11-.83l-.45-.35c-.15-.11-.26-.21-.17-.15l.39.3.52.39-.44-.34s.13.1-.06,0l-.49-.39,1.23.93c.42.32,1.3.93,1.3.93l-.37-.26-.33-.23c.31.22.63.45,1,.64l-.3-.21-.23-.16-.16-.1-.27-.19-.27-.2-.36-.27.21.14-.19-.13.27.18.47.32a2.39,2.39,0,0,0,.34.21h0s-.14-.1,0,0,.38.26.59.37l.38.22.43.24c.53.28,1.06.55,1.63.79Zm-4.58-2.48-.24-.18.51.38-.39-.28.74.55.46.33.25.17Zm2,1.35.33.2.33.2h-.06l-.29-.18Zm2.36,1.28Z" transform="translate(-6.06 -4.34)"/><path class="cls-8" d="M121.56,33.06" transform="translate(-6.06 -4.34)"/><path class="cls-8" d="M127.07,30.66" transform="translate(-6.06 -4.34)"/><path class="cls-8" d="M127.07,30.66" transform="translate(-6.06 -4.34)"/><path class="cls-8" d="M127.09,30.63Z" transform="translate(-6.06 -4.34)"/><path class="cls-8" d="M127.16,30.53Z" transform="translate(-6.06 -4.34)"/><polygon class="cls-8" points="120.94 26.44 120.94 26.44 120.94 26.44 120.94 26.44 120.94 26.44 120.94 26.44 120.94 26.44"/><path class="cls-8" d="M127.12,30.59Z" transform="translate(-6.06 -4.34)"/><path class="cls-8" d="M127.12,30.58Z" transform="translate(-6.06 -4.34)"/><path class="cls-8" d="M127.13,30.56" transform="translate(-6.06 -4.34)"/><path class="cls-8" d="M127.13,30.56" transform="translate(-6.06 -4.34)"/><path class="cls-8" d="M127.12,30.58" transform="translate(-6.06 -4.34)"/><polygon class="cls-8" points="121.06 26.24 121.06 26.24 121.06 26.24 121.06 26.24 121.06 26.24 121.06 26.24 121.06 26.24"/><path class="cls-8" d="M127.12,30.57Z" transform="translate(-6.06 -4.34)"/><path class="cls-8" d="M127.16,30.52" transform="translate(-6.06 -4.34)"/><path class="cls-8" d="M127.16,30.52" transform="translate(-6.06 -4.34)"/><path class="cls-9" d="M120.24,32.85l.45.12Z" transform="translate(-6.06 -4.34)"/><path class="cls-9" d="M125.41,32.52a2.82,2.82,0,0,1-.38.21h0l-.58.2c.44-.14,1.16-.32,1.29-.53C125.63,32.44,125.52,32.47,125.41,32.52Z" transform="translate(-6.06 -4.34)"/><path class="cls-9" d="M124.76,31.14h-.14v.1Z" transform="translate(-6.06 -4.34)"/><path class="cls-9" d="M121.14,33.06Z" transform="translate(-6.06 -4.34)"/><path class="cls-9" d="M123.22,32l-.28.08C123,32,123.08,32,123.22,32Z" transform="translate(-6.06 -4.34)"/><path class="cls-9" d="M118.12,31.94l-.23-.08.26.11S118.12,32,118.12,31.94Z" transform="translate(-6.06 -4.34)"/><path class="cls-9" d="M130.37,25.7l-.28.31-.59.73.48-.61-.56.71-.31.39-.28.37L128,28.66l0,.08a18.93,18.93,0,0,0,1.28-1.41l.39-.48.38-.49.18-.23.09-.11.08-.11c.17-.25.53-.71.53-.71Z" transform="translate(-6.06 -4.34)"/><path class="cls-9" d="M127.6,30l.73-.76c.26-.28.77-.88.77-.88s-.51.52-.75.8Z" transform="translate(-6.06 -4.34)"/><path class="cls-9" d="M127.07,30.07c-.17.18-.35.35-.53.52l.09-.08.13-.1.3-.26c.19-.18.54-.59.54-.59Z" transform="translate(-6.06 -4.34)"/><path class="cls-9" d="M126.54,30.94l-.29.25a1.34,1.34,0,0,0,.17-.31.33.33,0,0,0-.13.07,8.69,8.69,0,0,1-.75.57c-.26.18-1.06.59-1.06.59l.73-.29-1.82.67,1.06-.38a4.32,4.32,0,0,1-1,.28h0l.72-.29-.44.15h-.38l.43-.14-.65.14s.67-.16,1-.28a10.59,10.59,0,0,0,1.18-.56l-.48.23a3.16,3.16,0,0,1-.5.22,14.33,14.33,0,0,0,1.74-1.12,5.3,5.3,0,0,0,.43-.38l.11-.11.12-.11.23-.25c.32-.36.91-1.12.91-1.12s-.55.61-.84.9a2.42,2.42,0,0,1-.33.31,1.7,1.7,0,0,1,.18-.21l-.22.21-.2.19-.38.35.41-.41.13-.13.15-.16.29-.34a4.1,4.1,0,0,0,.36-.53c0-.1,0-.12-.21,0s-.3.29-.44.44l-.06.07-.06.06-.11.12-.23.24a6,6,0,0,1-.59.39.28.28,0,0,1-.1.14c-.12.08-.14.07-.16.1a1.88,1.88,0,0,1-.25.24c-.3.26-.62.68-1.06.76v-.13l-.2.1-.32.16-.39.2s.38-.09.32,0a1.8,1.8,0,0,1-.92.28s0-.13-.28-.1a6.86,6.86,0,0,1-.9.09h-.57a3.2,3.2,0,0,1-.54-.08c-.13,0-.16-.12-.3-.13s.1.1.1.1h0a4.84,4.84,0,0,1-1-.23h-.23l-.08-.07-.36-.07-.57-.26a3.67,3.67,0,0,0-.65-.26h.12a1,1,0,0,1-.27-.14,2,2,0,0,0-.42-.2c-.21-.1-.13,0-.38-.16l-.38-.2-.39-.22-.34-.2-.57-.34-.14-.1h-.08l-.26-.17-.25-.16.23.16.21.14.1.08.12.07.74.47c.39.24,1.19.7,1.19.7l-.46-.25c-.17-.09-.34-.18-.49-.28-.34-.21-.68-.43-1.06-.65l-.22-.15-.54-.37-.51-.36-.09-.06h-.06a1.39,1.39,0,0,0,.19.15l.5.37.3.2.14.09.13.09.33.22-.27-.17-.13-.09-.13-.1-.31-.21-.55-.38-.1-.08h-.07l.23.17.6.44.34.23.31.21.36.24-.31-.2-.26-.18L114,29.5l-.66-.47-.27-.2-.22-.17-.18-.13h0l.13.1.36.29.25.18-.31-.23-.34-.26-.12-.1-.08-.06h0l-.07-.06-.09-.08-.17-.12A2.73,2.73,0,0,0,112,28a2.09,2.09,0,0,1,.22.2l.12.1.11.1h0l.36.28.44.32.38.29-.21-.16.37.26.25.19-.26-.18-.11-.08-.13-.09-.26-.2-.52-.39-.17-.13-.06,0,.2.16-.14-.1h0l-.15-.11-.11-.1h-.07l-.06-.05-.09-.08h-.06l-.15-.12h0l.14.11h.06l.08.07.2.16.1.07.1.07.29.23.7.54.41.29.41.3,1,.66s-.92-.61-1.36-.92l-.46-.34-.09-.08-.1-.07-.18-.13-.28-.22-.13-.1.21.17.48.36a9.46,9.46,0,0,0,1.06.74c.39.24.5.35.75.52l.11.09-.7-.47,1.06.77c.33.21.65.42,1,.61l.16.12H117l.21.09c.16.08.3.14.23.13l-.18-.06h0l.48.2-.19-.1a3.57,3.57,0,0,1,.71.34c.15.09.07,0,.2.08a.07.07,0,0,1,0,.09h.18l.32.14h-.1s.35.2.54.27l.32.1.23.06.57.12.7.17.19.12a1,1,0,0,0,.43,0h-.18a3,3,0,0,1,.73.12h.26q.3,0,.6,0l.59-.1h-.47l.46-.08.51-.12c.35-.11.82-.22,1-.57l-.18-.11h0a3.64,3.64,0,0,1,.56-.48c.18-.15.47-.32.52-.46s-.08,0-.1,0A3.88,3.88,0,0,1,126.54,30.94Zm-1-.07.62-.5-.51.43.71-.56c-.09.12-.19.23-.29.34a6.17,6.17,0,0,1-1.14.77Zm-.63.46h0c.08,0-.16-.06,0,0Zm-.34.14h.13a1,1,0,0,1-.4.16,1.05,1.05,0,0,1,.27-.2Zm-8.72-.78h0l.2.12Zm1.18.7.13.07Z" transform="translate(-6.06 -4.34)"/><path class="cls-9" d="M114,29.34l.71.51Z" transform="translate(-6.06 -4.34)"/><path class="cls-9" d="M130.21,25.83v.07l-.06.07-.12.16A1,1,0,0,1,130.21,25.83Z" transform="translate(-6.06 -4.34)"/><path class="cls-9" d="M130.27,25.77l-.06.06Z" transform="translate(-6.06 -4.34)"/><polygon class="cls-9" points="118.96 28.39 118.96 28.39 118.97 28.39 118.96 28.39"/><path class="cls-9" d="M119.75,32.66" transform="translate(-6.06 -4.34)"/><path class="cls-9" d="M119.75,32.66" transform="translate(-6.06 -4.34)"/><path class="cls-9" d="M122.62,32.13Z" transform="translate(-6.06 -4.34)"/><path class="cls-9" d="M124.62,31.43Z" transform="translate(-6.06 -4.34)"/><path class="cls-9" d="M122.62,32.13Z" transform="translate(-6.06 -4.34)"/><path class="cls-9" d="M125,31.29" transform="translate(-6.06 -4.34)"/><path class="cls-9" d="M125.22,32.2" transform="translate(-6.06 -4.34)"/><path class="cls-9" d="M125.22,32.2" transform="translate(-6.06 -4.34)"/><path class="cls-9" d="M125.23,32.19Z" transform="translate(-6.06 -4.34)"/><path class="cls-10" d="M123.18,31.94h0Z" transform="translate(-6.06 -4.34)"/><path class="cls-10" d="M130.52,22.31v0Z" transform="translate(-6.06 -4.34)"/><path class="cls-10" d="M122.27,32.22l.38-.09Z" transform="translate(-6.06 -4.34)"/><path class="cls-10" d="M130.56,22.25Z" transform="translate(-6.06 -4.34)"/><polygon class="cls-10" points="120.3 25.61 120.29 25.61 120.29 25.61 120.3 25.61"/><path class="cls-10" d="M122.3,32.27h0Z" transform="translate(-6.06 -4.34)"/><path class="cls-10" d="M116.38,30.36" transform="translate(-6.06 -4.34)"/><path class="cls-10" d="M121.83,32.2" transform="translate(-6.06 -4.34)"/><path class="cls-10" d="M120.24,32.06h0Z" transform="translate(-6.06 -4.34)"/><path class="cls-10" d="M121.83,32.2" transform="translate(-6.06 -4.34)"/><path class="cls-10" d="M121.83,32.2" transform="translate(-6.06 -4.34)"/><path class="cls-10" d="M118,31.37Z" transform="translate(-6.06 -4.34)"/><path class="cls-10" d="M127.4,27.22l.45-.55c.16-.22.46-.69.46-.69Z" transform="translate(-6.06 -4.34)"/><path class="cls-10" d="M128.4,26.3l.68-.88.72-1Z" transform="translate(-6.06 -4.34)"/><path class="cls-10" d="M125.94,28.41Z" transform="translate(-6.06 -4.34)"/><path class="cls-10" d="M127.45,27.53l-.24.33a1.12,1.12,0,0,0,.12-.35s0,0-.13.1l-.63.81c-.28.33-.88,1-.88,1l.65-.55-1.57,1.4.92-.85s-.74.73-.86.71h0c.19-.21.6-.6.6-.6l-.73.54.38-.32-.38.3.17-.17.5-.4c.36-.31,1-1,1-1a5.53,5.53,0,0,0-.42.4,5.44,5.44,0,0,1-.42.41s1-1.13,1.47-1.72l.37-.5.39-.55c.26-.4.75-1.25.75-1.25s-.48.69-.72,1.06a3.37,3.37,0,0,1-.29.37,1,1,0,0,1,.14-.24l-.67.92.14-.2c.06-.09.14-.19.2-.3s.32-.48.46-.72a4,4,0,0,0,.27-.55c0-.1,0-.1-.2.07a8.22,8.22,0,0,0-.7,1,5.3,5.3,0,0,1-.46.6h0l.08-.12a3.48,3.48,0,0,0,.4-.6v-.06h0l-.06.06,0-.09.16-.22a.83.83,0,0,0,.13-.18c.06-.07.11-.17.17-.24l.17-.23-.13.12a.64.64,0,0,1-.1.13l-.16.22-.07.08-.06.08-.16.2-.22.28-.71,1.06L126,28l-.12.15.2-.23-.64.66.25-.27.22-.26.25-.31c.16-.2.31-.4.46-.62l.16-.21,0-.08a1.64,1.64,0,0,0-.21.25V26.9c.15-.25.31-.48.46-.73l.2-.31.07-.09h0l-.09.07-.2.29-.41.57-.31.45c-.21.27-.43.54-.65.8s-.48.54-.74.8-.81.7-.81.7.76-.7,1.06-1.06c.14-.15.27-.31.4-.47a2,2,0,0,0,.19-.22l.09-.11.08-.1a1.67,1.67,0,0,0,.33-.47l-.2.23c0,.08-.13.16-.21.26l-.26.29c-.28.34-.58.65-.89,1s-.43.54-.6.55H124l.54-.49a8.47,8.47,0,0,1-.92.65l-.76.41a.38.38,0,0,1-.15,0h0l-.13.13c-.08.09-.17.16-.16.07s.19-.27.08-.17a2.27,2.27,0,0,1-.28.26h.13c-.07.16-.31.21-.47.22s0,.06-.13.06-.07-.11-.07-.11l-.07.19h-.16a.69.69,0,0,0-.38,0,5.82,5.82,0,0,1-.68.2h-.44a.28.28,0,0,0-.09-.1h-.17c-.11,0-.37-.09-.42-.08h-.14c-.22,0-.45-.07-.67-.09l.23.08-.25-.05h-.29a2.41,2.41,0,0,0-.65-.12v.08h0a3,3,0,0,1-.41-.09l-.24-.09h-.11l-.21-.08.18.07h.07l.27.11c.22.09.68.24.68.24l-.43-.18.56.21a6.13,6.13,0,0,1,.61.18,1.3,1.3,0,0,1-.34-.08l-.4-.13a3.77,3.77,0,0,1,.64.23h0a2.07,2.07,0,0,1-.53-.14l.43.14h0a4,4,0,0,1-.59-.17h0l-.17-.07a2.65,2.65,0,0,0-.42-.18l.29.14.18.06h0l-.37-.12h-.06l-.57-.26-.31-.15-.3-.16-.3-.14-.15-.08h-.15l.18.1.28.16.18.1L115.8,30l.16.08h-.12l.14.08-.35-.18-.23-.12-.21-.12-.17-.09H115l.36.22h0l-.1-.05-.18-.11H115l.34.2h0a2.92,2.92,0,0,1-.48-.29l-.33-.2.37.25.49.3-.49-.3c-.14-.08-.29-.19-.43-.26h0l-.59-.41.42.3.25.17.81.5.27.15.14.08-.23-.13.4.23.28.15-.27-.14-.55-.31-.52-.32-.17-.11h-.07l.19.14-.11-.06c-.16-.1-.32-.19-.47-.3l-.39-.26.44.32.64.4.36.22.11.06.1.07.21.12.88.48c.33.17,1,.48,1,.48s-1-.43-1.41-.68l-.5-.28-.42-.25-.43-.26.21.14.26.16a2.38,2.38,0,0,0,.3.18c.36.22.73.42,1.06.61a5.65,5.65,0,0,0,.78.36l.13.08-.71-.33s.76.4,1.16.57a8.43,8.43,0,0,0,1,.38.68.68,0,0,0,.17.08h.58a1.63,1.63,0,0,1,.66.1h.18a.09.09,0,0,1,.1.11l.1-.1H121a2.13,2.13,0,0,0,.57.1,1.74,1.74,0,0,0,.5-.08l.48-.14a3.27,3.27,0,0,1,.62-.14,1.82,1.82,0,0,0,.57-.13h-.17c.12-.11.58-.12.64-.2l.2-.11a11.44,11.44,0,0,0,1-.67L125,31l.39-.28c.15-.12.29-.22.43-.35.3-.27.72-.55.81-1,0-.06-.2,0-.2-.06h0a4,4,0,0,1,.45-.7,5.31,5.31,0,0,0,.42-.63A2.22,2.22,0,0,1,127.45,27.53Zm-1.51.88h0v.06h0Zm-.33.33-.07.08h0v-.06l.14-.16h0Zm-.13.09.11-.14ZM127,27.3a9.39,9.39,0,0,1-1,1.12l.49-.68.53-.68-.43.57c.21-.24.41-.49.62-.75C127.12,27,127,27.16,127,27.3Zm-3.31,2.28h.08l-.16.12Zm-.89.55h-.09a.07.07,0,0,1,.09,0Zm-6.57.15h0Zm.26.13h0l.16.08Zm0,0-.22-.09h.15l.49.24Zm-.09,0Zm1.74,1.06H118l.21.08Zm1.17.39h0Z" transform="translate(-6.06 -4.34)"/><path class="cls-10" d="M130.39,22.46c-.18.23-.33.45-.49.67l.38-.54-.45.61-.11.16-.12.17-.29.4L128.54,25v.07l.55-.7.32-.41.17-.22.17-.22c.45-.57,1.29-1.78,1.29-1.78S130.59,22.27,130.39,22.46Z" transform="translate(-6.06 -4.34)"/><path class="cls-10" d="M116.06,30.46c.24.13.49.27.75.39C116.55,30.73,116.3,30.59,116.06,30.46Z" transform="translate(-6.06 -4.34)"/><path class="cls-10" d="M126.67,29.57l-.31.38h0l-.5.45L127,29.34A3.4,3.4,0,0,0,126.67,29.57Z" transform="translate(-6.06 -4.34)"/><path class="cls-10" d="M126.42,29.28Z" transform="translate(-6.06 -4.34)"/><path class="cls-10" d="M130.28,22.63l.24-.32Z" transform="translate(-6.06 -4.34)"/><polygon class="cls-10" points="111.75 26.04 111.75 26.04 111.75 26.04 111.75 26.04"/><path class="cls-10" d="M122,30.33l.13-.14-.16.13Z" transform="translate(-6.06 -4.34)"/><path class="cls-10" d="M120,30.66Z" transform="translate(-6.06 -4.34)"/><path class="cls-10" d="M120.87,30.57" transform="translate(-6.06 -4.34)"/><path class="cls-10" d="M120.87,30.57" transform="translate(-6.06 -4.34)"/><path class="cls-10" d="M120.6,30.54h0Z" transform="translate(-6.06 -4.34)"/><path class="cls-10" d="M120.6,30.5Z" transform="translate(-6.06 -4.34)"/><path class="cls-10" d="M115.15,29.68h0l-.59-.38-.68-.48.47.32-.23-.15.56.36Z" transform="translate(-6.06 -4.34)"/><path class="cls-10" d="M117.45,30.45Z" transform="translate(-6.06 -4.34)"/><path class="cls-10" d="M117.8,30.37h0l.33.08a3.49,3.49,0,0,0-.72-.2Z" transform="translate(-6.06 -4.34)"/><path class="cls-10" d="M123.65,29.57Z" transform="translate(-6.06 -4.34)"/><path class="cls-10" d="M114,29l.12.07Z" transform="translate(-6.06 -4.34)"/><path class="cls-10" d="M125.15,28.2l-.58.59Z" transform="translate(-6.06 -4.34)"/><path class="cls-10" d="M115.55,29.71l-.34-.2a2.93,2.93,0,0,0,.69.39Z" transform="translate(-6.06 -4.34)"/><path class="cls-10" d="M115.67,29.88l.6.32L116,30Z" transform="translate(-6.06 -4.34)"/><path class="cls-10" d="M114,28.94Z" transform="translate(-6.06 -4.34)"/><path class="cls-10" d="M114,28.94Z" transform="translate(-6.06 -4.34)"/><path class="cls-11" d="M114.83,29.53l-.5-.34-.28-.18h-.12l-.15-.1h0l.1-.09h0l-.17-.08h.06l.09.06.21.16-.2-.15h-.05l.08.06H114l.08.07.46.31.45.28.23.14Z" transform="translate(-6.06 -4.34)"/><path class="cls-11" d="M116.29,30.34l-.57-.32h0l.17.09Z" transform="translate(-6.06 -4.34)"/><path class="cls-11" d="M114.94,29.5l.42.27h0l.41.23Z" transform="translate(-6.06 -4.34)"/><path class="cls-11" d="M116.93,30.45l.13.08C117.14,30.55,117.06,30.52,116.93,30.45Z" transform="translate(-6.06 -4.34)"/><path class="cls-11" d="M116.54,30.26h0Z" transform="translate(-6.06 -4.34)"/><path class="cls-11" d="M115.93,30" transform="translate(-6.06 -4.34)"/><path class="cls-11" d="M115.78,29.88l.15.09C116,30,116,30,115.78,29.88Z" transform="translate(-6.06 -4.34)"/><path class="cls-11" d="M129.1,25.38" transform="translate(-6.06 -4.34)"/><path class="cls-11" d="M129.11,25.35Z" transform="translate(-6.06 -4.34)"/><path class="cls-11" d="M129.12,25.32" transform="translate(-6.06 -4.34)"/><path class="cls-11" d="M128,26.39Z" transform="translate(-6.06 -4.34)"/><path class="cls-11" d="M128.2,26.18c-.06.08-.08.12-.15.2C128.12,26.3,128.14,26.26,128.2,26.18Z" transform="translate(-6.06 -4.34)"/><path class="cls-11" d="M121,31.33h.51a5,5,0,0,0,.54-.07,5.09,5.09,0,0,0,.56-.14l.15-.05h.13l.27-.12a7.59,7.59,0,0,0,1.17-.68,11.68,11.68,0,0,0,1.14-1c.29-.28.56-.56.82-.85l.2-.23.22-.26c.14-.18.29-.35.43-.52l.84-1.06.42-.58c.14-.19.45-.66.45-.66l-.33.52c-.07.1.18-.21.11-.11l-.35.51a1.77,1.77,0,0,1-.17.24l-.16.23c.17-.24.35-.47.52-.73L129,25s-.39.62-.6.91l-.45.66c-.1.13-.18.26-.28.37l.26-.31c-.26.33-.5.67-.77,1.05s-.44.56-.65.84l.2-.24a3.46,3.46,0,0,1-.22.31l-.23.27-.24.3-.59.64s.62-.58.92-.89l.39-.43a2.23,2.23,0,0,1-.19.24,18,18,0,0,0,1.49-1.8l.49-.66c.16-.22.49-.68.5-.67s.07-.08,0,0A18.11,18.11,0,0,1,128,27,16,16,0,0,1,127,28.31l-.49.56c-.16.19-.32.37-.48.53s-.61.62-.93.91-.72.58-.72.58l.38-.17a1.16,1.16,0,0,1-.21.16c-.23.15-.66.28-.74.41h.06l.72-.24-.59.23-.72.28q-.39.12-.78.21a6.8,6.8,0,0,1-.77.11H120a8.12,8.12,0,0,1-1.62-.38c-.44-.15-.88-.33-1.31-.52s-.8-.4-1.2-.62l-.5-.29c-.16-.1-.29-.19-.2-.15a2.86,2.86,0,0,1,.42.24l.56.3-.48-.26s.14.06-.07,0l-.55-.33s.9.51,1.34.74a5.71,5.71,0,0,0,1.4.64l-.39-.17-.36-.17a5.74,5.74,0,0,0,1.06.43l-.32-.14-.25-.12-.16-.07-.29-.13-.29-.15-.4-.19.22.07-.21-.09.28.11.51.22s.39.14.34.09-.16-.08,0,0a2.65,2.65,0,0,0,.6.21l.39.1.44.08a9,9,0,0,0,1.64.18Zm-4.58-.89-.26-.12.56.29-.42-.21.8.41.5.23.26.11Zm2.12.88.35.12.34.11h-.07l-.3-.1Zm2.38.46Z" transform="translate(-6.06 -4.34)"/><path class="cls-11" d="M123.87,31.2" transform="translate(-6.06 -4.34)"/><path class="cls-11" d="M129.18,25.22" transform="translate(-6.06 -4.34)"/><path class="cls-11" d="M129.18,25.22" transform="translate(-6.06 -4.34)"/><path class="cls-11" d="M129.19,25.18Z" transform="translate(-6.06 -4.34)"/><path class="cls-11" d="M129.26,25" transform="translate(-6.06 -4.34)"/><polygon class="cls-11" points="123.04 21.05 123.04 21.05 123.04 21.05 123.04 21.05 123.04 21.05 123.04 21.05 123.04 21.05"/><path class="cls-11" d="M129.22,25.12Z" transform="translate(-6.06 -4.34)"/><path class="cls-11" d="M129.23,25.1" transform="translate(-6.06 -4.34)"/><path class="cls-11" d="M129.24,25.08" transform="translate(-6.06 -4.34)"/><path class="cls-11" d="M129.24,25.08" transform="translate(-6.06 -4.34)"/><path class="cls-11" d="M129.22,25.11" transform="translate(-6.06 -4.34)"/><polygon class="cls-11" points="123.16 20.77 123.16 20.77 123.16 20.77 123.16 20.77 123.16 20.77 123.17 20.76 123.16 20.77"/><path class="cls-11" d="M129.23,25.1Z" transform="translate(-6.06 -4.34)"/><path class="cls-11" d="M129.26,25" transform="translate(-6.06 -4.34)"/><path class="cls-11" d="M129.26,25Z" transform="translate(-6.06 -4.34)"/><path class="cls-2" d="M122.6,31.75l.42-.13Z" transform="translate(-6.06 -4.34)"/><path class="cls-2" d="M127.53,28.23a4.14,4.14,0,0,1-.37.46c-.13.15.12-.11,0,0h0l-.56.58,1.25-1.36C127.74,28,127.63,28.12,127.53,28.23Z" transform="translate(-6.06 -4.34)"/><path class="cls-2" d="M126.6,26.7l-.15.08v.13Z" transform="translate(-6.06 -4.34)"/><path class="cls-2" d="M123.5,31.41h0Z" transform="translate(-6.06 -4.34)"/><path class="cls-2" d="M125.17,28.59l-.25.26A1.24,1.24,0,0,0,125.17,28.59Z" transform="translate(-6.06 -4.34)"/><path class="cls-2" d="M120.54,31.7h0S120.58,31.72,120.54,31.7Z" transform="translate(-6.06 -4.34)"/><path class="cls-2" d="M133.44,19.73,133,20a7.47,7.47,0,0,0-.85.63,5.85,5.85,0,0,1,.69-.54,8.12,8.12,0,0,0-.8.62l-.43.39-.39.39c-.38.39-1.06,1.2-1.06,1.19l-.06.09c.55-.53,1.06-1.06,1.66-1.59l.55-.46.56-.41.27-.19.12-.09.12-.09c.27-.18.84-.5.84-.5A8.4,8.4,0,0,0,133.44,19.73Z" transform="translate(-6.06 -4.34)"/><path class="cls-2" d="M129.78,24.22s.58-.65.89-1,1.06-1,1.06-1a12.12,12.12,0,0,0-1,.9A12.83,12.83,0,0,0,129.78,24.22Z" transform="translate(-6.06 -4.34)"/><path class="cls-2" d="M129.11,24.52l-.57.78.11-.12.12-.17c.12-.13.23-.27.33-.4l.62-.82S129.3,24.26,129.11,24.52Z" transform="translate(-6.06 -4.34)"/><path class="cls-2" d="M114.3,29.19l.35.23.31.22h0l-.37-.18.66.44.44.25.41.21-.49-.25.51.29.52.27.22.1a6,6,0,0,1,.8.3,1.13,1.13,0,0,1-.24-.08.83.83,0,0,0,.32.16l.37.08.69.2.46.14.18.06.27.06a4.45,4.45,0,0,0,.73,0h.33l-.08.13a1.33,1.33,0,0,1,.28-.1h.17a1,1,0,0,1,.69,0h-.19a.63.63,0,0,1,.32.06c.11.06.07,0,.05-.05h-.07c0-.08.16-.08.26,0a.29.29,0,0,1,.13,0h0l.27-.13a4.65,4.65,0,0,0,1.21-.58,15.87,15.87,0,0,0,1.43-1.17l-.82.65s.2-.17.21-.24a11.55,11.55,0,0,0,.9-.79,15.31,15.31,0,0,0,1.34-1.56l.68-.93c.22-.32.31-.36.34-.51a1.63,1.63,0,0,0-.17.2l-.4.53-.24.32-.12.16-.12.17c-.2.25-.41.51-.62.75a20.39,20.39,0,0,1-1.63,1.59s.82-.74,1.2-1.16c.18-.19.36-.4.53-.6s.37-.47.54-.7c.34-.44.67-.9,1-1.36l.42-.58a1.37,1.37,0,0,1,.15-.21l.15-.23.33-.5.15-.21.1-.15.06-.1h0v-.06c.1-.15.2-.3.29-.46a1.55,1.55,0,0,0,.12-.22,1,1,0,0,0,.1-.17h0l-.09.14-.06.09-.06.12-.31.45-.06.1-.08.1-.09.14-.16.22-.11.17a.86.86,0,0,0-.1.16l-.2.27-.22.32a1.67,1.67,0,0,0,.08-.2l-.14.12a2.36,2.36,0,0,0,.35-.57l-.11.16-.25.38-.74,1.06-.37.5-.16.21-.15.2-.34.45s.26-.41.4-.6l.49-.67-.29.4.51-.7.6-.82c.19-.27.39-.58.58-.87l0-.23h0v-.09l.06-.12h0V24.3a3.37,3.37,0,0,1,.24-.37l.28-.5.69-1.21c-.24.39-.49.79-.71,1.2l-.35.56-.16.24-.13.21.07-.13v-.12s-.05,0-.11.1a2.61,2.61,0,0,0-.19.27l-.57.91-.46.67.39-.58c.21-.34.42-.68.62-1.06l.29-.47a1.21,1.21,0,0,0,.09-.2.86.86,0,0,1-.1.16l-.3.45L128,25l-.41.6-.86,1.19-.4.51-.32.42-.37.43.44-.55.38-.5c.15-.19.3-.38.44-.58.27-.36.55-.74.8-1.11.13-.19.26-.38.37-.57l-.09.13-.11.16-.13.2c-.24.34-.48.67-.73,1l-.39.51a2,2,0,0,1-.17.23l-.16.2-.31.39.4-.5.16-.22.18-.23c.13-.17.24-.34.37-.5l.69-1c.12-.18.23-.37.34-.56h0l-.07.09a1.19,1.19,0,0,0-.09.15l-.14.18c-.22.32-.44.64-.68.94l-.67.89-.25.33c-.39.52-.8,1-1.24,1.51a5.59,5.59,0,0,1-.52.45l-.46.34s.94-.89,1.36-1.37.58-.65.85-1l.14-.17.13-.18.27-.35.32-.48-.3.38c-.1.12-.2.25-.31.37h0l-.08.1-.16.19c-.2.23-.4.47-.61.69l-.37.37c-.13.15-.27.31-.42.46s-.26.24-.4.35-.07-.07-.27.07a1.65,1.65,0,0,0-.46.41,1.07,1.07,0,0,1-.31.25l.14-.11c-.26,0-.46.24-.63.37s-.63.34-.69.47a.39.39,0,0,0-.26,0l-.17.14s-.09,0-.19,0a3.17,3.17,0,0,1-1,.24h0s.32-.15.25-.15-.3.15-.46.18a2.44,2.44,0,0,1-.54,0h-.53a5.87,5.87,0,0,1-.83-.1,1.16,1.16,0,0,0-.43,0,2.26,2.26,0,0,1-.8-.25l.35.08-.28-.11-.26-.1-.17-.06a.09.09,0,0,1-.1,0,7.43,7.43,0,0,1-.76-.35l-.15-.09-.17-.07h0a6.32,6.32,0,0,1-.6-.25l-.17-.1h-.08l-.38-.2L114.2,29l.2.14.19.12.11.06.09.07.32.16-.32-.16-.15-.09-.16-.09s.07,0-.19-.1l-.65-.4.61.4.18.11h.17l.34.19c.48.27,1.45.74,1.45.74l-.45-.2-.45-.21s.7.33,1.06.48.93.34.93.34a3.33,3.33,0,0,0-.63-.21l.37.15-.4-.14-.4-.17a4.8,4.8,0,0,1,.57.27h0a4.86,4.86,0,0,1-.93-.41l.92.43-1.63-.77.71.34s-.59-.28-.86-.44l-.61-.35c-.15-.09-.15,0-.15,0l-.2-.14Zm1.84.8s-.69-.3-1-.49l-.18-.12a5.33,5.33,0,0,0,.63.32l-.42-.21.52.26Zm0,0Zm.57.22a2.5,2.5,0,0,1-.38-.15h.16Zm7,.53.24-.14-.12.13h0s-.1.05-.08,0Zm-1.38.66h0Z" transform="translate(-6.06 -4.34)"/><path class="cls-2" d="M116.22,30.25l.77.37Z" transform="translate(-6.06 -4.34)"/><path class="cls-2" d="M133.2,19.81H133l-.18.13Z" transform="translate(-6.06 -4.34)"/><path class="cls-2" d="M133.28,19.76h0Z" transform="translate(-6.06 -4.34)"/><polygon class="cls-2" points="121.1 24.36 121.1 24.36 121.1 24.35 121.1 24.36"/><path class="cls-2" d="M122.16,31.74" transform="translate(-6.06 -4.34)"/><path class="cls-2" d="M122.16,31.74" transform="translate(-6.06 -4.34)"/><path class="cls-2" d="M124.62,29.19Z" transform="translate(-6.06 -4.34)"/><path class="cls-2" d="M126.52,27.18Z" transform="translate(-6.06 -4.34)"/><path class="cls-2" d="M124.62,29.19Z" transform="translate(-6.06 -4.34)"/><path class="cls-2" d="M126.87,26.85" transform="translate(-6.06 -4.34)"/><path class="cls-2" d="M127.29,27.9" transform="translate(-6.06 -4.34)"/><path class="cls-2" d="M127.29,27.9" transform="translate(-6.06 -4.34)"/><path class="cls-2" d="M127.29,27.88Z" transform="translate(-6.06 -4.34)"/><path class="cls-2" d="M134,15.45h0Z" transform="translate(-6.06 -4.34)"/><path class="cls-2" d="M134.08,15.39Z" transform="translate(-6.06 -4.34)"/><path class="cls-2" d="M113.94,28.64l.24.14h.06l-.4-.22Z" transform="translate(-6.06 -4.34)"/><path class="cls-2" d="M134.67,15.27a4.52,4.52,0,0,0-.89.33,5.28,5.28,0,0,0-.82.5c.22-.15.43-.3.67-.44a7.94,7.94,0,0,0-.78.5l-.19.13-.21.15-.46.37a15.23,15.23,0,0,0-1.21,1.2l-.08.09c.29-.26.56-.53.86-.78l.53-.4.29-.2.29-.19a20.36,20.36,0,0,1,2.06-1.23Z" transform="translate(-6.06 -4.34)"/><path class="cls-2" d="M127.38,25.49l.6-.83h0l.11-.19C127.86,24.81,127.66,25.15,127.38,25.49Z" transform="translate(-6.06 -4.34)"/><path class="cls-2" d="M128.37,24c-.08.15-.17.3-.26.44l.63-.87A2.54,2.54,0,0,0,128.37,24Z" transform="translate(-6.06 -4.34)"/><polygon class="cls-2" points="111.36 24.82 111.36 24.82 111.36 24.82 111.36 24.82"/><path class="cls-2" d="M122.42,27.49a1.23,1.23,0,0,0,.12-.26,2.47,2.47,0,0,0-.16.26S122.36,27.52,122.42,27.49Z" transform="translate(-6.06 -4.34)"/><path class="cls-2" d="M120.16,28.82h0Z" transform="translate(-6.06 -4.34)"/><path class="cls-2" d="M121.15,28.33" transform="translate(-6.06 -4.34)"/><path class="cls-2" d="M120.81,28.42l-.29.19Z" transform="translate(-6.06 -4.34)"/><path class="cls-2" d="M120.76,28.41Z" transform="translate(-6.06 -4.34)"/><path class="cls-2" d="M113.51,28.31l.66.38h0l-.86-.53-1-.63L113,28l-.32-.2Z" transform="translate(-6.06 -4.34)"/><path class="cls-2" d="M117.42,29.16Z" transform="translate(-6.06 -4.34)"/><path class="cls-2" d="M117.42,29.16h0a3.09,3.09,0,0,0,.43,0l-.93-.09a1.38,1.38,0,0,1,.49.06Z" transform="translate(-6.06 -4.34)"/><path class="cls-2" d="M125.4,24c.23-.36.45-.73.68-1.06C125.85,23.28,125.63,23.65,125.4,24Z" transform="translate(-6.06 -4.34)"/><path class="cls-2" d="M112.49,27.67Z" transform="translate(-6.06 -4.34)"/><path class="cls-2" d="M112.52,27.68Z" transform="translate(-6.06 -4.34)"/><path class="cls-2" d="M112.31,27.54Z" transform="translate(-6.06 -4.34)"/><path class="cls-2" d="M112.26,27.55Z" transform="translate(-6.06 -4.34)"/><path class="cls-2" d="M112.26,27.55h0Z" transform="translate(-6.06 -4.34)"/><path class="cls-2" d="M112.29,27.53l-.19-.11h0l.18.11Z" transform="translate(-6.06 -4.34)"/><path class="cls-2" d="M131.81,18.22" transform="translate(-6.06 -4.34)"/><path class="cls-2" d="M131.9,18.22Z" transform="translate(-6.06 -4.34)"/><polygon class="cls-2" points="125.64 14.12 125.64 14.12 125.64 14.12 125.64 14.12 125.64 14.12 125.64 14.11 125.64 14.12"/><path class="cls-2" d="M131.9,18.16" transform="translate(-6.06 -4.34)"/><path class="cls-2" d="M131.9,18.11" transform="translate(-6.06 -4.34)"/><polygon class="cls-2" points="125.83 13.81 125.83 13.81 125.83 13.81 125.83 13.81 125.83 13.81 125.83 13.81"/><polygon class="cls-2" points="125.83 13.81 125.83 13.81 125.83 13.81 125.84 13.8 125.83 13.81"/><path class="cls-2" d="M131.9,18.15" transform="translate(-6.06 -4.34)"/><path class="cls-2" d="M132,18.05" transform="translate(-6.06 -4.34)"/><polygon class="cls-2" points="125.89 13.71 125.9 13.71 125.9 13.71 125.89 13.71"/><path class="cls-2" d="M128.23,23.66l.72-.95h0l.17-.26Z" transform="translate(-6.06 -4.34)"/><path class="cls-2" d="M129.45,22l-.32.44c.26-.31.5-.61.77-.9A2.45,2.45,0,0,0,129.45,22Z" transform="translate(-6.06 -4.34)"/><path class="cls-2" d="M134.59,15.11a5.82,5.82,0,0,0-1.27.51l-.12.06c.37-.12.71-.28,1.06-.37l.35-.09Z" transform="translate(-6.06 -4.34)"/><path class="cls-2" d="M135.08,16.36a3.76,3.76,0,0,0-.74.16,6,6,0,0,0-1.64.76,7.31,7.31,0,0,1,1.61-.67c.26-.07.53-.12.8-.18Z" transform="translate(-6.06 -4.34)"/><path class="cls-2" d="M131.64,17.43a12.37,12.37,0,0,0-.91.87l.17-.15.22-.19.51-.43a12.63,12.63,0,0,1,1.06-.78A4.5,4.5,0,0,0,131.64,17.43Z" transform="translate(-6.06 -4.34)"/><path class="cls-2" d="M130.61,19l.21-.25Z" transform="translate(-6.06 -4.34)"/><path class="cls-2" d="M120.72,33.2h0Z" transform="translate(-6.06 -4.34)"/><path class="cls-2" d="M128.31,28.32Z" transform="translate(-6.06 -4.34)"/><path class="cls-2" d="M119.73,33l.42.11Z" transform="translate(-6.06 -4.34)"/><path class="cls-2" d="M128.32,28.31" transform="translate(-6.06 -4.34)"/><path class="cls-2" d="M119.81,33Z" transform="translate(-6.06 -4.34)"/><path class="cls-2" d="M117.69,32l-.23-.08.25.1S117.73,32,117.69,32Z" transform="translate(-6.06 -4.34)"/><path class="cls-2" d="M119.3,32.74" transform="translate(-6.06 -4.34)"/><path class="cls-2" d="M129.13,25.31Z" transform="translate(-6.06 -4.34)"/><path class="cls-2" d="M112.7,28.41h.06l.16.13H113Z" transform="translate(-6.06 -4.34)"/><path class="cls-2" d="M127.71,29.12l-.1.13-.11.12-.23.28c-.24.26-.47.52-.71.76h0l.5-.44.28-.29.15-.15.15-.16a12.63,12.63,0,0,0,1.06-1.46l-.48.58-.4.53.32-.43Z" transform="translate(-6.06 -4.34)"/><path class="cls-2" d="M114.37,29.81l-.7-.53Z" transform="translate(-6.06 -4.34)"/><path class="cls-2" d="M124.12,33.28h.11l-.64.14Z" transform="translate(-6.06 -4.34)"/><path class="cls-2" d="M124.23,33.25a3.68,3.68,0,0,0,.54-.16l-.3.07Z" transform="translate(-6.06 -4.34)"/><path class="cls-2" d="M112.57,28.27l.42.33h0l-.51-.41-.62-.51.38.33-.2-.16Z" transform="translate(-6.06 -4.34)"/><path class="cls-2" d="M112,27.76" transform="translate(-6.06 -4.34)"/><path class="cls-2" d="M112,27.76Z" transform="translate(-6.06 -4.34)"/><path class="cls-2" d="M112.07,27.87Z" transform="translate(-6.06 -4.34)"/><path class="cls-2" d="M112.06,27.86Z" transform="translate(-6.06 -4.34)"/><path class="cls-2" d="M112,27.76Z" transform="translate(-6.06 -4.34)"/><path class="cls-2" d="M112,27.76Z" transform="translate(-6.06 -4.34)"/><path class="cls-2" d="M111.83,27.66l-.15-.11h0Z" transform="translate(-6.06 -4.34)"/><path class="cls-2" d="M111.76,27.62Z" transform="translate(-6.06 -4.34)"/><path class="cls-2" d="M111.76,27.62Z" transform="translate(-6.06 -4.34)"/><polygon class="cls-2" points="105.78 23.33 105.77 23.32 105.77 23.33 105.78 23.33"/><path class="cls-2" d="M127.07,30.66" transform="translate(-6.06 -4.34)"/><path class="cls-2" d="M127.1,30.62Z" transform="translate(-6.06 -4.34)"/><path class="cls-2" d="M127,30.78" transform="translate(-6.06 -4.34)"/><path class="cls-2" d="M127,30.78" transform="translate(-6.06 -4.34)"/><polygon class="cls-2" points="120.94 26.44 120.94 26.44 120.94 26.44 120.94 26.44 120.94 26.44 120.94 26.44 120.94 26.44 120.94 26.44"/><path class="cls-2" d="M127.12,30.59Z" transform="translate(-6.06 -4.34)"/><path class="cls-2" d="M127.13,30.56" transform="translate(-6.06 -4.34)"/><path class="cls-2" d="M127.12,30.58" transform="translate(-6.06 -4.34)"/><polygon class="cls-2" points="121.06 26.24 121.06 26.24 121.06 26.24 121.06 26.24"/><polygon class="cls-2" points="121.06 26.24 121.06 26.24 121.06 26.24 121.06 26.24 121.06 26.24"/><polygon class="cls-2" points="121.06 26.24 121.06 26.24 121.06 26.24 121.06 26.24"/><path class="cls-2" d="M127.16,30.52" transform="translate(-6.06 -4.34)"/><polygon class="cls-2" points="121.1 26.18 121.1 26.18 121.1 26.18 121.1 26.18 121.1 26.18 121.1 26.18"/><path class="cls-2" d="M125,32.73h0l.13-.06-.72.26Z" transform="translate(-6.06 -4.34)"/><path class="cls-2" d="M125.16,32.67l.57-.27-.32.12Z" transform="translate(-6.06 -4.34)"/><path class="cls-2" d="M130.37,25.7l-.28.31-.59.73.48-.61-.56.71-.31.39-.28.37c-.28.35-.57.69-.85,1.06l0,.08a18.93,18.93,0,0,0,1.28-1.41l.39-.48.38-.49.18-.23.09-.11.08-.11c.17-.25.35-.48.53-.71A4.65,4.65,0,0,0,130.37,25.7Z" transform="translate(-6.06 -4.34)"/><path class="cls-2" d="M127.6,30l.73-.76c.26-.28.52-.58.77-.88-.25.26-.51.52-.75.8Z" transform="translate(-6.06 -4.34)"/><path class="cls-2" d="M127.6,29.56l-.53.51c-.17.18-.35.35-.53.52l.09-.08.13-.1.3-.26A7.72,7.72,0,0,0,127.6,29.56Z" transform="translate(-6.06 -4.34)"/><path class="cls-2" d="M126.39,31l.15-.13Z" transform="translate(-6.06 -4.34)"/><path class="cls-2" d="M130.16,25.9l-.06.07-.12.16.23-.3Z" transform="translate(-6.06 -4.34)"/><path class="cls-2" d="M130.27,25.77Z" transform="translate(-6.06 -4.34)"/><path class="cls-2" d="M130.21,25.83v0Z" transform="translate(-6.06 -4.34)"/><path class="cls-2" d="M130.56,22.25Z" transform="translate(-6.06 -4.34)"/><path class="cls-2" d="M130.55,22.26Z" transform="translate(-6.06 -4.34)"/><path class="cls-2" d="M130.56,22.25Z" transform="translate(-6.06 -4.34)"/><path class="cls-2" d="M116,30l-.31-.16.6.32Z" transform="translate(-6.06 -4.34)"/><path class="cls-2" d="M114,28.93Z" transform="translate(-6.06 -4.34)"/><path class="cls-2" d="M113.79,28.82Z" transform="translate(-6.06 -4.34)"/><path class="cls-2" d="M113.79,28.82Z" transform="translate(-6.06 -4.34)"/><polygon class="cls-2" points="107.79 24.5 107.78 24.5 107.78 24.5 107.79 24.5"/><path class="cls-2" d="M113.88,28.82h0l-.15-.08h0Z" transform="translate(-6.06 -4.34)"/><path class="cls-2" d="M128.05,26.39Z" transform="translate(-6.06 -4.34)"/><path class="cls-2" d="M129.18,25.22" transform="translate(-6.06 -4.34)"/><path class="cls-2" d="M129.19,25.19" transform="translate(-6.06 -4.34)"/><path class="cls-2" d="M129.2,25.18Z" transform="translate(-6.06 -4.34)"/><path class="cls-2" d="M129.19,25.18" transform="translate(-6.06 -4.34)"/><path class="cls-2" d="M129.2,25.17Z" transform="translate(-6.06 -4.34)"/><path class="cls-2" d="M129.1,25.39" transform="translate(-6.06 -4.34)"/><polygon class="cls-2" points="123.04 21.05 123.04 21.05 123.04 21.05 123.04 21.05 123.04 21.05 123.04 21.05 123.04 21.05"/><path class="cls-2" d="M129.1,25.39" transform="translate(-6.06 -4.34)"/><path class="cls-2" d="M129.22,25.12Z" transform="translate(-6.06 -4.34)"/><path class="cls-2" d="M129.24,25.08" transform="translate(-6.06 -4.34)"/><path class="cls-2" d="M129.22,25.11" transform="translate(-6.06 -4.34)"/><polygon class="cls-2" points="123.16 20.77 123.16 20.77 123.16 20.77 123.16 20.77"/><polygon class="cls-2" points="123.16 20.77 123.16 20.77 123.16 20.77 123.16 20.77"/><polygon class="cls-2" points="123.16 20.77 123.16 20.77 123.16 20.77 123.16 20.77"/><polygon class="cls-2" points="123.16 20.77 123.16 20.77 123.16 20.77 123.16 20.77"/><path class="cls-2" d="M129.26,25Z" transform="translate(-6.06 -4.34)"/><path class="cls-2" d="M126.6,29.28l.56-.57h0a1.83,1.83,0,0,0,.13-.16C127.07,28.82,126.83,29,126.6,29.28Z" transform="translate(-6.06 -4.34)"/><path class="cls-2" d="M127.53,28.23a2.34,2.34,0,0,1-.24.31c.19-.21.38-.41.56-.62A2.34,2.34,0,0,0,127.53,28.23Z" transform="translate(-6.06 -4.34)"/><path class="cls-2" d="M133,20a7.47,7.47,0,0,0-.85.63,5.85,5.85,0,0,1,.69-.54,8.12,8.12,0,0,0-.8.62l-.43.39-.39.39a14.58,14.58,0,0,0-1.06,1.19l-.06.09c.55-.53,1.06-1.06,1.66-1.59l.55-.46.56-.41.27-.19.12-.09.12-.09a7.15,7.15,0,0,1,.84-.5,4.82,4.82,0,0,0-.77.33Z" transform="translate(-6.06 -4.34)"/><path class="cls-2" d="M129.78,24.22c.29-.34.58-.65.89-1a10.26,10.26,0,0,1,1.06-1,7.75,7.75,0,0,0-1,.9A14.1,14.1,0,0,0,129.78,24.22Z" transform="translate(-6.06 -4.34)"/><path class="cls-2" d="M129.11,24.52l-.57.78.11-.12.12-.17c.12-.13.23-.27.33-.4l.62-.82A7.15,7.15,0,0,0,129.11,24.52Z" transform="translate(-6.06 -4.34)"/><path class="cls-2" d="M133.12,19.87H133l-.18.12.35-.23Z" transform="translate(-6.06 -4.34)"/><path class="cls-2" d="M133.2,19.81h0Z" transform="translate(-6.06 -4.34)"/><path class="cls-2" d="M133.27,19.77Z" transform="translate(-6.06 -4.34)"/></g><path class="cls-2" d="M27,7.89l-.05,8.39h.22c3,0,4.77-3.28,4.24-6.12C30.94,8,29.15,6.08,25.56,6.08,21.14,6.08,16.71,9,18,15.27a6,6,0,0,0,1.06,2.56c-2.5,0-4.24-.94-4.76-3.47-1.06-5.22,4.53-10,11.66-10,5.55,0,8.64,2.91,9.27,6a5.66,5.66,0,0,1-2.54,6,7.27,7.27,0,0,1,5.67,6.1c.74,3.64.27,10.9-6.05,10.9-1.62,0-3.85-.5-4.31-2.8a5.39,5.39,0,0,1,0-2.19,4.24,4.24,0,0,0,2.8,1.35c2.76,0,2.94-3.93,2.36-6.8-.55-2.64-1.83-4.8-4.58-4.8a11.07,11.07,0,0,0-1.72.11l-.13,14.48h-5.4l.21-24Z" transform="translate(-6.06 -4.34)"/><path class="cls-2" d="M47.69,17.08c-1.48,0-2.18,2.31-2.19,3.33l-.09,12.28H40L40.18,7l5.44-.76-.09,9.54a4.51,4.51,0,0,1,4-2.12,4.84,4.84,0,0,1,5.07,4.23c.62,3.07-.25,7.65.19,9.77a1.71,1.71,0,0,0,1.82,1.6h0c1.67,0,2.12-1.36,2.49-3.32h1.59c-.84,6.19-3.59,7-5.59,7a5.11,5.11,0,0,1-5.3-4.24c-.52-2.56.22-7.21-.27-9.63C49.23,17.76,48.63,17.08,47.69,17.08Z" transform="translate(-6.06 -4.34)"/><path class="cls-2" d="M74.75,13.79l-.08,12.85a5.49,5.49,0,0,0,.1,1.21,1.79,1.79,0,0,0,1.88,1.63c1.47,0,2.12-1.66,2.33-3.55h1.59c-.89,6.16-4.12,7-6.17,7A4.46,4.46,0,0,1,70,29.44a5.31,5.31,0,0,1-4.92,3.47c-2.57,0-5.3-1.58-6.28-6.08-1.06-5.1.43-13.23,7-13.23,2.12,0,3.23.83,3.45,1.93V13.79ZM64.28,26.3c.6,2.91,1.82,2.95,2.49,2.95,1.06,0,2.46-1.14,2.46-3.32l.07-8.54A1.88,1.88,0,0,0,67.45,16C64.24,16,63.55,22.75,64.28,26.3Z" transform="translate(-6.06 -4.34)"/><path class="cls-2" d="M84.5,13.79V16.1c1.06-1.13,2.28-2.34,4.11-2.34a3.41,3.41,0,0,1,3.18,2.83,2.13,2.13,0,0,1-1.37,2.67,2.16,2.16,0,0,1-.75.1c-2.12,0-1.57-2.5-2.71-2.5a3.09,3.09,0,0,0-2.47,1.44l-.07,14.36H78.91l.14-18.9Z" transform="translate(-6.06 -4.34)"/><path class="cls-2" d="M108.46,13.79l-.09,12.85a5,5,0,0,0,.1,1.21,1.78,1.78,0,0,0,1.88,1.63c1.48,0,2.12-1.66,2.34-3.55h1.57c-.89,6.16-4.12,7-6.15,7a4.44,4.44,0,0,1-4.42-3.47,5.31,5.31,0,0,1-4.92,3.47c-2.58,0-5.3-1.58-6.27-6.08-1.06-5.1.42-13.23,7-13.23,2.12,0,3.18.83,3.46,1.93V13.79ZM98,26.3c.59,2.91,1.81,2.95,2.49,2.95,1.06,0,2.44-1.14,2.45-3.32l.07-8.54A1.89,1.89,0,0,0,101.16,16C98,16,97.25,22.75,98,26.3Z" transform="translate(-6.06 -4.34)"/><path class="cls-2" d="M118.12,28.82a1.21,1.21,0,0,0,.12.46,1.81,1.81,0,0,0,.7.67,5.92,5.92,0,0,0,2.33.64l.85,1.13a8.14,8.14,0,0,1-3.75.53,6.27,6.27,0,0,1-2.81-.78A5.7,5.7,0,0,1,113,28.65a3.9,3.9,0,0,1-.19-2l.1-11.34H111.7V13.79H113L113,8.58l5.44-.76s0,2.57-.06,6h2.26V15.3h-2.26Q118.24,22.07,118.12,28.82Z" transform="translate(-6.06 -4.34)"/><path class="cls-2" d="M24.09,39.27l-.16,20.48H20.62l-5.3-14.32-.11,14.32h-3.9l.13-18.59c-2.17,1-3.18,3.06-2.57,6A4.52,4.52,0,0,0,9.63,49c-1.89,0-3.07-.69-3.48-2.66a6.07,6.07,0,0,1,4.92-7,5.71,5.71,0,0,1,1.37-.08,6.37,6.37,0,0,1,2.63.38l5.14,14.51-.07-14.84Z" transform="translate(-6.06 -4.34)"/><path class="cls-2" d="M29.43,46.05l-.07,9.32a3.66,3.66,0,0,0,.08.87,1.12,1.12,0,0,0,1.19,1.07h.13c1.06,0,1.85-1.06,2-2.42h1.16C33.24,59.34,30.66,60,29.17,60a3.7,3.7,0,0,1-3.6-3.29,8.79,8.79,0,0,1-.15-1.78l.06-8.78ZM27,40.23a2.83,2.83,0,0,1,2.64,2.19,1.72,1.72,0,0,1-1.29,2.07,1.8,1.8,0,0,1-.46,0,2.79,2.79,0,0,1-2.61-2.12,1.73,1.73,0,0,1,1.2-2.13A1.51,1.51,0,0,1,27,40.23Z" transform="translate(-6.06 -4.34)"/><path class="cls-2" d="M42.23,47.9c.9,4.39.24,12-5.3,12a3.8,3.8,0,0,1-4-3.24,5.62,5.62,0,0,1-.12-1.3l.06-9.32h3.94l-.06,9.32a4,4,0,0,0,.06,1,1.07,1.07,0,0,0,1.06.91c2.68,0,3.48-6.14,2.86-9.15,0,.19-.6.28-.81.28-.66,0-1.16-.8-1.27-1.4-.18-.85.24-1.48,1.38-1.48C41.33,45.51,42,46.69,42.23,47.9Z" transform="translate(-6.06 -4.34)"/><path class="cls-2" d="M50.29,57.61c2.12,0,3.18-1.2,4.24-2.77h.94c-1.06,2.52-2.85,5.07-6.5,5.07a4.88,4.88,0,0,1-5.16-4.35c-.64-3.18-.21-9.75,5.39-9.75,2.44,0,3.28,1.26,3.55,2.63.65,3.18-1.86,5.58-5.11,5.77a5.11,5.11,0,0,0,.17,1.06C48.24,57.17,49,57.61,50.29,57.61Zm-.53-10.35c-1.39,0-2.12,2.93-2.12,5.64a3.59,3.59,0,0,0,3.14-4,4,4,0,0,0-.09-.5C50.54,47.7,50.29,47.26,49.76,47.26Z" transform="translate(-6.06 -4.34)"/><path class="cls-2" d="M66.19,54.84a11.85,11.85,0,0,1-3.49,3.42,4.93,4.93,0,0,1-3.93,1.65,4.59,4.59,0,0,1-4.71-3.5A2.28,2.28,0,0,1,55,53.85a34.66,34.66,0,0,0,1.66-8.07l4-.55c1.78,7.09,2.26,8.16,2.63,10a4.2,4.2,0,0,1,.11,1.06A11.19,11.19,0,0,0,65,54.87Zm-10,1.35a1,1,0,0,1-.82-.36c.27,1.29.86,1.91,2.12,1.91s2.25-.62,1.85-2.54c-.28-1.42-.71-2.27-1.84-6.49a27.1,27.1,0,0,1-1.15,5.18,1.36,1.36,0,0,1,.81,1,1.06,1.06,0,0,1-.73,1.31l-.25,0Z" transform="translate(-6.06 -4.34)"/><path class="cls-2" d="M70.59,48.44c-.9,0-1.45,1-1.61,2.19l-.08,9.12H65l.17-18.62,3.94-.54L69,47.45A3.32,3.32,0,0,1,71.89,46,3.53,3.53,0,0,1,75.57,49c.46,2.22-.18,5.54.13,7.06A1.26,1.26,0,0,0,77,57.26a1.53,1.53,0,0,0,.87-.17,2.31,2.31,0,0,1-1.73,2.77,2.8,2.8,0,0,1-.71,0,3.43,3.43,0,0,1-3.39-3.1c-.38-1.85.16-5.22-.2-7C71.67,49,71.25,48.44,70.59,48.44Z" transform="translate(-6.06 -4.34)"/><path class="cls-2" d="M92.58,59.75l.07-8.48L87.92,41c-2.36.93-3.45,3.06-2.83,6.07A4.86,4.86,0,0,0,85.85,49c-1.89,0-3.06-.69-3.46-2.66-.76-3.64,3.57-7.11,8.15-7.11h1L96,49,98,39.26h1.81L97,51.22l-.07,8.47Z" transform="translate(-6.06 -4.34)"/><path class="cls-2" d="M110.16,46.05l-.06,9.32a3.65,3.65,0,0,0,.07.87,1.29,1.29,0,0,0,1.36,1.18c1.06,0,1.56-1.2,1.7-2.58h1.14c-.65,4.46-3,5.07-4.46,5.07a3.18,3.18,0,0,1-3.18-2.52,3.84,3.84,0,0,1-3.56,2.52c-1.87,0-3.88-1.15-4.55-4.41-.75-3.69.31-9.54,5.08-9.54,1.56,0,2.34.6,2.5,1.4V46.1Zm-7.59,9.07c.44,2.12,1.32,2.12,1.81,2.12.79,0,1.78-.83,1.78-2.42l0-6.18a1.38,1.38,0,0,0-1.34-1.06C102.54,47.62,102,52.54,102.57,55.12Z" transform="translate(-6.06 -4.34)"/><path class="cls-2" d="M117.26,41.73v4.32h1.65v1.06h-1.65l-.07,8.22a3.65,3.65,0,0,0,.07.87,1.14,1.14,0,0,0,1.19,1.07h.14c1.06,0,1.84-1.06,2-2.42h1.15c-.64,4.46-3.23,5.07-4.71,5.07a3.73,3.73,0,0,1-3.6-3.29,8.86,8.86,0,0,1-.15-1.78l.07-7.68h-.91V46.1h.9V42.32Z" transform="translate(-6.06 -4.34)"/><path class="cls-2" d="M124.53,46.05v1.7a4.27,4.27,0,0,1,3-1.7,2.49,2.49,0,0,1,2.28,2.06,1.54,1.54,0,0,1-1,1.93,1.43,1.43,0,0,1-.58.07c-1.52,0-1.13-1.81-2-1.81a2.24,2.24,0,0,0-1.78,1.06V59.77h-3.94l.09-13.69Z" transform="translate(-6.06 -4.34)"/><path class="cls-2" d="M141.87,46.05l-.06,9.32a3.65,3.65,0,0,0,.07.87,1.13,1.13,0,0,0,1.19,1.07h.14a1.17,1.17,0,0,0,.58-.12c-.35,1.92-.69,2.77-2.17,2.77a3.38,3.38,0,0,1-3.18-2.55A3.82,3.82,0,0,1,134.88,60c-1.87,0-3.88-1.15-4.55-4.41-.75-3.69.31-9.54,5.08-9.54,1.56,0,2.34.61,2.5,1.4V46.14Zm-7.59,9.07c.44,2.12,1.32,2.12,1.82,2.12.79,0,1.77-.83,1.77-2.42l0-6.18a1.38,1.38,0,0,0-1.34-1.06C134.25,47.62,133.75,52.54,134.28,55.12Z" transform="translate(-6.06 -4.34)"/></g></svg>