<?xml version="1.0" encoding="utf-8"?>
<!-- Generator: Adobe Illustrator 24.0.1, SVG Export Plug-In . SVG Version: 6.00 Build 0)  -->
<svg version="1.1" id="Layer_1" xmlns="http://www.w3.org/2000/svg" xmlns:xlink="http://www.w3.org/1999/xlink" x="0px" y="0px"
	 viewBox="0 0 200 200" style="enable-background:new 0 0 200 200;" xml:space="preserve">
<style type="text/css">
	.st0{fill:#66CBB6;}
</style>
<title>icon6</title>
<path class="st0" d="M183.9,164.4c-12.3,8.3-25.8,14.8-40,19c-28.6,8.8-59.1,8.9-87.8,0.2c-14.2-4.4-27.6-10.8-40-19
	c-2.3-1.8-4.9-1-6.5,1.3c-1.5,1.9-1.1,4.7,0.8,6.2c0.1,0.1,0.3,0.2,0.5,0.3c13,8.8,27.3,15.6,42.3,20.2c30.5,9.1,63,9,93.5-0.2
	c15.1-4.5,29.4-11.3,42.3-20.3c2.6-1.6,2.9-4.1,1.3-6.5C188.8,163.7,186.4,162.6,183.9,164.4L183.9,164.4z M53,112.8L27.8,4.5
	c-0.6-2.8-3.3-4.5-6.1-3.9c0,0-0.1,0-0.1,0C18.8,1.2,17,4,17.6,6.8c0,0,0,0,0,0l25.7,109.6c2.9,11.2,10.4,15.6,21.5,15.6H154
	c2.9,0,5.2-2.3,5.2-5.2s-2.3-5.2-5.2-5.2H64.2C58.2,121.6,54.6,118.2,53,112.8L53,112.8z M60.5,136.1l-15.3,39
	c2.9,1.3,6,2.3,8.8,3.4l16.6-42.1C67.3,136.4,63.9,136.4,60.5,136.1L60.5,136.1z M129.3,136.4l16.6,41.8c2.9-1.1,6-2.1,8.8-3.1
	l-15-38.7H129.3z M68.3,154.1l-4.2,10.6c23.5-5.7,48.1-5.7,71.7,0l-4.2-10.6C110.8,149.9,89.2,149.9,68.3,154.1z M55.3,102.9h10.9
	c-0.5-0.9-0.8-1.9-1-2.9l-3.7-15.3H51.2L55.3,102.9z M112.2,117.2c12.5-0.6,22.3-10.9,22.3-23.4c0-13-10.6-23.6-23.6-23.6H47.8
	l2.3,10.1h60.8c7.5-0.4,13.8,5.3,14.2,12.8s-5.3,13.8-12.8,14.2c-0.5,0-1,0-1.5,0H56.3l1,4.4c1,3.6,3.1,5.4,6.7,5.4L112.2,117.2z
	 M135.6,107.1c-2.3,4.1-5.6,7.6-9.6,10.1h21.5C146.4,109.7,142.6,107.1,135.6,107.1L135.6,107.1z M46.7,65.8h10.4L45.7,17
	c-2.1-5.7-6.7-6.7-11.9-5.7L46.7,65.8z"/>
</svg>
