<?xml version="1.0" encoding="utf-8"?>
<!-- Generator: Adobe Illustrator 24.0.1, SVG Export Plug-In . SVG Version: 6.00 Build 0)  -->
<svg version="1.1" id="Layer_1" xmlns="http://www.w3.org/2000/svg" xmlns:xlink="http://www.w3.org/1999/xlink" x="0px" y="0px"
	 viewBox="0 0 200 200" style="enable-background:new 0 0 200 200;" xml:space="preserve">
<style type="text/css">
	.st0{fill-rule:evenodd;clip-rule:evenodd;fill:#66CBB6;}
</style>
<title>icon2</title>
<path class="st0" d="M198.4,114.1l-45.3,45.3c-5.5,5.4-12.8,8.5-20.5,8.6v17.7h43.8c3.3,0,3.3,5.1,0,5.1H12.9c-3.3,0-3.3-5.1,0-5.1
	h28.8V168H27.3c-1.4-0.1-2.4-1.2-2.5-2.5v-22.8c-0.1-1.3,0.9-2.5,2.2-2.5c0.1,0,0.2,0,0.3,0h57.9L71,94.7L53.8,100h-0.8
	c-0.7,0-1.3-0.3-1.8-0.8L43,90.1v11.4c0,1.1-0.7,2-1.8,2.3l-25.8,7.8c-0.5,0.3-1.2,0.3-1.7,0c-0.4-0.2-0.8-0.4-1.1-0.8L1.5,96.7
	c-0.1,0-0.2-0.1-0.2-0.2c0,0,0,0,0,0c-3.8-32.4,17.2-64,47.5-74.1l-3-9.9c-1-3.3,3.8-4.6,4.8-1.5l3,9.9c31.1-8.3,65.2,6.1,80.7,34.9
	v0.8L133,74.4c0,1.1-0.7,2-1.8,2.3l-25.8,7.8c-1,0.3-2.2-0.1-2.8-1l-6.1-8.8l-1.3,11.4c-0.1,1-0.8,1.8-1.8,2l-17.5,5.3l14.7,47h32.6
	c6.4,0,12.5-2.6,16.9-7.1l23.8-23.8c4.4-4.4,10.4-6.8,16.7-6.8c6.3-0.1,12.3,2.4,16.7,6.8l1,1c1,0.9,1.1,2.4,0.2,3.4
	C198.5,114,198.5,114.1,198.4,114.1z M37.6,81.8c-3-17.5-3.5-34.6-1.3-48.3C16.8,46.1,5.2,68.1,5.8,91.4L37.6,81.8z M15.4,106.3
	l22.2-6.8l0.2-12.1L7.6,96.4L15.4,106.3z M105.7,79l22.2-6.8l1-12.4l-30.3,9.1L105.7,79z M96.1,64.1l31.9-9.6
	C115,34.7,93.3,22.9,70.3,23.1C79.6,33.5,89,47.9,96.1,64.1z M42.2,30.2c-3,13.6-2.8,31.6,0.2,50.1l49.1-14.7
	c-7.8-17.2-17.7-32.4-27.6-42c-3.8,0.5-7.5,1.3-11.1,2.3C49.1,26.9,45.5,28.3,42.2,30.2z M45,84.8l8.8,9.6l36.4-11.1l1.5-12.6
	L45,84.8z M58.4,167.7v17.7h41.2L94,167.7L58.4,167.7z M104.7,185.4h12.1v-17.7H99.1L104.7,185.4z M30.1,162.7h102.6
	c6.4,0,12.5-2.6,16.9-7.1l43.5-43.5c-6.8-6.6-19-6.3-25.5,0.8c-4.3,4.2-7.9,7.9-11,11.1l0,0c-10.9,11.1-16.1,16.4-22.5,18.9
	c-5.9,2.3-12.7,2.3-25.9,2.1c-5.3-0.1-11.7-0.1-19.4-0.1H30L30.1,162.7z M127.9,95.7c-1-0.9-1.2-2.4-0.3-3.4c0,0,0.1-0.1,0.1-0.1
	c1.1-1,2.7-1.2,4-0.5l4.6,4.1c0.8,0.5,1.8,0.5,2.5,0l5.1-4.1c1-0.9,2.6-0.8,3.6,0.2c0.9,1,0.8,2.6-0.2,3.6c-0.1,0.1-0.2,0.2-0.4,0.3
	c-0.6,0.4-1.3,1-2,1.6c-2.3,1.9-5.1,4.2-7.6,4c-2.8,0.4-5.5-2.1-7.7-4.1C129,96.6,128.4,96.1,127.9,95.7L127.9,95.7z M125.2,107.6
	l-5.1,4c-0.8,0.5-1.8,0.5-2.5,0l-4.6-4c-2.5-2-5.8,1.8-3.3,3.8c0.5,0.4,1.1,0.9,1.7,1.5c2.2,2,4.9,4.5,7.7,4.1
	c2.5,0.2,5.3-2.1,7.6-4c0.4-0.4,0.9-0.7,1.3-1s0.5-0.4,0.8-0.6C130.9,109.6,127.7,105.5,125.2,107.6L125.2,107.6z M158.8,77.2
	c0.1,1.3-0.9,2.5-2.2,2.5c-0.1,0-0.2,0-0.3,0c-1.4-0.1-2.4-1.2-2.5-2.5c0-9.4,7.6-16.9,16.9-16.9l0,0c8.4,0,15.6,6.1,16.9,14.4h7.6
	c3.3,0,3.3,5.1,0,5.1h-10.2c-1.3,0.1-2.5-0.9-2.5-2.2c0-0.1,0-0.2,0-0.3C182,61.5,159.3,61.5,158.8,77.2L158.8,77.2z"/>
</svg>
