<?xml version="1.0" encoding="utf-8"?>
<!-- Generator: Adobe Illustrator 24.0.1, SVG Export Plug-In . SVG Version: 6.00 Build 0)  -->
<svg version="1.1" id="Layer_1" xmlns="http://www.w3.org/2000/svg" xmlns:xlink="http://www.w3.org/1999/xlink" x="0px" y="0px"
	 viewBox="0 0 200 200" style="enable-background:new 0 0 200 200;" xml:space="preserve">
<style type="text/css">
	.st0{fill:#66CBB6;}
</style>
<title>icon3</title>
<path class="st0" d="M158.4,104.4c-5.6,0-10.2,4.6-10.2,10.2s4.6,10.2,10.2,10.2c5.6,0,10.2-4.6,10.2-10.2c0,0,0,0,0,0
	C168.6,109,164,104.4,158.4,104.4z M158.4,121.7c-3.9,0-7.1-3.2-7.1-7.1c0-3.9,3.2-7.1,7.1-7.1c3.9,0,7.1,3.2,7.1,7.1c0,0,0,0,0,0
	C165.5,118.5,162.3,121.7,158.4,121.7z"/>
<path class="st0" d="M36,104.4c-5.6,0-10.2,4.6-10.2,10.2c0,5.6,4.6,10.2,10.2,10.2s10.2-4.6,10.2-10.2l0,0
	C46.2,109,41.6,104.4,36,104.4z M36,121.7c-3.9,0-7.1-3.2-7.1-7.1c0-3.9,3.2-7.1,7.1-7.1c3.9,0,7.1,3.2,7.1,7.1c0,0,0,0,0,0
	C43.1,118.5,39.9,121.7,36,121.7z"/>
<path class="st0" d="M198.5,94.9c-0.9-3.9-2.5-7.6-4.8-10.9l-0.7-1h-10.2c-10.1-3.1-20.4-5.9-30.5-8.3c-23.7-5.5-33.1-6-38.1-5.9
	c-8.1,0.1-16.1,1.2-23.9,3.6c-5.3,1.7-10.5,3.8-15.5,6.1c-3.8,1.7-7.5,3.6-11.1,5.5c-6.1,0.5-12.2,1.2-18.1,2.1
	C35.5,87.7,26.7,89,16.2,93c-5,1.9-9.8,4.2-14.5,6.8l-1.2,0.7v22.7h21.2c4.7,7.9,14.9,10.4,22.7,5.7c2.4-1.4,4.4-3.5,5.8-5.9v0.1
	h93.9c4.7,7.9,14.9,10.4,22.7,5.7c2.4-1.4,4.4-3.4,5.8-5.8c1.9-0.2,3.9-0.4,5.9-0.7c2.3-0.3,4.7-0.5,6.8-0.8l0.3-0.1
	c3.5-0.9,6.6-2.8,9-5.5c2.6-3.1,4.2-6.9,4.4-10.9C199.5,101.7,199.3,98.2,198.5,94.9z M36,126.6c-6.6,0-12-5.4-12-12s5.4-12,12-12
	s12,5.4,12,12l0,0C48,121.2,42.6,126.6,36,126.6z M158.4,126.6c-6.6,0-12-5.4-12-12s5.4-12,12-12s12,5.4,12,12l0,0
	C170.4,121.2,165,126.6,158.4,126.6C158.4,126.6,158.4,126.6,158.4,126.6L158.4,126.6z M194.6,104.7c-0.2,3.1-1.3,6-3.3,8.3
	c-1.8,1.9-4,3.3-6.6,4c-2,0.2-4.3,0.5-6.5,0.8l-3.5,0.4c0.3-1.2,0.4-2.4,0.4-3.6c0-9.2-7.4-16.6-16.6-16.6s-16.6,7.4-16.6,16.6
	c0,0,0,0,0,0c0,1.3,0.2,2.6,0.5,3.9H52.1c0.3-1.3,0.5-2.6,0.5-3.9c0-9.2-7.4-16.6-16.6-16.6s-16.6,7.4-16.6,16.6c0,0,0,0,0,0
	c0,1.3,0.2,2.6,0.5,3.9H5.1v-15.3c4.1-2.2,8.3-4.2,12.7-5.8c10.1-3.8,18.6-5.2,28.5-6.7c6-0.9,12.2-1.6,18.3-2.1H65l0.4-0.2
	c3.7-2,7.4-3.9,11.2-5.6c4.9-2.3,9.9-4.3,15-5.9c7.4-2.2,15-3.3,22.7-3.4c4.8-0.1,13.8,0.4,36.9,5.8c10.1,2.4,20.4,5.2,30.5,8.3
	l0.3,0.1h8.4C193.8,92.7,195.2,98.7,194.6,104.7L194.6,104.7z"/>
<rect x="66.4" y="93.7" class="st0" width="1.5" height="19.6"/>
<rect x="116.9" y="99.5" transform="matrix(0.3848 -0.923 0.923 0.3848 -15.6412 177.1142)" class="st0" width="16.3" height="1.5"/>
<path class="st0" d="M124.3,87.3l2.6-10.9l-1.6-0.3c-9-1.5-18.3-1.4-27.3,0.5c-8.6,1.9-16.9,5.3-24.2,10.2l-4.2,2.8h5.1h4
	c6.8,0,13.8-0.2,20.6-0.5c8-0.4,16.1-1,24-1.7L124.3,87.3z M121.8,84.5c-7.6,0.7-15.2,1.3-22.8,1.6c-6.3,0.3-12.6,0.4-18.9,0.5
	c5.8-3.3,12-5.6,18.5-7c4.5-0.9,9-1.4,13.5-1.4h0.7c3.4,0,6.9,0.3,10.3,0.8L121.8,84.5z"/>
<path class="st0" d="M136.5,78.2c-2.1-0.5-4.2-0.9-6.3-1.2l-1.5-0.2l-2.1,10.4l2.1-0.2c1.9-0.2,5.6-0.5,9-1.1c1.2-0.2,2.4-0.5,3.5-1
	c1.1-0.5,2.2-1.2,3.1-2l2.1-1.8l-2.6-0.8C141.4,79.4,138.9,78.8,136.5,78.2z M137.1,82.8c-2.3,0.4-4.8,0.7-6.7,0.9l0.7-3.4
	c1.5,0.3,3.1,0.6,4.6,1c1.3,0.3,2.5,0.6,3.8,1C138.8,82.5,138,82.7,137.1,82.8z"/>
</svg>
