<?xml version="1.0" encoding="utf-8"?>
<!-- Generator: Adobe Illustrator 24.0.1, SVG Export Plug-In . SVG Version: 6.00 Build 0)  -->
<svg version="1.1" id="Layer_1" xmlns="http://www.w3.org/2000/svg" xmlns:xlink="http://www.w3.org/1999/xlink" x="0px" y="0px"
	 viewBox="0 0 200 200" style="enable-background:new 0 0 200 200;" xml:space="preserve">
<style type="text/css">
	.st0{fill:#66CBB6;}
</style>
<title>icon4</title>
<path class="st0" d="M198.2,39.8l-96.3-29.4c-1.2-0.4-2.6-0.4-3.8,0L1.8,39.8c-1.3,0.4-2.1,1.8-1.7,3.1c0.2,0.8,0.9,1.5,1.7,1.7
	l38.8,11.9v35.4c0,5,2.5,9.3,6.6,12.9L10,123.5c-13,6.3-12.7,24.9,0.7,30.6c-12.3,8.6-8.1,28.2,7.1,30.4l93.2,13.7
	c0.5,0.1,1.1,0,1.6-0.3l84.7-42.7c3-1.5,0.7-6.1-2.3-4.6L111,193l-92.4-13.6c-15.3-2.3-11.9-25.4,3.4-23.1l85.9,12.6
	c0.5,0.1,1.1,0,1.6-0.3l84.7-42.8c3-1.5,0.7-6.1-2.3-4.6l-84,42.4l-92.3-13.6c-15.3-2.2-11.9-25.3,3.4-23.1l93.2,13.7
	c0.5,0,1-0.1,1.4-0.3l58.6-29.6l-0.1,0.2c-0.5,1.3,0.1,2.7,1.3,3.3c0.3,0.1,0.6,0.2,1,0.2h19.3c1.4,0,2.5-1.1,2.5-2.5
	c0-0.3-0.1-0.7-0.2-1l-3.2-10.6l5.4-2.8c1.3-0.6,1.8-2.2,1.2-3.5c-0.4-0.8-1.2-1.4-2.2-1.4l-7.1-1l-3.5-11.7v-32l11.7-3.6
	c1.3-0.4,2.1-1.8,1.7-3.1C199.7,40.7,199,40,198.2,39.8z M46.1,94.9c-0.3-1-0.5-2-0.5-3V58l52.3,15.9l0,0c1.4,0.5,2.9,0.5,4.3,0
	L154.4,58v33.9c0,1-0.2,2-0.5,3c-2.2,6.8-11.7,11-17.9,13.1c-11.2,3.8-24.3,5.2-36.1,5.2s-24.9-1.3-36.1-5.1
	C57.7,105.9,48.2,101.7,46.1,94.9z M174.2,104.1l-62.4,31.5l-88.5-13l28.6-14.5c29.5,17.4,106.3,12.2,107.5-15.6l17.6,2.6
	L174.2,104.1z M159.4,87.3V56.4l22-6.7v30.4l-3,9.9L159.4,87.3z M190.2,109.6h-12.5l6.3-20.5L190.2,109.6z M100,69.3L11,42.2L100,15
	l89,27.2L100,69.3z"/>
</svg>
