<?xml version="1.0" encoding="utf-8"?>
<!-- Generator: Adobe Illustrator 24.0.1, SVG Export Plug-In . SVG Version: 6.00 Build 0)  -->
<svg version="1.1" id="Layer_1" xmlns="http://www.w3.org/2000/svg" xmlns:xlink="http://www.w3.org/1999/xlink" x="0px" y="0px"
	 viewBox="0 0 200 200" style="enable-background:new 0 0 200 200;" xml:space="preserve">
<style type="text/css">
	.st0{fill:#66CBB6;}
</style>
<title>icon5</title>
<path class="st0" d="M131.7,60.9c-1.8,0-3.5,0.1-5.2,0.2c2.6,3.3,4.9,6.8,6.9,10.5c31.3,1,55.9,27.2,55,58.5s-27.2,55.9-58.5,55
	s-55.9-27.2-55-58.5C75.5,105.3,88,86.1,107.3,77c-2.2-2.9-4.8-5.6-7.7-8c-32.8,17.7-44.9,58.7-27.2,91.4s58.7,44.9,91.4,27.2
	S208.8,129,191,96.2C179.2,74.4,156.4,60.9,131.7,60.9L131.7,60.9z"/>
<path class="st0" d="M10.8,107.1c0-31.4,25.4-56.9,56.9-56.9c31.4,0,56.9,25.4,56.9,56.9c0,22-12.7,42-32.6,51.4
	c2.3,2.9,4.8,5.6,7.7,8c32.2-17.3,44.8-57.1,28.3-89.8c-2.9-5.8-6.7-11.2-11.2-15.9C105.9,49.2,91.2,41.8,75.3,40l20.3-22.5L90.2,4
	h-45l-5.4,13.5L60.1,40C23,44.3-3.5,77.8,0.8,114.9c3.9,34,32.7,59.7,66.9,59.8c1.8,0,3.5-0.1,5.2-0.2c-2.6-3.3-4.9-6.8-6.9-10.5
	C35.3,163,10.8,137.8,10.8,107.1z"/>
</svg>
