<?xml version="1.0" encoding="utf-8"?>
<!-- Generator: Adobe Illustrator 24.0.1, SVG Export Plug-In . SVG Version: 6.00 Build 0)  -->
<svg version="1.1" id="Layer_1" xmlns="http://www.w3.org/2000/svg" xmlns:xlink="http://www.w3.org/1999/xlink" x="0px" y="0px"
	 viewBox="0 0 200 200" style="enable-background:new 0 0 200 200;" xml:space="preserve">
<style type="text/css">
	.st0{fill-rule:evenodd;clip-rule:evenodd;fill:#66CBB6;}
</style>
<title>icon1</title>
<path class="st0" d="M162,199.2H38c-1.9,0-3.4-1.5-3.4-3.4V97c0-1.9,1.5-3.4,3.4-3.4c1.9,0,3.4,1.5,3.4,3.4v95.4h117.1V97
	c0.1-1.9,1.7-3.3,3.6-3.2c1.7,0.1,3.1,1.5,3.2,3.2v98.8C165.4,197.6,163.9,199.1,162,199.2z"/>
<path class="st0" d="M179.6,112.7c-4.2,0-8.2-1.7-11.1-4.6L100,38.9l-68.4,69.2c-6.1,6.2-16.1,6.2-22.2,0.1S3.2,92.1,9.3,85.9l0,0
	L88.5,5.9c0.1-0.1,0.2-0.3,0.3-0.4c6.1-6.2,16.1-6.2,22.3-0.1c0,0,0,0,0,0c0.3,0.3,0.6,0.6,0.8,0.9l78.8,79.7
	c6.1,6.1,6.1,16.1,0,22.2C187.7,111.1,183.7,112.7,179.6,112.7z M100,30.7c0.9,0,1.8,0.4,2.4,1l70.9,71.6c3.5,3.5,9.1,3.5,12.6,0
	c3.5-3.5,3.5-9.1,0-12.6l0,0L107,11l-0.2-0.2c-0.2-0.2-0.3-0.4-0.5-0.6c-1.7-1.7-3.9-2.6-6.3-2.6l0,0c-2.2,0-4.4,0.8-6,2.3
	c-0.1,0.1-0.2,0.2-0.3,0.3L14.1,90.7l0,0c-3.4,3.5-3.3,9.2,0.2,12.6c3.5,3.3,9,3.3,12.4,0l70.8-71.6C98.2,31,99.1,30.7,100,30.7
	L100,30.7z"/>
<path class="st0" d="M100,95.5c-9.6,0-17.3-7.7-17.3-17.3s7.7-17.3,17.3-17.3s17.3,7.7,17.3,17.3l0,0
	C117.3,87.8,109.5,95.5,100,95.5z M100,67.7c-5.8,0-10.5,4.7-10.5,10.5c0,5.8,4.7,10.5,10.5,10.5c5.8,0,10.5-4.7,10.5-10.5l0,0
	C110.5,72.4,105.8,67.7,100,67.7z"/>
<path class="st0" d="M92.3,179.6c-0.9,0-1.8-0.4-2.5-1.1l-27.7-29.5c-7.6-8.1-7.6-20.8,0-28.9c3.6-3.9,8.6-6.1,13.9-6.1h0.2
	c5.2,0,10.2,2.3,13.6,6.2l2.4,2.6l2.5-2.6c3.6-3.9,8.8-6.2,14.1-6.1c5.2,0,10.1,2.3,13.6,6.1c7.5,8,7.6,20.4,0.3,28.5l0,0l-0.3,0.3
	c-0.6,0.7-1.5,1.1-2.5,1.1l0,0c-0.9,0-1.8-0.4-2.5-1.1l-3.1-3.3c-1.1-1.3-2.8-2-4.5-2.1c-1.8,0-3.5,0.7-4.7,2.1
	c-2.7,2.9-2.7,7.4,0,10.3l0,0l3.1,3.3c1.2,1.3,1.2,3.4,0,4.7l-13.6,14.6C94.2,179.2,93.3,179.6,92.3,179.6z M76.1,120.9
	c-3.4,0-6.7,1.5-9,4c-5.1,5.5-5.1,14,0,19.5l0,0l25.2,26.9l8.9-9.5l-0.9-0.9c-5.2-5.5-5.2-14.2,0-19.7c2.5-2.7,5.9-4.2,9.6-4.2h0.1
	c3.6,0,7,1.6,9.4,4.2l0.2,0.3c2.8-5.4,2-12.1-2.2-16.6l0,0c-2.2-2.5-5.4-3.9-8.7-3.9h-0.1c-3.4,0-6.7,1.5-9,4l-5,5.3
	c-0.6,0.7-1.5,1.1-2.5,1.1l0,0c-0.9,0-1.8-0.4-2.5-1.1l-5-5.3C82.6,122.4,79.4,121,76.1,120.9L76.1,120.9z"/>
<path class="st0" d="M120,180.1c-0.9,0-1.8-0.4-2.5-1.1l-17.1-18.3c-5.2-5.5-5.2-14.2,0-19.7c2.5-2.7,5.9-4.2,9.6-4.2h0.1
	c3.6,0,7,1.6,9.4,4.2l0.6,0.6l0.6-0.6c2.5-2.7,5.9-4.2,9.6-4.2h0.1c3.6,0,7,1.5,9.4,4.2c5.2,5.6,5.2,14.1,0,19.7l-17.2,18.3
	C121.9,179.8,121,180.1,120,180.1L120,180.1z M110,143.7c-1.8,0-3.4,0.8-4.6,2.1c-2.7,2.9-2.7,7.4,0,10.3l0,0l14.6,15.7l14.7-15.7
	c2.7-2.9,2.7-7.4,0-10.4l0,0c-1.1-1.3-2.7-2-4.4-2l0,0c-1.8,0-3.4,0.8-4.6,2.1l-3.1,3.3c-0.6,0.7-1.5,1.1-2.5,1.1l0,0
	c-0.9,0-1.8-0.4-2.5-1.1l-3.1-3.3C113.4,144.5,111.8,143.8,110,143.7L110,143.7z"/>
</svg>
