<svg xmlns="http://www.w3.org/2000/svg" viewBox="0 0 110.66 66.68"><defs><style>.cls-1{fill:#fff;}.cls-2{fill:none;stroke:#fff;stroke-miterlimit:10;stroke-width:0.96px;}</style></defs><title>Asset 2back</title><g id="Layer_2" data-name="Layer 2"><g id="Layer_1-2" data-name="Layer 1"><path class="cls-1" d="M5.41,0,9.5,12h.05L13.42,0h5.41V17.49h-3.6V5.09h-.05L10.9,17.49h-3L3.65,5.22h0V17.49H0V0Z"/><path class="cls-1" d="M35.07,16.15a8.08,8.08,0,0,1-5.49,1.73,8,8,0,0,1-5.49-1.72q-1.95-1.71-1.95-5.29V0H26V10.87a7.22,7.22,0,0,0,.13,1.4,2.71,2.71,0,0,0,1.6,2.07,4.41,4.41,0,0,0,1.87.33,3.61,3.61,0,0,0,2.84-.92,4.33,4.33,0,0,0,.79-2.88V0h3.84V10.87A6.63,6.63,0,0,1,35.07,16.15Z"/><path class="cls-1" d="M39,3.23V0H53.31V3.23H48.07V17.49H44.23V3.23Z"/><path class="cls-1" d="M68.18,16.15a8.08,8.08,0,0,1-5.49,1.73,8,8,0,0,1-5.5-1.72q-1.94-1.71-1.94-5.29V0h3.84V10.87a7.22,7.22,0,0,0,.13,1.4,2.71,2.71,0,0,0,1.6,2.07,4.41,4.41,0,0,0,1.87.33,3.61,3.61,0,0,0,2.84-.92,4.33,4.33,0,0,0,.79-2.88V0h3.84V10.87A6.63,6.63,0,0,1,68.18,16.15Z"/><path class="cls-1" d="M82.19,0l6.53,17.49h-4l-1.32-3.9H76.87l-1.37,3.9H71.63L78.24,0Zm.22,10.73L80.2,4.31h0l-2.27,6.42Z"/><path class="cls-1" d="M94.09,0V14.25h8.52v3.24H90.24V0Z"/><path class="cls-1" d="M32.52,21.87V25.1H24.07v4h7.32v3H24.07v7.22H20.23V21.87Z"/><path class="cls-1" d="M47.61,38a8.12,8.12,0,0,1-5.49,1.73A8.07,8.07,0,0,1,36.62,38c-1.3-1.14-1.94-2.9-1.94-5.29V21.87h3.84V32.74a8.1,8.1,0,0,0,.12,1.4,2.75,2.75,0,0,0,1.61,2.07,4.41,4.41,0,0,0,1.87.33A3.61,3.61,0,0,0,45,35.62a4.39,4.39,0,0,0,.78-2.88V21.87h3.85V32.74A6.63,6.63,0,0,1,47.61,38Z"/><path class="cls-1" d="M56.72,21.87,64,33.6h0V21.87h3.6V39.35H63.82l-7.28-11.7h0v11.7H52.89V21.87Z"/><path class="cls-1" d="M78.58,21.87a9,9,0,0,1,3.15.54A6.93,6.93,0,0,1,84.25,24a7.49,7.49,0,0,1,1.67,2.7,10.88,10.88,0,0,1,.6,3.79A12,12,0,0,1,86,34a7.77,7.77,0,0,1-1.48,2.79,6.88,6.88,0,0,1-2.48,1.85,8.33,8.33,0,0,1-3.49.67H71V21.87Zm-.26,14.25a4.9,4.9,0,0,0,1.61-.27,3.67,3.67,0,0,0,1.4-.89,4.57,4.57,0,0,0,1-1.63,7.32,7.32,0,0,0,.36-2.45,10.32,10.32,0,0,0-.25-2.39,4.71,4.71,0,0,0-.85-1.82A3.63,3.63,0,0,0,80,25.51a6.21,6.21,0,0,0-2.39-.41H74.89v11Z"/><path class="cls-1" d="M92.13,35A2.83,2.83,0,0,0,93,36a3.62,3.62,0,0,0,1.24.56,5.92,5.92,0,0,0,1.47.18,8.77,8.77,0,0,0,1.1-.08,4,4,0,0,0,1.1-.33,2.5,2.5,0,0,0,.86-.68,1.67,1.67,0,0,0,.34-1.09,1.55,1.55,0,0,0-.45-1.15,3.54,3.54,0,0,0-1.19-.73,11.64,11.64,0,0,0-1.66-.52c-.62-.14-1.25-.31-1.89-.49a15.68,15.68,0,0,1-1.91-.6,6.54,6.54,0,0,1-1.67-.91,4.49,4.49,0,0,1-1.18-1.41,4.22,4.22,0,0,1-.46-2.05,4.61,4.61,0,0,1,.58-2.34,5.18,5.18,0,0,1,1.51-1.65,6.53,6.53,0,0,1,2.1-1,9.11,9.11,0,0,1,2.35-.32,10.91,10.91,0,0,1,2.64.31,6.49,6.49,0,0,1,2.24,1,5,5,0,0,1,1.55,1.75,5.29,5.29,0,0,1,.58,2.58H98.49a3,3,0,0,0-.33-1.29,2,2,0,0,0-.74-.81,3.07,3.07,0,0,0-1.07-.42A6.71,6.71,0,0,0,95,24.44a4.2,4.2,0,0,0-.93.1,2.4,2.4,0,0,0-.84.34,2,2,0,0,0-.63.61,1.69,1.69,0,0,0-.24.93,1.61,1.61,0,0,0,.19.84,1.77,1.77,0,0,0,.77.58,10.12,10.12,0,0,0,1.6.54l2.65.69c.33.06.78.18,1.36.35a6.63,6.63,0,0,1,1.73.82,5.33,5.33,0,0,1,1.48,1.51,4.25,4.25,0,0,1,.63,2.41,5.34,5.34,0,0,1-.47,2.23A4.85,4.85,0,0,1,101,38.17a7,7,0,0,1-2.28,1.16,10.73,10.73,0,0,1-3.15.42,10.86,10.86,0,0,1-2.8-.36,7.16,7.16,0,0,1-2.4-1.11,5.48,5.48,0,0,1-1.66-1.94,5.8,5.8,0,0,1-.58-2.79h3.72A3.07,3.07,0,0,0,92.13,35Z"/><path class="cls-1" d="M54.92,49.3a.92.92,0,0,1-.74-.33,1.66,1.66,0,0,0,.72-1.38c0-.56-.3-1.07-1.18-1.07A1.34,1.34,0,0,0,52.25,48c0,2.36,3.6,2.68,3.6,6.13,0,2.69-2.18,4-4.5,4-1.82,0-3.39-.8-3.39-2.75a2.43,2.43,0,0,1,2.35-2.62c.56,0,1.36.22,1.41,1.05-.86,0-1.87.4-1.87,1.51a1.45,1.45,0,0,0,1.53,1.53,1.88,1.88,0,0,0,1.86-2.13C53.24,52,50,51,50,48.63c0-1.67,1.63-2.87,3.7-2.87.75,0,2.57.16,2.57,1.93C56.23,48.61,55.72,49.3,54.92,49.3Z"/><path class="cls-1" d="M64.33,49.77l-1.15,5.44a2.06,2.06,0,0,0-.07.51c0,.45.21.69.66.69.62,0,1.06-.71,1.3-1.51h.67c-.91,2.61-2.36,3-3.22,3A1.47,1.47,0,0,1,61,56.39a2.88,2.88,0,0,1-2.38,1.47c-1.09,0-2.13-.67-2.13-2.57,0-2.16,1.33-5.6,4.11-5.6.91,0,1.3.35,1.3.81v.11l.18-.84Zm-5.52,5.29c0,1.23.51,1.25.8,1.25a1.62,1.62,0,0,0,1.33-1.41l.76-3.61a.61.61,0,0,0-.65-.61C59.69,50.68,58.81,53.56,58.81,55.06Z"/><path class="cls-1" d="M69.08,51.16c-.62,0-1.12,1-1.21,1.41l-1.11,5.2h-2.3l2.32-10.89,2.37-.31-.87,4a2.38,2.38,0,0,1,1.87-.9,1.62,1.62,0,0,1,1.78,1.81c0,1.3-.77,3.23-.77,4.13,0,.4.16.67.64.67.71,0,1-.58,1.35-1.41h.67c-.9,2.63-2.13,3-3,3A1.7,1.7,0,0,1,69,56.05c0-1.08.72-3,.72-4.08C69.67,51.45,69.48,51.16,69.08,51.16Z"/><path class="cls-1" d="M76.54,49.77l-1.15,5.44a2.06,2.06,0,0,0-.07.51c0,.45.21.59.66.59a1,1,0,0,0,.51-.1,1.67,1.67,0,0,1-1.76,1.65c-1,0-1.71-.57-1.71-1.92a5.35,5.35,0,0,1,.13-1l1.08-5.13Zm-.72-3.41a1.27,1.27,0,1,1,0,2.54,1.27,1.27,0,1,1,0-2.54Z"/><path class="cls-1" d="M85.39,50.57h2.35l1-4.77h2.31l-2.55,12h-2.3l1.28-6H85.15l-1.28,6H81.56l2.32-10.89a3.58,3.58,0,0,0-2.24,3.51,2.16,2.16,0,0,0,.23,1.09c-1.11,0-1.72-.4-1.72-1.55,0-2.13,2.95-4.17,5.62-4.17.23,0,.43,0,.64,0Z"/><path class="cls-1" d="M98.29,49.77l-1.16,5.44a2.58,2.58,0,0,0-.06.51c0,.45.21.69.66.69.62,0,1-.71,1.29-1.51h.67c-.91,2.61-2.35,3-3.21,3a1.46,1.46,0,0,1-1.57-1.47,2.89,2.89,0,0,1-2.39,1.47c-1.08,0-2.12-.67-2.12-2.57,0-2.16,1.33-5.6,4.11-5.6.91,0,1.3.35,1.3.81v.11l.17-.84Zm-5.52,5.29c0,1.23.51,1.25.8,1.25a1.61,1.61,0,0,0,1.32-1.41l.77-3.61a.62.62,0,0,0-.66-.61C93.65,50.68,92.77,53.56,92.77,55.06Z"/><path class="cls-1" d="M102.41,49.77l-1.15,5.44a2,2,0,0,0-.06.51c0,.45.21.59.65.59a1,1,0,0,0,.52-.1,1.67,1.67,0,0,1-1.76,1.65c-1,0-1.72-.57-1.72-1.92a5.35,5.35,0,0,1,.13-1l1.09-5.13Zm-.72-3.41a1.27,1.27,0,1,1,0,2.54,1.27,1.27,0,0,1,0-2.54Z"/><path class="cls-2" d="M80.72,66.33s10.91-10.4,29.83-5.78"/></g></g></svg>