<?xml version="1.0" encoding="UTF-8"?>
<svg xmlns="http://www.w3.org/2000/svg" version="1.1" viewBox="0 0 396.57 197.14">
  <defs>
    <style>
      .cls-1 {
        fill: #fafdfc;
        stroke: #3e3e3e;
        stroke-miterlimit: 10;
      }

      .cls-2 {
        fill: #fff;
      }

      .cls-3 {
        fill: #6cc7b4;
      }

      .cls-4 {
        fill: #3e3e3e;
      }

      .cls-5 {
        fill: #e0e0df;
      }
    </style>
  </defs>
  <!-- Generator: Adobe Illustrator 28.7.1, SVG Export Plug-In . SVG Version: 1.2.0 Build 142)  -->
  <g>
    <g id="Layer_1">
      <g id="Focus">
        <g>
          <path class="cls-4" d="M188.92,176.76c-11.39,0-22.44-2.23-32.84-6.63-10.05-4.25-19.07-10.33-26.82-18.08-7.75-7.75-13.83-16.77-18.08-26.81-4.4-10.4-6.63-21.44-6.63-32.83s2.23-22.43,6.63-32.83c4.25-10.04,10.33-19.06,18.08-26.81,7.75-7.75,16.77-13.83,26.82-18.08,10.4-4.4,21.45-6.63,32.84-6.63s22.44,2.23,32.84,6.63c10.05,4.25,19.07,10.33,26.82,18.08,7.75,7.75,13.83,16.77,18.08,26.81,4.4,10.4,6.63,21.44,6.63,32.83s-2.23,22.43-6.63,32.83c-4.25,10.04-10.33,19.06-18.08,26.81-7.75,7.75-16.77,13.83-26.82,18.08-10.4,4.4-21.45,6.63-32.84,6.63ZM188.92,8.5c-46.29,0-83.94,37.65-83.94,83.92s37.66,83.92,83.94,83.92,83.94-37.65,83.94-83.92S235.21,8.5,188.92,8.5Z"/>
          <path class="cls-5" d="M188.92,158.09c-17.52,0-33.99-6.82-46.38-19.21-12.39-12.39-19.21-28.85-19.21-46.37s6.82-33.98,19.21-46.37c12.39-12.39,28.86-19.21,46.38-19.21s33.99,6.82,46.38,19.21c12.39,12.39,19.21,28.85,19.21,46.37s-6.82,33.98-19.21,46.37c-12.39,12.39-28.86,19.21-46.38,19.21Z"/>
          <path class="cls-1" d="M188.92,137.12c-11.92,0-23.12-4.64-31.55-13.06-8.43-8.43-13.07-19.63-13.07-31.54s4.64-23.12,13.07-31.54c8.43-8.43,19.63-13.06,31.55-13.06s23.12,4.64,31.55,13.06c8.43,8.43,13.07,19.63,13.07,31.54s-4.64,23.12-13.07,31.54c-8.43,8.43-19.63,13.06-31.55,13.06Z"/>
          <path class="cls-3" d="M188.92,117.02c-6.55,0-12.71-2.55-17.34-7.18-4.63-4.63-7.18-10.79-7.18-17.33s2.55-12.7,7.18-17.33c4.63-4.63,10.79-7.18,17.34-7.18s12.71,2.55,17.34,7.18c4.63,4.63,7.18,10.79,7.18,17.33s-2.55,12.7-7.18,17.33c-4.63,4.63-10.79,7.18-17.34,7.18Z"/>
        </g>
        <g>
          <path class="cls-4" d="M126.15,48.22c.53,5.01-.25,6.82-2.71,8.46-6.72,4.47-12.26,10.59-19.33,14.63-5.57,3.18-11.38,6.23-17.74,7.23-2.69.42-5.64.41-7.88-1.09-2.66-1.78-3.65-5.36-2.99-8.45.66-3.09,2.7-5.75,5.03-7.93,5.15-4.8,36.81-32.62,45.54-21.16,1.65,3.46-.14,6.26.08,8.32Z"/>
          <g>
            <g>
              <g>
                <path class="cls-2" d="M165.42,48.75c-.41-.65-3.71-2.76-13.89,5.47-.54.43-1.06.85-1.57,1.25.4,3.09,1.69,7.42,5.57,10.23,2.56-2.93,6.25-7.29,7.57-8.16,1.58-1.06.81-2.53.81-2.53.91-1.01-.15-2.16-.15-2.16.84-1.98-2.12-1.64-2.12-1.64.23-1.13,4.18-1.81,3.78-2.47Z"/>
                <path class="cls-4" d="M155.53,65.91s-.1-.02-.14-.05c-.09-.08-.1-.21-.02-.3.38-.44.79-.91,1.21-1.39,2.46-2.83,5.25-6.05,6.4-6.81.94-.63.98-1.39.86-1.93-.03-.11.04-.23.16-.26.11-.03.23.04.26.16.13.54.17,1.58-1.03,2.38-1.09.73-3.99,4.06-6.31,6.73-.42.49-.83.96-1.21,1.39-.04.05-.1.07-.16.07Z"/>
                <path class="cls-2" d="M149.96,55.47c-9.17,7.2-14.07,9.13-14.07,9.13,0,0-4.91-5.09-9.63-7.66-4.72-2.58-21.99-2.67-21.99-2.67,0,0-2.33,23.42,19.34,24.64,21.67,1.22,28.16-9.06,30.51-11.63.4-.44.88-.98,1.4-1.58-3.88-2.81-5.17-7.14-5.57-10.23Z"/>
                <path class="cls-4" d="M123.33,79.1s0,0-.01,0c-6.05-.4-10.79-2.58-14.09-6.48-6.18-7.3-5.17-18.27-5.16-18.38.01-.11.1-.19.21-.19h0c.71,0,17.38.12,22.09,2.69,1.7.93,3.6,2.27,5.67,4,.09.08.1.21.03.3-.07.09-.21.1-.3.03-2.04-1.71-3.92-3.04-5.6-3.96-4.35-2.37-19.77-2.62-21.69-2.64-.1,1.49-.54,11.24,5.08,17.87,3.23,3.81,7.87,5.93,13.79,6.33.12,0,.21.11.2.23,0,.11-.1.2-.21.2Z"/>
                <path class="cls-4" d="M148.47,73.15c-.06,0-.13-.03-.17-.08-.07-.09-.05-.23.04-.3,2.4-1.8,3.92-3.62,4.92-4.82.27-.32.5-.6.7-.82.32-.35.72-.8,1.25-1.4-3.78-2.85-5.06-7.13-5.47-10.24-.02-.12.07-.22.18-.24.12-.01.22.07.24.18.4,3.08,1.68,7.33,5.49,10.09.05.04.08.09.09.15,0,.06-.01.12-.05.16-.6.69-1.05,1.19-1.41,1.58-.2.22-.43.49-.69.81-1.02,1.21-2.55,3.05-4.99,4.88-.04.03-.08.04-.13.04Z"/>
              </g>
              <path class="cls-4" d="M155.66,57.03s-.09-.01-.13-.04c-.09-.07-.11-.21-.04-.3.55-.71,1.48-.9,2.31-1l.18-.02c.72-.08,1.47-.16,2.01-.58.22-.17.44-.46.38-.75-.06-.28-.38-.48-.94-.61-.85-.19-1.72-.27-2.59-.26-.12,0-.21-.09-.22-.21,0-.12.09-.21.21-.22.9-.02,1.8.07,2.68.27.73.16,1.15.47,1.26.93.11.48-.2.93-.53,1.18-.64.49-1.44.58-2.22.67l-.18.02c-.75.08-1.57.25-2.03.83-.04.05-.1.08-.17.08Z"/>
              <path class="cls-4" d="M160.33,53.85s-.07,0-.1-.02c-.1-.05-.14-.18-.09-.29.29-.55.67-1.04,1.12-1.46.09-.08.22-.07.3.01.08.09.07.22-.01.3-.42.38-.77.84-1.03,1.34-.04.07-.11.11-.19.11Z"/>
              <path class="cls-4" d="M160.7,54.85c-.11,0-.21-.09-.21-.21,0-.12.09-.21.21-.22.97-.02,1.9-.49,2.5-1.25.07-.09.21-.11.3-.04.09.07.11.21.04.3-.68.86-1.73,1.39-2.83,1.41,0,0,0,0,0,0Z"/>
              <path class="cls-4" d="M161.39,56.89c-.24,0-.46-.04-.67-.12-.6-.23-1.01-.81-.99-1.4,0-.12.1-.21.22-.2.12,0,.21.1.2.22-.01.4.29.82.72.98.39.15.89.12,1.35-.1.48-.22.87-.6,1.16-.9.08-.08.22-.09.3,0,.08.08.09.22,0,.3-.32.33-.75.74-1.29.99-.33.15-.68.23-1.01.23Z"/>
              <path class="cls-4" d="M161.53,58.02s-.1,0-.15,0c-.4-.04-.74-.3-.85-.63-.1-.31,0-.63.08-.86.04-.11.16-.17.27-.14.11.04.17.16.14.27-.07.23-.13.43-.08.6.06.17.26.31.49.34.26.03.52-.06.75-.15.11-.04.23.01.28.12.04.11-.01.23-.12.28-.22.09-.51.18-.8.18Z"/>
              <path class="cls-4" d="M133.92,66.18c-.07,0-.14-.03-.18-.09-.07-.1-.04-.23.06-.29l1.54-1.04c.1-.07.23-.04.29.06.07.1.04.23-.06.29l-1.54,1.04s-.08.04-.12.04Z"/>
            </g>
            <path class="cls-2" d="M113.69,54.46c-10.93-.27-9.55-.2-9.55-.2,0,0-21.64,30.68-26.15,46.38-2.13,7.43-1.81,11.81-.85,14.38.82,2.21,3.15,3.47,5.45,2.95l32.36-7.29c1.86-.42,3.29-1.9,3.64-3.77,1.78-9.47,7.14-37.75,8.19-41.22,1.26-4.17-2.16-10.96-13.1-11.23Z"/>
            <path class="cls-4" d="M81.7,118.3c-2.02,0-3.89-1.25-4.62-3.2-1.24-3.34-.95-8.22.85-14.51,1.37-4.78,4.46-11.42,9.18-19.73.06-.1.19-.14.29-.08.1.06.14.19.08.29-4.71,8.28-7.78,14.89-9.14,19.64-1.78,6.2-2.07,10.99-.86,14.24.78,2.1,3.02,3.31,5.2,2.82l32.36-7.29c1.78-.4,3.14-1.81,3.48-3.6,1.65-8.79,7.13-37.74,8.19-41.24.03-.11.15-.18.26-.14.11.03.18.15.14.26-1.05,3.48-6.53,32.41-8.18,41.19-.37,1.95-1.86,3.5-3.8,3.94l-32.36,7.29c-.36.08-.72.12-1.07.12Z"/>
          </g>
          <g>
            <g>
              <g>
                <path class="cls-2" d="M85.62,180.05c-.34,2.42,1.55,4.58,3.99,4.58h22.17c1.08,0,1.68-1.26,1-2.1l-4.09-5.03v-.1s-22.71,0-22.71,0l-.37,2.64Z"/>
                <path class="cls-3" d="M113.99,88.46l-19.9-4.14-1.7,6.18,4.23,10.19-10.63,76.72h22.72l9.21-83.55c.28-2.54-1.42-4.88-3.92-5.4Z"/>
              </g>
              <path class="cls-4" d="M111.78,184.85h-22.17c-1.23,0-2.39-.53-3.2-1.46-.81-.93-1.17-2.15-1-3.37l.37-2.64c.02-.12.12-.2.24-.18.12.02.2.12.18.24l-.37,2.64c-.15,1.09.18,2.2.9,3.03.73.83,1.78,1.31,2.88,1.31h22.17c.43,0,.79-.23.97-.61.18-.38.13-.81-.14-1.14l-4.09-5.03c-.07-.09-.06-.22.03-.3.09-.07.22-.06.3.03l4.09,5.03c.37.45.44,1.06.19,1.59-.25.53-.77.85-1.35.85Z"/>
            </g>
            <g>
              <g>
                <path class="cls-2" d="M62.56,169.66c-2.86-3.6-5.62-8.18-6.53-12.95-.45.34-.91.69-1.39,1.03-2.38,1.72-3.38,4.78-2.43,7.56,1.25,3.68,3.26,8.8,5.92,13.01,2.5,3.96,6.88,6.33,11.56,6.33h3.29c.68,0,1.07-.78.65-1.33l-3.15-5.9s.02-.02.05-.06c-2.8-2.31-6.33-5.61-7.99-7.7Z"/>
                <path class="cls-3" d="M95.76,90.58l-1.67-6.25s-11.35,10.77-13.57,27.23c-2.04,15.09-6.37,31.39-24.49,45.15.91,4.78,3.67,9.35,6.53,12.95,1.65,2.08,5.19,5.38,7.99,7.7,1-1.04,16.08-16.73,23.76-31.31,7.95-15.08,7.28-42.03,14.93-42.49l-13.48-12.98Z"/>
              </g>
              <path class="cls-4" d="M89.07,154.89s-.08-.01-.12-.04c-.1-.07-.12-.2-.06-.3,2.06-3.04,3.82-5.94,5.23-8.61,3.53-6.7,5.36-15.79,6.98-23.82,2.08-10.35,3.73-18.52,8.13-18.78.12,0,.22.08.22.2,0,.12-.08.22-.2.22-4.08.24-5.77,8.68-7.74,18.44-1.62,8.05-3.46,17.17-7.02,23.93-1.41,2.68-3.18,5.6-5.25,8.65-.04.06-.11.09-.18.09Z"/>
              <path class="cls-4" d="M72.98,184.85h-3.29c-4.81,0-9.2-2.4-11.74-6.43-2.7-4.26-4.72-9.45-5.94-13.05-.98-2.88.03-6.01,2.51-7.8.1-.07.23-.05.3.05.07.1.05.23-.05.3-2.33,1.68-3.27,4.63-2.36,7.32,1.21,3.58,3.22,8.73,5.9,12.96,2.47,3.9,6.73,6.23,11.39,6.23h3.29c.24,0,.44-.13.55-.34.11-.21.08-.45-.06-.64,0,0-.01-.02-.02-.03l-3.15-5.9c-.06-.1-.02-.23.09-.29.1-.06.23-.02.29.09l3.14,5.89c.23.31.27.72.1,1.08-.18.36-.53.58-.93.58Z"/>
            </g>
          </g>
          <g>
            <g>
              <path class="cls-2" d="M121.94,48.02l-3.88,6.81,1.8.97s-5.52,4.25-12.2-1.46l2.69-.07,6.1-8.39,5.49,2.14Z"/>
              <path class="cls-4" d="M114.85,57.52c-1.97,0-4.37-.63-6.94-2.7-.09-.07-.11-.21-.03-.3.07-.09.21-.11.3-.03,6.3,5.08,11.5,1.18,11.55,1.14.09-.07.23-.05.3.04.07.09.05.23-.04.3-.03.03-2.07,1.55-5.14,1.55Z"/>
              <g>
                <path class="cls-2" d="M116.42,47.4s2.1,3.24,5.46,2.1c3.36-1.14,2.9-4.98,2.39-6.29-.51-1.31-1.06-1.79-1.06-1.79,0,0-3.42,3.41-5.55,1.99-.12-.08-1.25,3.99-1.25,3.99Z"/>
                <path class="cls-4" d="M120.46,49.96c-2.61,0-4.21-2.41-4.22-2.44-.03-.05-.04-.11-.03-.17,1.12-4.04,1.25-4.09,1.37-4.13.06-.02.14-.01.2.02,1.96,1.31,5.25-1.93,5.28-1.96.08-.08.21-.08.29,0,.02.02.59.54,1.11,1.88.36.93.64,2.88-.09,4.45-.48,1.02-1.29,1.73-2.43,2.12-.52.18-1.02.25-1.48.25ZM116.65,47.37c.34.48,2.24,2.93,5.16,1.94,1.02-.35,1.76-.99,2.18-1.9.67-1.44.42-3.25.08-4.11-.34-.86-.68-1.35-.87-1.57-.7.65-3.47,3.04-5.46,1.98-.2.53-.68,2.16-1.09,3.66Z"/>
              </g>
            </g>
            <path class="cls-4" d="M120.24,41.42s-4.03,14.6-11.63,12.61l4.56-10.17,7.08-2.44Z"/>
          </g>
          <g>
            <g>
              <path class="cls-4" d="M126.7,77.77h-13.69c-.78,0-1.33-.77-1.07-1.51l5.62-16.03c.16-.45.59-.76,1.07-.76h13.69c.78,0,1.33.77,1.07,1.51l-5.62,16.03c-.16.45-.59.76-1.07.76Z"/>
              <path class="cls-2" d="M125.18,62.49c.26.26.26.68,0,.94-.26.26-.68.26-.94,0-.26-.26-.26-.68,0-.94.26-.26.68-.26.94,0Z"/>
            </g>
            <g>
              <g>
                <path class="cls-2" d="M118.19,69.13s.94-.2.57-1.13c-.34-.83-5.2-2.84-13.54,1.48-.85.44-1.62.85-2.31,1.22.62,2.13,2.06,6.2,4.58,8.89,1.96-2.23,4.09-4.28,6.62-4.65,4.47-.65.68-1.59.68-1.59,0,0,3.34-.04,3.34-.8,0-1.02-2.7-1.1-3.84-1.09-.31.01-.5.01-.5.01,0,0,.2,0,.5-.01,1.27-.04,4.52-.23,4.82-1.01.38-.97-.91-1.31-.91-1.31Z"/>
                <path class="cls-4" d="M107.48,79.8c-.06,0-.11-.02-.15-.07-2.54-2.71-3.99-6.79-4.63-8.98-.03-.1.01-.2.1-.25.73-.39,1.51-.8,2.31-1.22,7.21-3.73,11.47-2.65,12.61-2.23.66.24,1.11.56,1.23.86.14.34.14.64,0,.9-.07.13-.16.22-.26.3.21.12.45.3.58.56.13.26.14.55.02.85-.19.48-1.17.77-2.37.94.49.11.91.27,1.15.52.17.16.25.36.25.57,0,.64-1.31.88-2.44.97.34.17.61.4.6.67-.02.31-.31.67-2.36.97-2.48.36-4.59,2.41-6.49,4.58-.04.04-.1.07-.16.07,0,0,0,0,0,0ZM103.15,70.8c.64,2.14,2,5.89,4.33,8.47,1.92-2.16,4.04-4.17,6.59-4.54,1.88-.27,1.99-.56,2-.57-.03-.14-.68-.44-1.34-.6-.1-.03-.17-.12-.16-.23s.1-.19.21-.19c1.61-.02,3.13-.3,3.13-.59,0-.1-.04-.18-.12-.27-.4-.4-1.71-.63-3.5-.61-.31.01-.5.01-.5.01-.12,0-.21-.09-.21-.21,0-.12.09-.21.2-.22,0,0,.2,0,.51-.01,3-.1,4.48-.51,4.63-.88.07-.19.07-.36,0-.5-.19-.36-.76-.53-.76-.53-.1-.03-.16-.11-.16-.21,0-.1.07-.18.17-.2,0,0,.32-.08.44-.31.07-.14.06-.32-.02-.54-.04-.1-.3-.36-.98-.62-1.09-.41-5.21-1.44-12.26,2.2-.75.39-1.47.77-2.16,1.13Z"/>
              </g>
              <path class="cls-4" d="M113.28,69.49c-.1,0-.19-.07-.21-.17-.02-.12.05-.23.17-.25,1.67-.31,3.47-.25,4.68-.14.12.01.2.11.19.23-.01.12-.11.2-.23.19-1.71-.15-3.29-.1-4.57.14-.01,0-.03,0-.04,0Z"/>
              <path class="cls-2" d="M96.59,74.61l12.01-18.6-4.33-1.74s-7.2-.45-15.68,11.44c-8.48,11.89-11.44,18.74-5.18,23.68,6.26,4.94,16.56-2.23,19.77-5.06,1.4-1.22,2.79-3.03,4.3-4.74-2.52-2.69-3.96-6.76-4.58-8.89-5.79,3.11-6.31,3.91-6.31,3.91Z"/>
              <path class="cls-4" d="M88.56,91.27c-1.91,0-3.73-.5-5.29-1.73-3.51-2.76-4.29-6.14-2.54-10.94.04-.11.16-.17.27-.13.11.04.17.16.13.27-1.68,4.6-.94,7.83,2.4,10.46,1.48,1.17,3.21,1.64,5.04,1.64,5.26,0,11.32-3.93,14.46-6.69,1-.87,1.99-2.05,3.05-3.29.36-.42.73-.86,1.1-1.29-2.46-2.71-3.87-6.68-4.5-8.84-.03-.11.03-.23.14-.26.11-.03.23.03.26.14.63,2.15,2.05,6.16,4.53,8.81.07.08.08.2,0,.29-.42.47-.83.96-1.23,1.42-1.06,1.25-2.07,2.44-3.09,3.33-3.2,2.81-9.36,6.79-14.76,6.79Z"/>
              <path class="cls-4" d="M92.16,77.98c-.07,0-.13-.03-.17-.09-.07-.1-.05-.23.05-.3l.08-.06c4.4-3.14,7.99-5.5,10.67-7.03.1-.06.23-.02.29.08.06.1.02.23-.08.29-2.66,1.51-6.24,3.87-10.63,7l-.09.06s-.08.04-.12.04Z"/>
            </g>
          </g>
        </g>
        <g>
          <g>
            <path class="cls-2" d="M263.7,102.76c2.15-1.08,3.52-3.53,3.31-5.92-.2-2.39-1.97-4.57-4.27-5.27-.45-1.87-1.58-3.6-3.2-4.63-1.62-1.04-3.73-1.34-5.53-.66-1.8.68-3.21,2.37-3.42,4.29-.15,1.34.27,2.7.94,3.88.67,1.18,1.57,2.2,2.47,3.2,2.16,2.41,6.07,6.93,9.7,5.11Z"/>
            <path class="cls-4" d="M261.91,103.4c-3.06,0-6.02-3.31-7.92-5.43l-.16-.18c-.59-.66-1.08-1.21-1.55-1.82-.07-.09-.05-.23.04-.3.09-.07.23-.05.3.04.46.59.94,1.14,1.52,1.79l.16.18c2.2,2.46,5.89,6.58,9.29,4.88,2.08-1.04,3.4-3.39,3.2-5.71-.2-2.32-1.89-4.41-4.12-5.08-.07-.02-.13-.08-.15-.15-.46-1.89-1.59-3.53-3.11-4.51-1.55-1-3.47-1.26-5.13-.71-.11.04-.23-.02-.27-.13-.04-.11.02-.23.13-.27,1.78-.59,3.84-.31,5.5.76,1.58,1.01,2.77,2.7,3.27,4.65,2.33.76,4.1,2.97,4.31,5.42.21,2.49-1.2,5.01-3.43,6.13-.62.31-1.25.45-1.88.45Z"/>
            <path class="cls-2" d="M257.64,111.64l1.43-.76-3.55-7.15s-.13-4.54,6.53-1.8l5.65,9.78,1.48-.38s-1.28.29-5.31,1.88c-3.43,1.36-5.36.79-6.23-1.57Z"/>
            <path class="cls-4" d="M267.7,111.92c-.07,0-.15-.04-.18-.11l-5.61-9.72c-2.36-.96-4.15-1.1-5.18-.39-.91.63-.98,1.73-.99,1.96l3.52,7.11c.05.1.01.23-.09.28l-.85.45c-.1.05-.23.02-.29-.09-.05-.1-.02-.23.09-.29l.66-.35-3.45-6.97s-.02-.06-.02-.09c0-.06-.03-1.54,1.17-2.37,1.18-.81,3.08-.69,5.65.37.04.02.08.05.1.09l5.57,9.64.72-.19c.11-.03.23.04.26.15.03.11-.04.23-.15.26l-.88.23s-.04,0-.05,0Z"/>
            <path class="cls-2" d="M259.26,103.32c-.85.73-1.86,1.29-2.96,1.5-1.1.21-2.29.04-3.22-.58-1.56-1.03-2.12-3.13-1.85-4.98.28-1.85,1.24-3.52,2.19-5.12,0,0,3.65,2.8,7,3.25.43,1.09.48,2.15.23,3.19,0,0,.74-.68,1.43-.23.74.48,1.04,1.52.68,2.33-.36.81-1.28,1.3-2.16,1.22-.5-.05-.95-.15-1.35-.57Z"/>
            <path class="cls-4" d="M260.81,104.11c-.07,0-.15,0-.22-.01-.47-.05-1.02-.14-1.48-.63-.08-.09-.08-.22,0-.3.09-.08.22-.08.3,0,.33.35.7.45,1.22.5.81.08,1.63-.38,1.94-1.09.32-.72.05-1.64-.6-2.06-.54-.35-1.16.2-1.17.21-.07.06-.17.07-.25.03-.08-.05-.12-.14-.1-.23.24-1.01.18-1.97-.18-2.95-2.93-.44-5.99-2.55-6.78-3.13-.28.48-.58.98-.84,1.49-.05.1-.18.14-.29.09-.1-.05-.14-.18-.09-.29.31-.59.65-1.17.97-1.71.03-.05.08-.09.14-.1.06-.01.12,0,.17.04.04.03,3.64,2.77,6.9,3.21.08.01.14.06.17.13.36.92.47,1.87.33,2.82.33-.15.79-.26,1.24.04.83.54,1.16,1.68.76,2.59-.36.81-1.24,1.35-2.15,1.35Z"/>
            <path class="cls-4" d="M255.4,105.12c-.73,0-1.44-.16-2.06-.48-.1-.05-.15-.18-.09-.29.05-.1.18-.15.29-.09.8.41,1.76.54,2.73.35.98-.19,1.97-.69,2.86-1.45.09-.08.22-.07.3.02.08.09.07.22-.02.3-.95.81-2,1.35-3.05,1.55-.31.06-.63.09-.94.09Z"/>
            <path class="cls-4" d="M259.96,102.55c-.1,0-.18-.07-.21-.16-.03-.11.05-.23.16-.25.4-.09.79-.25,1.14-.46.1-.06.23-.03.29.07.06.1.03.23-.07.29-.39.24-.82.41-1.26.51-.02,0-.03,0-.05,0Z"/>
            <path class="cls-4" d="M253.24,94.09c-.05,0-.11-.02-.15-.06-.82-.81-1.16-2.05-.85-3.16.03-.11.15-.18.26-.15.11.03.18.15.15.26-.26.95.03,2.05.74,2.74.08.08.08.22,0,.3-.04.04-.1.06-.15.06Z"/>
          </g>
          <g>
            <g>
              <g>
                <path class="cls-4" d="M278.02,149.57l-17.52,15.22h31.17c3.06,0,6,1.22,8.17,3.38l16.48,16.47h-61.46l-20.71-39.94,43.88,4.87Z"/>
                <path class="cls-4" d="M316.31,184.85h-61.46c-.08,0-.15-.04-.19-.11l-20.71-39.94c-.04-.07-.03-.15.01-.22.04-.06.12-.1.2-.09l43.88,4.87c.08,0,.15.07.18.15.03.08,0,.17-.06.22l-17.09,14.84h30.6c3.14,0,6.09,1.22,8.32,3.44l16.48,16.47c.06.06.08.15.05.23-.03.08-.11.13-.2.13ZM254.98,184.42h60.82l-16.11-16.11c-2.14-2.14-4.99-3.32-8.02-3.32h-31.17c-.09,0-.17-.06-.2-.14-.03-.08,0-.18.06-.23l17.16-14.9-43.01-4.78,20.47,39.48Z"/>
              </g>
              <path class="cls-4" d="M257.92,167.53c-.05,0-.11-.02-.15-.06-.08-.08-.08-.22,0-.3l1.84-1.86c.08-.08.22-.08.3,0,.08.08.08.22,0,.3l-1.84,1.86s-.1.06-.15.06Z"/>
              <path class="cls-2" d="M299.95,181.98c-.06,0-.12-.03-.16-.08l-13.79-16.87c-.07-.09-.06-.22.03-.3.09-.07.22-.06.3.03l13.79,16.87c.07.09.06.22-.03.3-.04.03-.09.05-.13.05Z"/>
            </g>
            <g>
              <path class="cls-4" d="M285.16,134.43l1.78,3.79c3.52,7.51-1.96,16.13-10.25,16.13h-27.63l18.22,26.07c1.24,1.78-.03,4.22-2.2,4.22h-32.45c-.85,0-1.32-1-.77-1.65l4.34-5.17-13.45-22.37c-5.56-9.24,1.1-21.01,11.89-21.01h50.53Z"/>
              <path class="cls-2" d="M265.08,184.85h-32.45c-.48,0-.9-.27-1.1-.7-.2-.43-.14-.93.17-1.3l4.24-5.06-13.37-22.24c-2.65-4.41-2.72-9.71-.19-14.18,2.53-4.48,7.12-7.15,12.26-7.15h22.64c.12,0,.21.1.21.21s-.09.21-.21.21h-22.64c-4.99,0-9.43,2.59-11.89,6.93-2.45,4.34-2.39,9.48.18,13.76l13.45,22.37c.05.08.04.18-.02.25l-4.34,5.17c-.2.24-.24.56-.11.84.13.29.4.46.72.46h32.45c.94,0,1.76-.5,2.19-1.33.43-.83.37-1.79-.17-2.56l-18.22-26.07c-.05-.06-.05-.15-.01-.22.04-.07.11-.11.19-.11h27.63c3.82,0,7.33-1.93,9.38-5.15,2.05-3.22,2.3-7.21.68-10.67l-1.78-3.79c-.05-.11,0-.23.1-.28.11-.05.23,0,.28.1l1.78,3.79c1.68,3.59,1.42,7.73-.71,11.08-2.13,3.35-5.77,5.35-9.74,5.35h-27.22l17.98,25.74c.63.9.7,2.02.19,3-.51.98-1.47,1.56-2.57,1.56Z"/>
              <path class="cls-2" d="M263.21,178.03h-26.25c-.12,0-.21-.1-.21-.21s.09-.21.21-.21h26.25c.12,0,.21.1.21.21s-.1.21-.21.21Z"/>
              <path class="cls-2" d="M247.97,154.61h-6.05c-.12,0-.21-.1-.21-.21s.1-.21.21-.21h6.05c.12,0,.21.1.21.21s-.1.21-.21.21Z"/>
            </g>
          </g>
          <g>
            <g>
              <path class="cls-3" d="M289.63,145.12l10.31-2.6-5.93-13.7c-2.19-5.05-6.68-8.24-11.03-11.61-4.62-3.58-10.28-8-19.06-8l17.28,19.05,8.43,16.85Z"/>
              <g>
                <path class="cls-2" d="M291.09,151.38c.26.7.55,1.41,1.06,1.95s1.27.91,2,.76c.97,1.67,2.81,2.81,4.74,2.92.93.06,1.99-.19,2.44-1,.45.33,1.06.42,1.59.24s.96-.63,1.11-1.17c.58.23,1.24-.36,1.27-.99.04-.63-.35-1.2-.77-1.66.29-.13.37-.54.25-.84-.12-.3-.36-.52-.59-.76-1.02-1.06-4.26-8.33-4.26-8.33l-10.25,2.62s.03.84.09,1.2c.08.53.19,1.06.3,1.58.26,1.17.6,2.33,1.01,3.46Z"/>
                <path class="cls-4" d="M299.16,157.23c-.09,0-.18,0-.28,0-1.97-.12-3.81-1.23-4.84-2.9-.7.09-1.48-.23-2.05-.84-.55-.59-.86-1.36-1.1-2.02-.41-1.13-.76-2.31-1.02-3.49-.12-.53-.22-1.06-.3-1.6-.06-.37-.09-1.19-.09-1.23,0-.12.09-.22.2-.22.12,0,.22.09.22.2,0,0,.03.83.09,1.18.08.53.18,1.05.3,1.57.26,1.16.59,2.32,1,3.43.23.63.52,1.34,1.02,1.88.4.43,1.09.84,1.8.69.09-.02.18.02.23.1.93,1.6,2.72,2.71,4.57,2.82.39.02,1.73.03,2.24-.89.03-.05.08-.09.14-.1.06-.01.12,0,.17.04.4.29.93.37,1.4.21.47-.16.84-.55.97-1.02.02-.06.06-.11.11-.13.05-.03.12-.03.17,0,.22.09.43,0,.54-.07.25-.16.43-.45.44-.73.03-.46-.21-.95-.72-1.5-.05-.05-.07-.12-.05-.19.01-.07.06-.12.12-.15.18-.08.22-.37.14-.57-.08-.22-.26-.4-.45-.59l-.09-.09c-1.04-1.07-4.17-8.09-4.3-8.39-.05-.11,0-.23.11-.28.11-.05.23,0,.28.11.03.07,3.23,7.25,4.22,8.27l.09.09c.21.21.43.44.55.74.12.3.08.7-.14.94.48.57.71,1.11.67,1.64-.02.42-.28.83-.64,1.07-.23.14-.47.2-.71.17-.21.51-.65.93-1.18,1.11-.52.18-1.12.12-1.6-.15-.44.59-1.25.93-2.24.93Z"/>
                <path class="cls-4" d="M294.27,153.94s-.06,0-.09-.02c-.11-.05-.16-.17-.11-.28.22-.5.03-1.12-.13-1.67-.21-.68-.35-1.39,0-1.98.19-.32.48-.52.77-.72.2-.14.39-.28.54-.44.36-.41.42-1.06.15-1.53-.06-.1-.03-.23.08-.29.1-.06.23-.03.29.08.37.63.29,1.48-.19,2.03-.18.21-.4.36-.62.51-.26.18-.5.35-.64.59-.27.45-.14,1.05.04,1.64.19.62.4,1.32.11,1.97-.04.08-.11.13-.19.13Z"/>
                <path class="cls-4" d="M301.07,156c-.1,0-.2-.08-.21-.18-.04-.32-.34-.59-.6-.78-.43-.32-.91-.61-1.37-.88-.4-.24-.82-.48-1.21-.76-1.05-.74-1.7-1.58-1.91-2.49-.03-.11.04-.23.16-.26.11-.03.23.04.26.16.19.81.78,1.56,1.75,2.24.38.27.78.51,1.18.74.47.28.96.57,1.41.91.32.24.7.58.76,1.06.02.12-.07.22-.18.24,0,0-.02,0-.03,0Z"/>
                <path class="cls-4" d="M303.9,155.02c-.07,0-.14-.04-.18-.11-.4-.68-1.09-1.15-1.65-1.49-.17-.1-.34-.2-.51-.3-.51-.29-1.04-.59-1.5-.99-.43-.36-1.15-1.12-1.19-2.15,0-.12.09-.22.2-.22,0,0,0,0,0,0,.11,0,.21.09.21.2.03.87.67,1.53,1.04,1.85.43.37.94.66,1.43.94.17.1.35.2.52.3.61.36,1.36.88,1.8,1.64.06.1.03.23-.08.29-.03.02-.07.03-.11.03Z"/>
                <path class="cls-4" d="M304.24,152.42s-.07,0-.1-.03c-1.44-.79-2.62-2.05-3.31-3.54-.05-.11,0-.23.1-.28.11-.05.23,0,.28.1.65,1.41,1.76,2.6,3.13,3.35.1.06.14.19.08.29-.04.07-.11.11-.19.11Z"/>
              </g>
            </g>
            <g>
              <path class="cls-3" d="M285.16,134.43h-26.19l-5.28-11.57-12.37-1.32c-3.8-.41-7.28-2.33-9.65-5.33l-3.48-4.41,6.72-7.17,2.87,4.12,25.2.41c5.15.08,9.85,2.92,12.33,7.42l9.83,17.84Z"/>
              <path class="cls-4" d="M258.46,125.44c-.06,0-.13-.03-.17-.08-1-1.31-2.58-2.2-4.22-2.37-.12-.01-.2-.12-.19-.23.01-.12.12-.2.23-.19,1.76.18,3.44,1.13,4.52,2.54.07.09.05.23-.04.3-.04.03-.08.04-.13.04Z"/>
              <path class="cls-4" d="M239.68,111.46c-.07,0-.13-.03-.17-.09l-1.6-2.17c-.07-.09-.05-.23.04-.3.09-.07.23-.05.3.04l1.6,2.17c.07.09.05.23-.04.3-.04.03-.08.04-.13.04Z"/>
              <path class="cls-4" d="M284.58,133.59c-.08,0-.15-.04-.19-.11-2.59-4.96-5.36-9.91-8.24-14.71-.06-.1-.03-.23.07-.29.1-.06.23-.03.29.07,2.87,4.81,5.65,9.76,8.25,14.73.05.1.01.23-.09.29-.03.02-.07.02-.1.02Z"/>
            </g>
            <g>
              <path class="cls-2" d="M234.93,104.63s-8.05-10.47-10.85-11.26c-2.8-.79-1.45,2.1.16,3.96,0,0-1.38.08-1.39,1.26,0,0-1.21.26-1.28,1.06,0,0-1.67,1-.61,2.15.64.71,1.25-.16,1.25-.16l6,10.15s5.95-3.9,6.72-7.17Z"/>
              <path class="cls-4" d="M227.97,111.63c-.07,0-.14-.04-.18-.1l-5.63-9.52c-.15.13-.37.28-.63.3-.27.02-.52-.1-.74-.34-.32-.35-.45-.72-.39-1.11.1-.66.73-1.15.96-1.31.13-.68.93-1,1.27-1.1.09-.76.69-1.12,1.2-1.25-.85-1.07-2-2.9-1.45-3.76.27-.42.86-.5,1.75-.25,2.81.79,8.08,7.48,8.67,8.24.07.09.06.23-.04.3-.09.07-.23.06-.3-.04-2.11-2.72-6.27-7.48-8.45-8.09-.67-.19-1.12-.16-1.27.07-.33.51.41,2.1,1.65,3.55.05.06.07.15.03.22-.03.07-.1.12-.18.13-.05,0-1.18.08-1.19,1.06,0,.1-.07.18-.17.2-.01,0-1.06.24-1.11.87,0,.07-.04.13-.1.16,0,0-.76.46-.85,1.06-.04.26.06.51.29.76.13.15.27.22.4.21.24-.02.46-.26.52-.35.04-.06.11-.09.18-.09.07,0,.14.04.17.1l5.77,9.76c.06.1.03.23-.07.29-.03.02-.07.03-.11.03Z"/>
              <path class="cls-4" d="M226.73,99.35c-.06,0-.13-.03-.17-.08-.55-.72-1.32-1.3-2.17-1.63-.11-.04-.16-.17-.12-.27.04-.11.17-.16.27-.12.93.36,1.75.97,2.35,1.77.07.09.05.23-.04.3-.04.03-.08.04-.13.04Z"/>
              <path class="cls-4" d="M225.24,100.45c-.07,0-.14-.04-.18-.1-.45-.71-1.16-1.27-1.96-1.53-.11-.04-.17-.16-.13-.27.04-.11.16-.17.27-.13.9.3,1.68.91,2.19,1.71.06.1.03.23-.07.29-.04.02-.07.03-.11.03Z"/>
              <path class="cls-4" d="M224.16,101.49c-.08,0-.15-.04-.19-.12-.41-.81-1.22-1.42-2.11-1.58-.12-.02-.19-.13-.17-.25.02-.12.13-.19.25-.17,1.02.18,1.95.87,2.42,1.8.05.1.01.23-.09.29-.03.02-.06.02-.1.02Z"/>
            </g>
            <path class="cls-2" d="M223.37,107.51s0,.01,0,.02c.07-.07.15-.15.22-.22,0,0-.01,0-.02,0-.17.04-.27.23-.22.39.05.17.22.26.39.22,0,0,.01,0,.02,0,.1-.02.2-.12.22-.22,0,0,0-.01,0-.02.04-.16-.05-.35-.22-.39-.16-.04-.35.05-.39.22Z"/>
          </g>
        </g>
        <g>
          <polygon class="cls-4" points="211.79 80.28 190.01 91.92 209.82 77.18 211.79 80.28"/>
          <g>
            <g>
              <path class="cls-2" d="M285.79,31.18l-18.86,11.96-.25-13.24c-.11-5.97,2.89-11.56,7.93-14.75l10.75-6.81.44,22.85Z"/>
              <path class="cls-4" d="M266.93,43.35s-.07,0-.1-.03c-.07-.04-.11-.11-.11-.18l-.25-13.24c-.11-6,2.96-11.72,8.03-14.94l10.75-6.81c.06-.04.15-.04.21,0,.07.04.11.11.11.18l.44,22.85c0,.07-.04.14-.1.18l-18.86,11.96s-.07.03-.11.03ZM285.15,8.71l-10.43,6.61c-4.94,3.14-7.95,8.72-7.83,14.57l.25,12.86,18.44-11.69-.43-22.35Z"/>
            </g>
            <g>
              <path class="cls-2" d="M285.79,31.18l-18.86,11.96,11.87,5.87c5.35,2.65,11.69,2.31,16.73-.89l10.75-6.81-20.49-10.13Z"/>
              <path class="cls-4" d="M286.37,50.98c-2.62,0-5.25-.59-7.66-1.78l-11.87-5.87c-.07-.03-.11-.1-.12-.18,0-.08.03-.15.1-.19l18.86-11.96c.06-.04.14-.04.21-.01l20.49,10.13c.07.03.11.1.12.18,0,.08-.03.15-.1.19l-10.75,6.81c-2.8,1.78-6.04,2.68-9.28,2.68ZM267.37,43.11l11.53,5.7c5.25,2.6,11.58,2.26,16.52-.87l10.43-6.61-20.04-9.91-18.44,11.69Z"/>
            </g>
          </g>
          <path class="cls-2" d="M217.56,49.31h67.19c1.39,0,2.51,1.13,2.51,2.51v1.05c0,1.39-1.13,2.51-2.51,2.51h-67.19v-6.08h0Z" transform="translate(11.21 143.31) rotate(-32.38)"/>
          <path class="cls-4" d="M245.95,60.26c-.07,0-.14-.03-.18-.1-.06-.1-.03-.23.07-.29l35.4-22.45c.52-.33.88-.84,1.01-1.44.13-.6.03-1.22-.3-1.74l-.56-.89c-.68-1.07-2.1-1.39-3.18-.71l-35.4,22.45c-.1.06-.23.03-.29-.07-.06-.1-.03-.23.07-.29l35.4-22.45c1.27-.8,2.96-.43,3.76.84l.56.89c.39.61.52,1.34.36,2.06-.16.71-.59,1.32-1.2,1.71l-35.4,22.45s-.07.03-.11.03Z"/>
          <path class="cls-2" d="M211.49,65.69h28.1v10.03h-28.1c-2.29,0-4.15-1.86-4.15-4.15v-1.73c0-2.29,1.86-4.15,4.15-4.15Z" transform="translate(-3.12 130.66) rotate(-32.38)"/>
          <path class="cls-4" d="M213.82,82.21c-1.44,0-2.86-.72-3.69-2.02l-.93-1.46c-.62-.98-.83-2.15-.57-3.29.25-1.14.94-2.11,1.92-2.73l13.19-8.37c.1-.06.23-.03.29.07.06.1.03.23-.07.29l-13.19,8.37c-.89.56-1.5,1.44-1.73,2.46s-.05,2.08.52,2.97l.93,1.46c1.16,1.83,3.6,2.38,5.43,1.21l13.17-8.35c.1-.06.23-.03.29.07.06.1.03.23-.07.29l-13.17,8.35c-.72.46-1.53.68-2.33.68Z"/>
          <path class="cls-4" d="M238.7,64.85c-.07,0-.14-.03-.18-.1l-3.26-5.13c-.06-.1-.03-.23.07-.29.1-.06.23-.03.29.07l3.26,5.13c.06.1.03.23-.07.29-.04.02-.07.03-.11.03Z"/>
        </g>
        <g>
          <g>
            <circle class="cls-2" cx="67.52" cy="17.98" r="3.49" transform="translate(-.05 .2) rotate(-.17)"/>
            <path class="cls-4" d="M67.52,21.68c-2.04,0-3.7-1.66-3.7-3.7s1.66-3.7,3.7-3.7,3.7,1.66,3.7,3.7-1.66,3.7-3.7,3.7ZM67.52,14.71c-1.81,0-3.28,1.47-3.28,3.28s1.47,3.28,3.28,3.28,3.28-1.47,3.28-3.28-1.47-3.28-3.28-3.28Z"/>
          </g>
          <g>
            <path class="cls-4" d="M59.49,18.2H4.42c-.12,0-.21-.1-.21-.21s.1-.21.21-.21h55.07c.12,0,.21.1.21.21s-.09.21-.21.21Z"/>
            <path class="cls-4" d="M40.6,23.84h-5.49c-.12,0-.21-.1-.21-.21s.1-.21.21-.21h5.49c.12,0,.21.1.21.21s-.09.21-.21.21Z"/>
            <path class="cls-4" d="M31.02,23.84H4.42c-.12,0-.21-.1-.21-.21s.1-.21.21-.21h26.6c.12,0,.21.1.21.21s-.09.21-.21.21Z"/>
            <g>
              <path class="cls-2" d="M4.42,29.28h95.97H4.42Z"/>
              <path class="cls-4" d="M100.39,29.49H4.42c-.12,0-.21-.1-.21-.21s.1-.21.21-.21h95.97c.12,0,.21.1.21.21s-.09.21-.21.21Z"/>
            </g>
          </g>
        </g>
        <g>
          <g>
            <circle class="cls-2" cx="302.7" cy="193.94" r="3.49" transform="translate(-.56 .88) rotate(-.17)"/>
            <path class="cls-4" d="M302.7,190.24c2.04,0,3.7,1.66,3.7,3.7s-1.66,3.7-3.7,3.7-3.7-1.66-3.7-3.7,1.66-3.7,3.7-3.7ZM302.7,197.21c1.81,0,3.28-1.47,3.28-3.28s-1.47-3.28-3.28-3.28-3.28,1.47-3.28,3.28,1.47,3.28,3.28,3.28Z"/>
          </g>
          <g>
            <path class="cls-4" d="M310.73,193.73h55.07c.12,0,.21.1.21.21s-.1.21-.21.21h-55.07c-.12,0-.21-.1-.21-.21s.09-.21.21-.21Z"/>
            <path class="cls-4" d="M329.62,188.08h5.49c.12,0,.21.1.21.21s-.1.21-.21.21h-5.49c-.12,0-.21-.1-.21-.21s.09-.21.21-.21Z"/>
            <path class="cls-4" d="M339.2,188.08h26.6c.12,0,.21.1.21.21s-.1.21-.21.21h-26.6c-.12,0-.21-.1-.21-.21s.09-.21.21-.21Z"/>
            <path class="cls-2" d="M390.65,190.55h-95.97,95.97Z"/>
          </g>
        </g>
        <path class="cls-4" d="M188.99,92.13c-.08,0-.15-.1-.15-.21V18.2h-106.16c-.08,0-.15-.1-.15-.21s.07-.21.15-.21h106.31c.08,0,.15.1.15.21v73.94c0,.12-.07.21-.15.21Z"/>
        <path class="cls-4" d="M312.58,71.76c-.14,0-.29.01-.43.03-.35-1.41-.91-2.74-1.64-3.95.11-.09.22-.18.32-.28,1.37-1.37,1.37-3.6,0-4.97-1.37-1.37-3.6-1.37-4.97,0-.1.1-.19.21-.28.32-1.21-.73-2.54-1.29-3.95-1.64.02-.14.03-.28.03-.43,0-1.94-1.57-3.52-3.52-3.52s-3.52,1.57-3.52,3.52c0,.14.01.29.03.43-1.41.35-2.74.91-3.95,1.64-.09-.11-.18-.22-.28-.32-1.37-1.37-3.6-1.37-4.97,0s-1.37,3.6,0,4.97c.1.1.21.19.32.28-.73,1.21-1.29,2.54-1.64,3.95-.14-.02-.28-.03-.43-.03-1.94,0-3.52,1.57-3.52,3.52s1.57,3.52,3.52,3.52c.14,0,.29-.01.43-.03.35,1.41.91,2.74,1.64,3.95-.11.09-.22.18-.32.28-1.37,1.37-1.37,3.6,0,4.97s3.6,1.37,4.97,0c.1-.1.19-.21.28-.32,1.21.73,2.54,1.29,3.95,1.64-.02.14-.03.28-.03.43,0,1.94,1.57,3.52,3.52,3.52s3.52-1.57,3.52-3.52c0-.14-.01-.29-.03-.43,1.41-.35,2.74-.91,3.95-1.64.09.11.18.22.28.32,1.37,1.37,3.6,1.37,4.97,0,1.37-1.37,1.37-3.6,0-4.97-.1-.1-.21-.19-.32-.28.73-1.21,1.29-2.54,1.64-3.95.14.02.28.03.43.03,1.94,0,3.52-1.57,3.52-3.52s-1.57-3.52-3.52-3.52ZM298.14,81.8c-3.61,0-6.53-2.92-6.53-6.53s2.92-6.53,6.53-6.53,6.53,2.92,6.53,6.53-2.92,6.53-6.53,6.53Z"/>
        <path class="cls-4" d="M290.14,99.24c-.06,0-.12,0-.18.01-.15-.59-.38-1.14-.68-1.64.05-.04.09-.07.13-.12.57-.57.57-1.5,0-2.07s-1.5-.57-2.07,0c-.04.04-.08.09-.12.13-.5-.3-1.06-.54-1.64-.68,0-.06.01-.12.01-.18,0-.81-.65-1.46-1.46-1.46s-1.46.65-1.46,1.46c0,.06,0,.12.01.18-.59.15-1.14.38-1.64.68-.04-.05-.07-.09-.12-.13-.57-.57-1.5-.57-2.07,0-.57.57-.57,1.5,0,2.07.04.04.09.08.13.12-.3.5-.54,1.06-.68,1.64-.06,0-.12-.01-.18-.01-.81,0-1.46.65-1.46,1.46s.65,1.46,1.46,1.46c.06,0,.12,0,.18-.01.15.59.38,1.14.68,1.64-.05.04-.09.07-.13.12-.57.57-.57,1.5,0,2.07.57.57,1.5.57,2.07,0,.04-.04.08-.09.12-.13.5.3,1.06.54,1.64.68,0,.06-.01.12-.01.18,0,.81.65,1.46,1.46,1.46s1.46-.65,1.46-1.46c0-.06,0-.12-.01-.18.59-.15,1.14-.38,1.64-.68.04.05.07.09.12.13.57.57,1.5.57,2.07,0,.57-.57.57-1.5,0-2.07-.04-.04-.09-.08-.13-.12.3-.5.54-1.06.68-1.64.06,0,.12.01.18.01.81,0,1.46-.65,1.46-1.46s-.65-1.46-1.46-1.46ZM284.14,103.41c-1.5,0-2.72-1.22-2.72-2.71s1.22-2.71,2.72-2.71,2.72,1.22,2.72,2.71-1.22,2.71-2.72,2.71Z"/>
      </g>
    </g>
  </g>
</svg>