<svg xmlns="http://www.w3.org/2000/svg" viewBox="0 0 112.86 95.46"><defs><style>.cls-1{fill:none;stroke:#66cbb6;stroke-linecap:round;stroke-linejoin:round;stroke-width:2.71px;}</style></defs><title>Asset 7back</title><g id="Layer_2" data-name="Layer 2"><g id="Layer_1-2" data-name="Layer 1"><path class="cls-1" d="M34.62,63.77,32.8,51.17a6.56,6.56,0,0,0-2.29-4.07l-5.09-4.24"/><path class="cls-1" d="M11.47,25.8a2,2,0,0,1,0-.24l2.4-9.46A3.61,3.61,0,0,1,17,13.41l8.24-1A17.76,17.76,0,0,1,39.1,19.08l4.23,5.29,6-1.87A3,3,0,0,1,53,24.38a3.3,3.3,0,0,1,.16,1,3,3,0,0,1-2.08,2.85l-10,3.21-6.14-6L30.18,35.2,38,42.61A7.3,7.3,0,0,1,40.25,47l2.14,16.77"/><polyline class="cls-1" points="17.71 26.74 19.53 19.96 24.43 19.96 27.17 19.96"/><path class="cls-1" d="M15.33,44a4,4,0,0,1-4.24,1.55L1.36,43v6.77l11.27,3.46a7.57,7.57,0,0,0,8.72-3.53l5.14-8.79"/><path class="cls-1" d="M34.62,14.55h0a5.62,5.62,0,0,1-4.71-6.39l.31-2a5.62,5.62,0,0,1,6.39-4.72h0a5.63,5.63,0,0,1,4.71,6.39l-.31,2A5.61,5.61,0,0,1,34.62,14.55Z"/><rect class="cls-1" x="3.71" y="26.12" width="18.84" height="12.67" transform="translate(4.99 -1.6) rotate(8.59)"/><polyline class="cls-1" points="9.4 94.1 9.4 76 29.11 76 29.11 63.77 48.83 63.77 48.83 51.53 68.53 51.53 68.53 39.29 111.51 39.29 111.51 92.19"/><path class="cls-1" d="M84.53,39.29V3.45h-8A5.11,5.11,0,0,0,72.9,5a5,5,0,0,1-3.62,1.53H63.55l4.23,6-4.23,6.11H72.9a5.07,5.07,0,0,0,3.61-1.52,5.05,5.05,0,0,1,3.61-1.52h4.41"/><line class="cls-1" x1="84.53" y1="39.29" x2="84.53" y2="1.36"/></g></g></svg>